<?xml version="1.0" encoding="UTF-8"?>
<!DOCTYPE svg PUBLIC "-//W3C//DTD SVG 1.1//EN" "http://www.w3.org/Graphics/SVG/1.1/DTD/svg11.dtd">
<svg width="224mm" height="156mm" viewBox="0 0 22400 15600" version="1.1" xmlns="http://www.w3.org/2000/svg" stroke-width="28.222" stroke-linejoin="round" xml:space="preserve">
 <path fill="rgb(255,255,255)" stroke="none" d="M 11246,15565 L 47,15565 47,0 22445,0 22445,15565 11246,15565 Z"/>
 <path fill="none" stroke="rgb(179,179,179)" stroke-linejoin="round" d="M 10847,13626 L 2867,13626 2867,2731 18827,2731 18827,13626 10847,13626 Z"/>
 <path fill="none" stroke="rgb(179,179,179)" stroke-linejoin="round" d="M 2867,2730 L 2867,13625"/>
 <path fill="none" stroke="rgb(179,179,179)" stroke-linejoin="round" d="M 4197,2730 L 4197,13625"/>
 <path fill="none" stroke="rgb(179,179,179)" stroke-linejoin="round" d="M 5527,2730 L 5527,13625"/>
 <path fill="none" stroke="rgb(179,179,179)" stroke-linejoin="round" d="M 6857,2730 L 6857,13625"/>
 <path fill="none" stroke="rgb(179,179,179)" stroke-linejoin="round" d="M 8187,2730 L 8187,13625"/>
 <path fill="none" stroke="rgb(179,179,179)" stroke-linejoin="round" d="M 9517,2730 L 9517,13625"/>
 <path fill="none" stroke="rgb(179,179,179)" stroke-linejoin="round" d="M 10847,2730 L 10847,13625"/>
 <path fill="none" stroke="rgb(179,179,179)" stroke-linejoin="round" d="M 12176,2730 L 12176,13625"/>
 <path fill="none" stroke="rgb(179,179,179)" stroke-linejoin="round" d="M 13506,2730 L 13506,13625"/>
 <path fill="none" stroke="rgb(179,179,179)" stroke-linejoin="round" d="M 14836,2730 L 14836,13625"/>
 <path fill="none" stroke="rgb(179,179,179)" stroke-linejoin="round" d="M 16166,2730 L 16166,13625"/>
 <path fill="none" stroke="rgb(179,179,179)" stroke-linejoin="round" d="M 17496,2730 L 17496,13625"/>
 <path fill="none" stroke="rgb(179,179,179)" stroke-linejoin="round" d="M 18827,2730 L 18827,13625"/>
 <path fill="none" stroke="rgb(179,179,179)" stroke-linejoin="round" d="M 18827,13625 L 2867,13625"/>
 <path fill="none" stroke="rgb(179,179,179)" stroke-linejoin="round" d="M 18827,11809 L 2867,11809"/>
 <path fill="none" stroke="rgb(179,179,179)" stroke-linejoin="round" d="M 18827,9993 L 2867,9993"/>
 <path fill="none" stroke="rgb(179,179,179)" stroke-linejoin="round" d="M 18827,8177 L 2867,8177"/>
 <path fill="none" stroke="rgb(179,179,179)" stroke-linejoin="round" d="M 18827,6362 L 2867,6362"/>
 <path fill="none" stroke="rgb(179,179,179)" stroke-linejoin="round" d="M 18827,4546 L 2867,4546"/>
 <path fill="none" stroke="rgb(179,179,179)" stroke-linejoin="round" d="M 18827,2730 L 2867,2730"/>
 <path fill="none" stroke="rgb(179,179,179)" stroke-linejoin="round" d="M 2867,13775 L 2867,13625"/>
 <path fill="none" stroke="rgb(179,179,179)" stroke-linejoin="round" d="M 2867,13775 L 2867,13625"/>
 <path fill="none" stroke="rgb(179,179,179)" stroke-linejoin="round" d="M 4197,13775 L 4197,13625"/>
 <path fill="none" stroke="rgb(179,179,179)" stroke-linejoin="round" d="M 4197,13775 L 4197,13625"/>
 <path fill="none" stroke="rgb(179,179,179)" stroke-linejoin="round" d="M 5527,13775 L 5527,13625"/>
 <path fill="none" stroke="rgb(179,179,179)" stroke-linejoin="round" d="M 5527,13775 L 5527,13625"/>
 <path fill="none" stroke="rgb(179,179,179)" stroke-linejoin="round" d="M 6857,13775 L 6857,13625"/>
 <path fill="none" stroke="rgb(179,179,179)" stroke-linejoin="round" d="M 6857,13775 L 6857,13625"/>
 <path fill="none" stroke="rgb(179,179,179)" stroke-linejoin="round" d="M 8187,13775 L 8187,13625"/>
 <path fill="none" stroke="rgb(179,179,179)" stroke-linejoin="round" d="M 8187,13775 L 8187,13625"/>
 <path fill="none" stroke="rgb(179,179,179)" stroke-linejoin="round" d="M 9517,13775 L 9517,13625"/>
 <path fill="none" stroke="rgb(179,179,179)" stroke-linejoin="round" d="M 9517,13775 L 9517,13625"/>
 <path fill="none" stroke="rgb(179,179,179)" stroke-linejoin="round" d="M 10847,13775 L 10847,13625"/>
 <path fill="none" stroke="rgb(179,179,179)" stroke-linejoin="round" d="M 10847,13775 L 10847,13625"/>
 <path fill="none" stroke="rgb(179,179,179)" stroke-linejoin="round" d="M 12176,13775 L 12176,13625"/>
 <path fill="none" stroke="rgb(179,179,179)" stroke-linejoin="round" d="M 12176,13775 L 12176,13625"/>
 <path fill="none" stroke="rgb(179,179,179)" stroke-linejoin="round" d="M 13506,13775 L 13506,13625"/>
 <path fill="none" stroke="rgb(179,179,179)" stroke-linejoin="round" d="M 13506,13775 L 13506,13625"/>
 <path fill="none" stroke="rgb(179,179,179)" stroke-linejoin="round" d="M 14836,13775 L 14836,13625"/>
 <path fill="none" stroke="rgb(179,179,179)" stroke-linejoin="round" d="M 14836,13775 L 14836,13625"/>
 <path fill="none" stroke="rgb(179,179,179)" stroke-linejoin="round" d="M 16166,13775 L 16166,13625"/>
 <path fill="none" stroke="rgb(179,179,179)" stroke-linejoin="round" d="M 16166,13775 L 16166,13625"/>
 <path fill="none" stroke="rgb(179,179,179)" stroke-linejoin="round" d="M 17496,13775 L 17496,13625"/>
 <path fill="none" stroke="rgb(179,179,179)" stroke-linejoin="round" d="M 17496,13775 L 17496,13625"/>
 <path fill="none" stroke="rgb(179,179,179)" stroke-linejoin="round" d="M 18827,13775 L 18827,13625"/>
 <path fill="none" stroke="rgb(179,179,179)" stroke-linejoin="round" d="M 18827,13775 L 18827,13625"/>
 <path fill="none" stroke="rgb(179,179,179)" stroke-linejoin="round" d="M 2867,13625 L 18827,13625"/>
 <path fill="none" stroke="rgb(179,179,179)" stroke-linejoin="round" d="M 2717,13625 L 2867,13625"/>
 <path fill="none" stroke="rgb(179,179,179)" stroke-linejoin="round" d="M 2717,13625 L 2867,13625"/>
 <path fill="none" stroke="rgb(179,179,179)" stroke-linejoin="round" d="M 2717,11809 L 2867,11809"/>
 <path fill="none" stroke="rgb(179,179,179)" stroke-linejoin="round" d="M 2717,11809 L 2867,11809"/>
 <path fill="none" stroke="rgb(179,179,179)" stroke-linejoin="round" d="M 2717,9993 L 2867,9993"/>
 <path fill="none" stroke="rgb(179,179,179)" stroke-linejoin="round" d="M 2717,9993 L 2867,9993"/>
 <path fill="none" stroke="rgb(179,179,179)" stroke-linejoin="round" d="M 2717,8177 L 2867,8177"/>
 <path fill="none" stroke="rgb(179,179,179)" stroke-linejoin="round" d="M 2717,8177 L 2867,8177"/>
 <path fill="none" stroke="rgb(179,179,179)" stroke-linejoin="round" d="M 2717,6362 L 2867,6362"/>
 <path fill="none" stroke="rgb(179,179,179)" stroke-linejoin="round" d="M 2717,6362 L 2867,6362"/>
 <path fill="none" stroke="rgb(179,179,179)" stroke-linejoin="round" d="M 2717,4546 L 2867,4546"/>
 <path fill="none" stroke="rgb(179,179,179)" stroke-linejoin="round" d="M 2717,4546 L 2867,4546"/>
 <path fill="none" stroke="rgb(179,179,179)" stroke-linejoin="round" d="M 2717,2730 L 2867,2730"/>
 <path fill="none" stroke="rgb(179,179,179)" stroke-linejoin="round" d="M 2717,2730 L 2867,2730"/>
 <path fill="none" stroke="rgb(179,179,179)" stroke-linejoin="round" d="M 2867,13625 L 2867,2730"/>
 <path fill="none" stroke="rgb(255,66,14)" stroke-width="80" stroke-linejoin="round" d="M 3665,8817 L 3798,9334 3931,9891 4064,10162 4197,10400 4330,10581 4463,10633 4596,10800 4729,10842 4862,10860 4995,10904 5128,11002 5261,11039 5394,11099 5527,11107 5660,11164 5793,11122 5926,11202 6059,11210 6192,11277 6325,11257 6458,11300 6591,11274 6724,11333 6857,11329 6990,11338 7123,11354 7256,11367 7389,11384 7522,11394 7655,11442 7788,11437 7921,11443 8054,11472 8187,11492 8320,11516 8453,11563 8586,11535 8719,11585 8852,11596 8985,11605 9118,11623 9251,11676 9384,11662 9517,11696 9650,11705 9783,11718 9916,11724 10049,11774 10182,11767 10315,11781 10448,11810 10581,11823 10714,11850 10847,11840 10980,11879 11113,11888 11246,11899 11378,11907 11511,11913 11644,11946 11777,11967 11910,11960 12043,11985 12176,11989 12309,11994 12442,12031 12575,12044 12708,12044 12841,12047 12974,12073 13107,12086 13240,12101 13373,12113 13506,12113 13639,12127 13772,12158 13905,12168 14038,12174 14171,12191 14304,12214 14437,12220 14570,12232 14703,12234 14836,12272 14969,12278 15102,12285 15235,12289 15368,12317 15501,12332 15634,12334 15767,12361 15900,12373 16033,12377 16166,12409 16299,12410 16432,12416 16565,12434 16698,12450 16831,12463 16964,12481 17097,12487"/>
 <path fill="none" stroke="rgb(0,69,134)" stroke-width="80" stroke-linejoin="round" d="M 3665,4707 L 3798,5178 3931,5454 4064,5617 4197,6650 4330,6682 4463,6417 4596,7114 4729,7465 4862,7754 4995,7404 5128,7578 5261,7317 5394,7680 5527,7607 5660,7934 5793,8160 5926,8107 6059,8436 6192,7939 6325,8605 6458,8464 6591,8471 6724,7779 6857,6966 6990,8542 7123,8228 7256,7604 7389,8327 7522,9574 7655,8276 7788,9582 7921,9056 8054,9516 8187,9467 8320,9795 8453,9211 8586,9838 8719,9690 8852,9797 8985,10176 9118,9777 9251,10044 9384,9993 9517,10405 9650,10382 9783,10295 9916,10774 10049,10661 10182,10498 10315,10748 10448,10888 10581,11174 10714,10972 10847,10927 10980,11397 11113,11121 11246,11387 11378,11318 11511,11492 11644,11682 11777,11426 11910,11790 12043,11600 12176,12002 12309,11496 12442,12050 12575,11808 12708,12047 12841,11753 12974,12082 13107,12177 13240,11943 13373,12099 13506,12255 13639,12107 13772,12189 13905,12283 14038,12239 14171,12379 14304,12309 14437,12472 14570,12284 14703,12531 14836,12503 14969,12523 15102,12578 15235,12756 15368,12582 15501,12747 15634,12703 15767,12776 15900,12794 16033,12912 16166,12843 16299,12886 16432,12907 16565,12937 16698,13057 16831,12958 16964,12938 17097,13017"/>
 <text class="TextShape"><tspan class="TextParagraph" font-family="Liberation Sans, sans-serif" font-size="353px" font-weight="400"><tspan class="TextPosition" x="2774" y="14193"><tspan fill="rgb(0,0,0)" stroke="none">0</tspan></tspan></tspan></text>
 <text class="TextShape"><tspan class="TextParagraph" font-family="Liberation Sans, sans-serif" font-size="353px" font-weight="400"><tspan class="TextPosition" x="3919" y="14193"><tspan fill="rgb(0,0,0)" stroke="none">100</tspan></tspan></tspan></text>
 <text class="TextShape"><tspan class="TextParagraph" font-family="Liberation Sans, sans-serif" font-size="353px" font-weight="400"><tspan class="TextPosition" x="5249" y="14193"><tspan fill="rgb(0,0,0)" stroke="none">200</tspan></tspan></tspan></text>
 <text class="TextShape"><tspan class="TextParagraph" font-family="Liberation Sans, sans-serif" font-size="353px" font-weight="400"><tspan class="TextPosition" x="6579" y="14193"><tspan fill="rgb(0,0,0)" stroke="none">300</tspan></tspan></tspan></text>
 <text class="TextShape"><tspan class="TextParagraph" font-family="Liberation Sans, sans-serif" font-size="353px" font-weight="400"><tspan class="TextPosition" x="7909" y="14193"><tspan fill="rgb(0,0,0)" stroke="none">400</tspan></tspan></tspan></text>
 <text class="TextShape"><tspan class="TextParagraph" font-family="Liberation Sans, sans-serif" font-size="353px" font-weight="400"><tspan class="TextPosition" x="9239" y="14193"><tspan fill="rgb(0,0,0)" stroke="none">500</tspan></tspan></tspan></text>
 <text class="TextShape"><tspan class="TextParagraph" font-family="Liberation Sans, sans-serif" font-size="353px" font-weight="400"><tspan class="TextPosition" x="10569" y="14193"><tspan fill="rgb(0,0,0)" stroke="none">600</tspan></tspan></tspan></text>
 <text class="TextShape"><tspan class="TextParagraph" font-family="Liberation Sans, sans-serif" font-size="353px" font-weight="400"><tspan class="TextPosition" x="11899" y="14193"><tspan fill="rgb(0,0,0)" stroke="none">700</tspan></tspan></tspan></text>
 <text class="TextShape"><tspan class="TextParagraph" font-family="Liberation Sans, sans-serif" font-size="353px" font-weight="400"><tspan class="TextPosition" x="13229" y="14193"><tspan fill="rgb(0,0,0)" stroke="none">800</tspan></tspan></tspan></text>
 <text class="TextShape"><tspan class="TextParagraph" font-family="Liberation Sans, sans-serif" font-size="353px" font-weight="400"><tspan class="TextPosition" x="14559" y="14193"><tspan fill="rgb(0,0,0)" stroke="none">900</tspan></tspan></tspan></text>
 <text class="TextShape"><tspan class="TextParagraph" font-family="Liberation Sans, sans-serif" font-size="353px" font-weight="400"><tspan class="TextPosition" x="15796" y="14193"><tspan fill="rgb(0,0,0)" stroke="none">1000</tspan></tspan></tspan></text>
 <text class="TextShape"><tspan class="TextParagraph" font-family="Liberation Sans, sans-serif" font-size="353px" font-weight="400"><tspan class="TextPosition" x="17126" y="14193"><tspan fill="rgb(0,0,0)" stroke="none">1100</tspan></tspan></tspan></text>
 <text class="TextShape"><tspan class="TextParagraph" font-family="Liberation Sans, sans-serif" font-size="353px" font-weight="400"><tspan class="TextPosition" x="18457" y="14193"><tspan fill="rgb(0,0,0)" stroke="none">1200</tspan></tspan></tspan></text>
 <text class="TextShape"><tspan class="TextParagraph" font-family="Liberation Sans, sans-serif" font-size="353px" font-weight="400"><tspan class="TextPosition" x="2432" y="13746"><tspan fill="rgb(0,0,0)" stroke="none">0</tspan></tspan></tspan></text>
 <text class="TextShape"><tspan class="TextParagraph" font-family="Liberation Sans, sans-serif" font-size="353px" font-weight="400"><tspan class="TextPosition" x="1691" y="11930"><tspan fill="rgb(0,0,0)" stroke="none">50000</tspan></tspan></tspan></text>
 <text class="TextShape"><tspan class="TextParagraph" font-family="Liberation Sans, sans-serif" font-size="353px" font-weight="400"><tspan class="TextPosition" x="1506" y="10114"><tspan fill="rgb(0,0,0)" stroke="none">100000</tspan></tspan></tspan></text>
 <text class="TextShape"><tspan class="TextParagraph" font-family="Liberation Sans, sans-serif" font-size="353px" font-weight="400"><tspan class="TextPosition" x="1506" y="8298"><tspan fill="rgb(0,0,0)" stroke="none">150000</tspan></tspan></tspan></text>
 <text class="TextShape"><tspan class="TextParagraph" font-family="Liberation Sans, sans-serif" font-size="353px" font-weight="400"><tspan class="TextPosition" x="1506" y="6482"><tspan fill="rgb(0,0,0)" stroke="none">200000</tspan></tspan></tspan></text>
 <text class="TextShape"><tspan class="TextParagraph" font-family="Liberation Sans, sans-serif" font-size="353px" font-weight="400"><tspan class="TextPosition" x="1506" y="4666"><tspan fill="rgb(0,0,0)" stroke="none">250000</tspan></tspan></tspan></text>
 <text class="TextShape"><tspan class="TextParagraph" font-family="Liberation Sans, sans-serif" font-size="353px" font-weight="400"><tspan class="TextPosition" x="1506" y="2850"><tspan fill="rgb(0,0,0)" stroke="none">300000</tspan></tspan></tspan></text>
 <text class="TextShape"><tspan class="TextParagraph" font-family="Liberation Sans, sans-serif" font-size="459px" font-weight="400"><tspan class="TextPosition" x="8600" y="982"><tspan fill="rgb(0,0,0)" stroke="none">960 Pro random insert rate</tspan></tspan></tspan></text>
 <text class="TextShape"><tspan class="TextParagraph" font-family="Liberation Sans, sans-serif" font-size="388px" font-weight="400"><tspan class="TextPosition" x="8666" y="2023"><tspan fill="rgb(0,0,0)" stroke="none">key: 8 bytes, value: 248 bytes</tspan></tspan></tspan></text>
 <path fill="none" stroke="rgb(0,69,134)" stroke-width="80" stroke-linejoin="round" d="M 19762,7533 L 20562,7533"/>
 <path fill="none" stroke="rgb(255,66,14)" stroke-width="80" stroke-linejoin="round" d="M 19762,8030 L 20562,8030"/>
 <text class="TextShape"><tspan class="TextParagraph" font-family="Liberation Sans, sans-serif" font-size="353px" font-weight="400"><tspan class="TextPosition" x="20662" y="7653"><tspan fill="rgb(0,0,0)" stroke="none">RocksDB</tspan></tspan></tspan></text>
 <text class="TextShape"><tspan class="TextParagraph" font-family="Liberation Sans, sans-serif" font-size="353px" font-weight="400"><tspan class="TextPosition" x="20662" y="8150"><tspan fill="rgb(0,0,0)" stroke="none">Tupl</tspan></tspan></tspan></text>
 <text class="TextShape"><tspan class="TextParagraph" font-family="Liberation Sans, sans-serif" font-size="318px" font-weight="400"><tspan class="TextPosition" x="7944" y="14971"><tspan fill="rgb(0,0,0)" stroke="none">Total number of records (millions)</tspan></tspan></tspan></text>
 <text class="TextShape" transform="translate(884,9724) rotate(-90) translate(-884,-9724)"><tspan class="TextParagraph" font-family="Liberation Sans, sans-serif" font-size="318px" font-weight="400"><tspan class="TextPosition" x="884" y="9724"><tspan fill="rgb(0,0,0)" stroke="none">Inserts per second</tspan></tspan></tspan></text>
</svg>