<?xml version="1.0" encoding="UTF-8"?>
<!DOCTYPE svg PUBLIC "-//W3C//DTD SVG 1.1//EN" "http://www.w3.org/Graphics/SVG/1.1/DTD/svg11.dtd">
<svg width="225mm" height="156mm" viewBox="0 0 22500 15600" version="1.1" xmlns="http://www.w3.org/2000/svg" stroke-width="28.222" stroke-linejoin="round" xml:space="preserve">
 <path fill="rgb(255,255,255)" stroke="none" d="M 11287,15565 L 47,15565 47,0 22527,0 22527,15565 11287,15565 Z"/>
 <path fill="none" stroke="rgb(179,179,179)" stroke-linejoin="round" d="M 10888,13626 L 2869,13626 2869,2731 18907,2731 18907,13626 10888,13626 Z"/>
 <path fill="none" stroke="rgb(179,179,179)" stroke-linejoin="round" d="M 2869,2730 L 2869,13625"/>
 <path fill="none" stroke="rgb(179,179,179)" stroke-linejoin="round" d="M 4205,2730 L 4205,13625"/>
 <path fill="none" stroke="rgb(179,179,179)" stroke-linejoin="round" d="M 5542,2730 L 5542,13625"/>
 <path fill="none" stroke="rgb(179,179,179)" stroke-linejoin="round" d="M 6878,2730 L 6878,13625"/>
 <path fill="none" stroke="rgb(179,179,179)" stroke-linejoin="round" d="M 8215,2730 L 8215,13625"/>
 <path fill="none" stroke="rgb(179,179,179)" stroke-linejoin="round" d="M 9551,2730 L 9551,13625"/>
 <path fill="none" stroke="rgb(179,179,179)" stroke-linejoin="round" d="M 10888,2730 L 10888,13625"/>
 <path fill="none" stroke="rgb(179,179,179)" stroke-linejoin="round" d="M 12224,2730 L 12224,13625"/>
 <path fill="none" stroke="rgb(179,179,179)" stroke-linejoin="round" d="M 13560,2730 L 13560,13625"/>
 <path fill="none" stroke="rgb(179,179,179)" stroke-linejoin="round" d="M 14897,2730 L 14897,13625"/>
 <path fill="none" stroke="rgb(179,179,179)" stroke-linejoin="round" d="M 16233,2730 L 16233,13625"/>
 <path fill="none" stroke="rgb(179,179,179)" stroke-linejoin="round" d="M 17570,2730 L 17570,13625"/>
 <path fill="none" stroke="rgb(179,179,179)" stroke-linejoin="round" d="M 18907,2730 L 18907,13625"/>
 <path fill="none" stroke="rgb(179,179,179)" stroke-linejoin="round" d="M 18907,13625 L 2869,13625"/>
 <path fill="none" stroke="rgb(179,179,179)" stroke-linejoin="round" d="M 18907,12535 L 2869,12535"/>
 <path fill="none" stroke="rgb(179,179,179)" stroke-linejoin="round" d="M 18907,11445 L 2869,11445"/>
 <path fill="none" stroke="rgb(179,179,179)" stroke-linejoin="round" d="M 18907,10356 L 2869,10356"/>
 <path fill="none" stroke="rgb(179,179,179)" stroke-linejoin="round" d="M 18907,9266 L 2869,9266"/>
 <path fill="none" stroke="rgb(179,179,179)" stroke-linejoin="round" d="M 18907,8177 L 2869,8177"/>
 <path fill="none" stroke="rgb(179,179,179)" stroke-linejoin="round" d="M 18907,7088 L 2869,7088"/>
 <path fill="none" stroke="rgb(179,179,179)" stroke-linejoin="round" d="M 18907,5998 L 2869,5998"/>
 <path fill="none" stroke="rgb(179,179,179)" stroke-linejoin="round" d="M 18907,4909 L 2869,4909"/>
 <path fill="none" stroke="rgb(179,179,179)" stroke-linejoin="round" d="M 18907,3819 L 2869,3819"/>
 <path fill="none" stroke="rgb(179,179,179)" stroke-linejoin="round" d="M 18907,2730 L 2869,2730"/>
 <path fill="none" stroke="rgb(179,179,179)" stroke-linejoin="round" d="M 2869,13775 L 2869,13625"/>
 <path fill="none" stroke="rgb(179,179,179)" stroke-linejoin="round" d="M 2869,13775 L 2869,13625"/>
 <path fill="none" stroke="rgb(179,179,179)" stroke-linejoin="round" d="M 4205,13775 L 4205,13625"/>
 <path fill="none" stroke="rgb(179,179,179)" stroke-linejoin="round" d="M 4205,13775 L 4205,13625"/>
 <path fill="none" stroke="rgb(179,179,179)" stroke-linejoin="round" d="M 5542,13775 L 5542,13625"/>
 <path fill="none" stroke="rgb(179,179,179)" stroke-linejoin="round" d="M 5542,13775 L 5542,13625"/>
 <path fill="none" stroke="rgb(179,179,179)" stroke-linejoin="round" d="M 6878,13775 L 6878,13625"/>
 <path fill="none" stroke="rgb(179,179,179)" stroke-linejoin="round" d="M 6878,13775 L 6878,13625"/>
 <path fill="none" stroke="rgb(179,179,179)" stroke-linejoin="round" d="M 8215,13775 L 8215,13625"/>
 <path fill="none" stroke="rgb(179,179,179)" stroke-linejoin="round" d="M 8215,13775 L 8215,13625"/>
 <path fill="none" stroke="rgb(179,179,179)" stroke-linejoin="round" d="M 9551,13775 L 9551,13625"/>
 <path fill="none" stroke="rgb(179,179,179)" stroke-linejoin="round" d="M 9551,13775 L 9551,13625"/>
 <path fill="none" stroke="rgb(179,179,179)" stroke-linejoin="round" d="M 10888,13775 L 10888,13625"/>
 <path fill="none" stroke="rgb(179,179,179)" stroke-linejoin="round" d="M 10888,13775 L 10888,13625"/>
 <path fill="none" stroke="rgb(179,179,179)" stroke-linejoin="round" d="M 12224,13775 L 12224,13625"/>
 <path fill="none" stroke="rgb(179,179,179)" stroke-linejoin="round" d="M 12224,13775 L 12224,13625"/>
 <path fill="none" stroke="rgb(179,179,179)" stroke-linejoin="round" d="M 13560,13775 L 13560,13625"/>
 <path fill="none" stroke="rgb(179,179,179)" stroke-linejoin="round" d="M 13560,13775 L 13560,13625"/>
 <path fill="none" stroke="rgb(179,179,179)" stroke-linejoin="round" d="M 14897,13775 L 14897,13625"/>
 <path fill="none" stroke="rgb(179,179,179)" stroke-linejoin="round" d="M 14897,13775 L 14897,13625"/>
 <path fill="none" stroke="rgb(179,179,179)" stroke-linejoin="round" d="M 16233,13775 L 16233,13625"/>
 <path fill="none" stroke="rgb(179,179,179)" stroke-linejoin="round" d="M 16233,13775 L 16233,13625"/>
 <path fill="none" stroke="rgb(179,179,179)" stroke-linejoin="round" d="M 17570,13775 L 17570,13625"/>
 <path fill="none" stroke="rgb(179,179,179)" stroke-linejoin="round" d="M 17570,13775 L 17570,13625"/>
 <path fill="none" stroke="rgb(179,179,179)" stroke-linejoin="round" d="M 18907,13775 L 18907,13625"/>
 <path fill="none" stroke="rgb(179,179,179)" stroke-linejoin="round" d="M 18907,13775 L 18907,13625"/>
 <path fill="none" stroke="rgb(179,179,179)" stroke-linejoin="round" d="M 2869,13625 L 18907,13625"/>
 <path fill="none" stroke="rgb(179,179,179)" stroke-linejoin="round" d="M 2719,13625 L 2869,13625"/>
 <path fill="none" stroke="rgb(179,179,179)" stroke-linejoin="round" d="M 2719,13625 L 2869,13625"/>
 <path fill="none" stroke="rgb(179,179,179)" stroke-linejoin="round" d="M 2719,12535 L 2869,12535"/>
 <path fill="none" stroke="rgb(179,179,179)" stroke-linejoin="round" d="M 2719,12535 L 2869,12535"/>
 <path fill="none" stroke="rgb(179,179,179)" stroke-linejoin="round" d="M 2719,11445 L 2869,11445"/>
 <path fill="none" stroke="rgb(179,179,179)" stroke-linejoin="round" d="M 2719,11445 L 2869,11445"/>
 <path fill="none" stroke="rgb(179,179,179)" stroke-linejoin="round" d="M 2719,10356 L 2869,10356"/>
 <path fill="none" stroke="rgb(179,179,179)" stroke-linejoin="round" d="M 2719,10356 L 2869,10356"/>
 <path fill="none" stroke="rgb(179,179,179)" stroke-linejoin="round" d="M 2719,9266 L 2869,9266"/>
 <path fill="none" stroke="rgb(179,179,179)" stroke-linejoin="round" d="M 2719,9266 L 2869,9266"/>
 <path fill="none" stroke="rgb(179,179,179)" stroke-linejoin="round" d="M 2719,8177 L 2869,8177"/>
 <path fill="none" stroke="rgb(179,179,179)" stroke-linejoin="round" d="M 2719,8177 L 2869,8177"/>
 <path fill="none" stroke="rgb(179,179,179)" stroke-linejoin="round" d="M 2719,7088 L 2869,7088"/>
 <path fill="none" stroke="rgb(179,179,179)" stroke-linejoin="round" d="M 2719,7088 L 2869,7088"/>
 <path fill="none" stroke="rgb(179,179,179)" stroke-linejoin="round" d="M 2719,5998 L 2869,5998"/>
 <path fill="none" stroke="rgb(179,179,179)" stroke-linejoin="round" d="M 2719,5998 L 2869,5998"/>
 <path fill="none" stroke="rgb(179,179,179)" stroke-linejoin="round" d="M 2719,4909 L 2869,4909"/>
 <path fill="none" stroke="rgb(179,179,179)" stroke-linejoin="round" d="M 2719,4909 L 2869,4909"/>
 <path fill="none" stroke="rgb(179,179,179)" stroke-linejoin="round" d="M 2719,3819 L 2869,3819"/>
 <path fill="none" stroke="rgb(179,179,179)" stroke-linejoin="round" d="M 2719,3819 L 2869,3819"/>
 <path fill="none" stroke="rgb(179,179,179)" stroke-linejoin="round" d="M 2719,2730 L 2869,2730"/>
 <path fill="none" stroke="rgb(179,179,179)" stroke-linejoin="round" d="M 2719,2730 L 2869,2730"/>
 <path fill="none" stroke="rgb(179,179,179)" stroke-linejoin="round" d="M 2869,13625 L 2869,2730"/>
 <path fill="none" stroke="rgb(255,66,14)" stroke-width="80" stroke-linejoin="round" d="M 3269,4002 L 3336,4229 3403,6101 3470,8247 3537,9798 3604,10143 3670,10581 3737,10881 3804,11096 3871,11206 3938,11261 4005,11446 4071,11489 4138,11587 4205,11627 4272,11663 4339,11677 4406,11762 4472,11779 4539,11793 4606,11846 4673,11841 4740,11907 4807,11892 4873,11941 4940,11954 5007,12010 5074,11969 5141,11977 5208,12031 5274,12001 5341,12048 5408,12055 5475,12054 5542,12071 5608,12069 5675,12087 5742,12089 5809,12125 5876,12090 5943,12100 6009,12129 6076,12114 6143,12143 6210,12162 6277,12161 6344,12127 6410,12159 6477,12165 6544,12172 6611,12176 6678,12177 6745,12184 6811,12213 6878,12195 6945,12194 7012,12222 7079,12203 7146,12237 7212,12203 7279,12238 7346,12216 7413,12251 7480,12247 7547,12251 7613,12256 7680,12264 7747,12269 7814,12264 7881,12271 7948,12277 8014,12315 8081,12294 8148,12319 8215,12326 8282,12304 8348,12327 8415,12339 8482,12339 8549,12344 8616,12350 8683,12351 8749,12386 8816,12357 8883,12358 8950,12397 9017,12396 9084,12378 9150,12397 9217,12405 9284,12416 9351,12416 9418,12417 9485,12418 9551,12418 9618,12433 9685,12450 9752,12441 9819,12458 9886,12452 9952,12451 10019,12467 10086,12473 10153,12466 10220,12484 10287,12482 10353,12483 10420,12484 10487,12498 10554,12517 10621,12502 10688,12514 10754,12529 10821,12507 10888,12518 10955,12538 11022,12538 11088,12535 11155,12555 11222,12552 11288,12543 11355,12568 11422,12553 11488,12575 11555,12556 11622,12581 11689,12581 11756,12591 11823,12592 11889,12594 11956,12609 12023,12595 12090,12596 12157,12625 12224,12603 12290,12620 12357,12630 12424,12631 12491,12632 12558,12641 12625,12635 12691,12643 12758,12659 12825,12644 12892,12647 12959,12665 13026,12668 13092,12655 13159,12676 13226,12678 13293,12699 13360,12679 13427,12683 13493,12693 13560,12707 13627,12708 13694,12712 13761,12710 13827,12712 13894,12727 13961,12719 14028,12723 14095,12744 14162,12727 14228,12746 14295,12750 14362,12739 14429,12756 14496,12760 14563,12758 14629,12760 14696,12779 14763,12765 14830,12780 14897,12786 14964,12788 15030,12787 15097,12810 15164,12794 15231,12809 15298,12797 15365,12816 15431,12815 15498,12819 15565,12832 15632,12831 15699,12842 15766,12825 15832,12847 15899,12848 15966,12864 16033,12849 16100,12860 16167,12862 16233,12854 16300,12857 16367,12858 16434,12867 16501,12869 16567,12880 16634,12895 16701,12880 16768,12882 16835,12893 16902,12910 16968,12893 17035,12927 17102,12899 17169,12927 17236,12928 17303,12915 17369,12940 17436,12944 17503,12947 17570,12951 17637,12956 17704,12958 17770,12962 17837,12966 17904,12967 17971,12969"/>
 <path fill="none" stroke="rgb(0,69,134)" stroke-width="80" stroke-linejoin="round" d="M 3269,5348 L 3336,6302 3403,7024 3470,6418 3537,6605 3604,7865 3670,5669 3737,7544 3804,8016 3871,7468 3938,7396 4005,7085 4071,6860 4138,8338 4205,6820 4272,10281 4339,9363 4406,9102 4472,9175 4539,8479 4606,8539 4673,7472 4740,8239 4807,8769 4873,7683 4940,8068 5007,7871 5074,8345 5141,8714 5208,8853 5274,8513 5341,7719 5408,8606 5475,8764 5542,8773 5608,8873 5675,8713 5742,8888 5809,9303 5876,9113 5943,8694 6009,8964 6076,9430 6143,9368 6210,9413 6277,9227 6344,9246 6410,9633 6477,9584 6544,9391 6611,9443 6678,9285 6745,9693 6811,9809 6878,9758 6945,9626 7012,9352 7079,9600 7146,9828 7212,9512 7279,10282 7346,9765 7413,9923 7480,9759 7547,10288 7613,9749 7680,10034 7747,10095 7814,9633 7881,10317 7948,9879 8014,10207 8081,10262 8148,9922 8215,10403 8282,9947 8348,10299 8415,9970 8482,10232 8549,10034 8616,10373 8683,10264 8749,10472 8816,10428 8883,10252 8950,10291 9017,10435 9084,10355 9150,10379 9217,10276 9284,10302 9351,10404 9418,10398 9485,10411 9551,10410 9618,10332 9685,10351 9752,10351 9819,10369 9886,10224 9952,10338 10019,10169 10086,10324 10153,10133 10220,10766 10287,10757 10353,9667 10420,11336 10487,10477 10554,10736 10621,10560 10688,10946 10754,10879 10821,10645 10888,11186 10955,10815 11022,10834 11088,11509 11155,10303 11222,11528 11288,11119 11355,10816 11422,11317 11488,11271 11555,11153 11622,11759 11689,10933 11756,11298 11823,11363 11889,11461 11956,11509 12023,11373 12090,11969 12157,11355 12224,11312 12290,11829 12357,11376 12424,12056 12491,11277 12558,11801 12625,11719 12691,11558 12758,11937 12825,11393 12892,12003 12959,11493 13026,12037 13092,11439 13159,12026 13226,11458 13293,12177 13360,11568 13427,12124 13493,11430 13560,12193 13627,11662 13694,12178 13761,11949 13827,11994 13894,11925 13961,12091 14028,12254 14095,11857 14162,12163 14228,11964 14295,12281 14362,11946 14429,12290 14496,12302 14563,11940 14629,12317 14696,12436 14763,11846 14830,12419 14897,12375 14964,12112 15030,12498 15097,12457 15164,12131 15231,12519 15298,12447 15365,12252 15431,12557 15498,12606 15565,12202 15632,12609 15699,12654 15766,12316 15832,12607 15899,12672 15966,12661 16033,12506 16100,12631 16167,12759 16233,12757 16300,12695 16367,12809 16434,12511 16501,12706 16567,12807 16634,12821 16701,12719 16768,12940 16835,12756 16902,12817 16968,12660 17035,12935 17102,12966 17169,12659 17236,12913 17303,12921 17369,12940 17436,12670 17503,12972 17570,13013 17637,12745 17704,12969 17770,13008 17837,12958 17904,12752 17971,12942"/>
 <text class="TextShape"><tspan class="TextParagraph" font-family="Liberation Sans, sans-serif" font-size="353px" font-weight="400"><tspan class="TextPosition" x="2776" y="14193"><tspan fill="rgb(0,0,0)" stroke="none">0</tspan></tspan></tspan></text>
 <text class="TextShape"><tspan class="TextParagraph" font-family="Liberation Sans, sans-serif" font-size="353px" font-weight="400"><tspan class="TextPosition" x="3927" y="14193"><tspan fill="rgb(0,0,0)" stroke="none">200</tspan></tspan></tspan></text>
 <text class="TextShape"><tspan class="TextParagraph" font-family="Liberation Sans, sans-serif" font-size="353px" font-weight="400"><tspan class="TextPosition" x="5264" y="14193"><tspan fill="rgb(0,0,0)" stroke="none">400</tspan></tspan></tspan></text>
 <text class="TextShape"><tspan class="TextParagraph" font-family="Liberation Sans, sans-serif" font-size="353px" font-weight="400"><tspan class="TextPosition" x="6600" y="14193"><tspan fill="rgb(0,0,0)" stroke="none">600</tspan></tspan></tspan></text>
 <text class="TextShape"><tspan class="TextParagraph" font-family="Liberation Sans, sans-serif" font-size="353px" font-weight="400"><tspan class="TextPosition" x="7937" y="14193"><tspan fill="rgb(0,0,0)" stroke="none">800</tspan></tspan></tspan></text>
 <text class="TextShape"><tspan class="TextParagraph" font-family="Liberation Sans, sans-serif" font-size="353px" font-weight="400"><tspan class="TextPosition" x="9180" y="14193"><tspan fill="rgb(0,0,0)" stroke="none">1000</tspan></tspan></tspan></text>
 <text class="TextShape"><tspan class="TextParagraph" font-family="Liberation Sans, sans-serif" font-size="353px" font-weight="400"><tspan class="TextPosition" x="10517" y="14193"><tspan fill="rgb(0,0,0)" stroke="none">1200</tspan></tspan></tspan></text>
 <text class="TextShape"><tspan class="TextParagraph" font-family="Liberation Sans, sans-serif" font-size="353px" font-weight="400"><tspan class="TextPosition" x="11854" y="14193"><tspan fill="rgb(0,0,0)" stroke="none">1400</tspan></tspan></tspan></text>
 <text class="TextShape"><tspan class="TextParagraph" font-family="Liberation Sans, sans-serif" font-size="353px" font-weight="400"><tspan class="TextPosition" x="13190" y="14193"><tspan fill="rgb(0,0,0)" stroke="none">1600</tspan></tspan></tspan></text>
 <text class="TextShape"><tspan class="TextParagraph" font-family="Liberation Sans, sans-serif" font-size="353px" font-weight="400"><tspan class="TextPosition" x="14527" y="14193"><tspan fill="rgb(0,0,0)" stroke="none">1800</tspan></tspan></tspan></text>
 <text class="TextShape"><tspan class="TextParagraph" font-family="Liberation Sans, sans-serif" font-size="353px" font-weight="400"><tspan class="TextPosition" x="15863" y="14193"><tspan fill="rgb(0,0,0)" stroke="none">2000</tspan></tspan></tspan></text>
 <text class="TextShape"><tspan class="TextParagraph" font-family="Liberation Sans, sans-serif" font-size="353px" font-weight="400"><tspan class="TextPosition" x="17200" y="14193"><tspan fill="rgb(0,0,0)" stroke="none">2200</tspan></tspan></tspan></text>
 <text class="TextShape"><tspan class="TextParagraph" font-family="Liberation Sans, sans-serif" font-size="353px" font-weight="400"><tspan class="TextPosition" x="18537" y="14193"><tspan fill="rgb(0,0,0)" stroke="none">2400</tspan></tspan></tspan></text>
 <text class="TextShape"><tspan class="TextParagraph" font-family="Liberation Sans, sans-serif" font-size="353px" font-weight="400"><tspan class="TextPosition" x="2434" y="13746"><tspan fill="rgb(0,0,0)" stroke="none">0</tspan></tspan></tspan></text>
 <text class="TextShape"><tspan class="TextParagraph" font-family="Liberation Sans, sans-serif" font-size="353px" font-weight="400"><tspan class="TextPosition" x="1693" y="12656"><tspan fill="rgb(0,0,0)" stroke="none">50000</tspan></tspan></tspan></text>
 <text class="TextShape"><tspan class="TextParagraph" font-family="Liberation Sans, sans-serif" font-size="353px" font-weight="400"><tspan class="TextPosition" x="1508" y="11566"><tspan fill="rgb(0,0,0)" stroke="none">100000</tspan></tspan></tspan></text>
 <text class="TextShape"><tspan class="TextParagraph" font-family="Liberation Sans, sans-serif" font-size="353px" font-weight="400"><tspan class="TextPosition" x="1508" y="10477"><tspan fill="rgb(0,0,0)" stroke="none">150000</tspan></tspan></tspan></text>
 <text class="TextShape"><tspan class="TextParagraph" font-family="Liberation Sans, sans-serif" font-size="353px" font-weight="400"><tspan class="TextPosition" x="1508" y="9387"><tspan fill="rgb(0,0,0)" stroke="none">200000</tspan></tspan></tspan></text>
 <text class="TextShape"><tspan class="TextParagraph" font-family="Liberation Sans, sans-serif" font-size="353px" font-weight="400"><tspan class="TextPosition" x="1508" y="8298"><tspan fill="rgb(0,0,0)" stroke="none">250000</tspan></tspan></tspan></text>
 <text class="TextShape"><tspan class="TextParagraph" font-family="Liberation Sans, sans-serif" font-size="353px" font-weight="400"><tspan class="TextPosition" x="1508" y="7208"><tspan fill="rgb(0,0,0)" stroke="none">300000</tspan></tspan></tspan></text>
 <text class="TextShape"><tspan class="TextParagraph" font-family="Liberation Sans, sans-serif" font-size="353px" font-weight="400"><tspan class="TextPosition" x="1508" y="6118"><tspan fill="rgb(0,0,0)" stroke="none">350000</tspan></tspan></tspan></text>
 <text class="TextShape"><tspan class="TextParagraph" font-family="Liberation Sans, sans-serif" font-size="353px" font-weight="400"><tspan class="TextPosition" x="1508" y="5029"><tspan fill="rgb(0,0,0)" stroke="none">400000</tspan></tspan></tspan></text>
 <text class="TextShape"><tspan class="TextParagraph" font-family="Liberation Sans, sans-serif" font-size="353px" font-weight="400"><tspan class="TextPosition" x="1508" y="3939"><tspan fill="rgb(0,0,0)" stroke="none">450000</tspan></tspan></tspan></text>
 <text class="TextShape"><tspan class="TextParagraph" font-family="Liberation Sans, sans-serif" font-size="353px" font-weight="400"><tspan class="TextPosition" x="1508" y="2850"><tspan fill="rgb(0,0,0)" stroke="none">500000</tspan></tspan></tspan></text>
 <text class="TextShape"><tspan class="TextParagraph" font-family="Liberation Sans, sans-serif" font-size="459px" font-weight="400"><tspan class="TextPosition" x="8641" y="982"><tspan fill="rgb(0,0,0)" stroke="none">960 Pro random insert rate</tspan></tspan></tspan></text>
 <text class="TextShape"><tspan class="TextParagraph" font-family="Liberation Sans, sans-serif" font-size="388px" font-weight="400"><tspan class="TextPosition" x="8760" y="2023"><tspan fill="rgb(0,0,0)" stroke="none">key: 8 bytes, value 120 bytes</tspan></tspan></tspan></text>
 <path fill="none" stroke="rgb(0,69,134)" stroke-width="80" stroke-linejoin="round" d="M 19844,7533 L 20644,7533"/>
 <path fill="none" stroke="rgb(255,66,14)" stroke-width="80" stroke-linejoin="round" d="M 19844,8030 L 20644,8030"/>
 <text class="TextShape"><tspan class="TextParagraph" font-family="Liberation Sans, sans-serif" font-size="353px" font-weight="400"><tspan class="TextPosition" x="20744" y="7653"><tspan fill="rgb(0,0,0)" stroke="none">RocksDB</tspan></tspan></tspan></text>
 <text class="TextShape"><tspan class="TextParagraph" font-family="Liberation Sans, sans-serif" font-size="353px" font-weight="400"><tspan class="TextPosition" x="20744" y="8150"><tspan fill="rgb(0,0,0)" stroke="none">Tupl</tspan></tspan></tspan></text>
 <text class="TextShape"><tspan class="TextParagraph" font-family="Liberation Sans, sans-serif" font-size="318px" font-weight="400"><tspan class="TextPosition" x="7985" y="14971"><tspan fill="rgb(0,0,0)" stroke="none">Total number of records (millions)</tspan></tspan></tspan></text>
 <text class="TextShape" transform="translate(884,9724) rotate(-90) translate(-884,-9724)"><tspan class="TextParagraph" font-family="Liberation Sans, sans-serif" font-size="318px" font-weight="400"><tspan class="TextPosition" x="884" y="9724"><tspan fill="rgb(0,0,0)" stroke="none">Inserts per second</tspan></tspan></tspan></text>
</svg>