<?xml version="1.0" encoding="UTF-8"?>
<!DOCTYPE svg PUBLIC "-//W3C//DTD SVG 1.1//EN" "http://www.w3.org/Graphics/SVG/1.1/DTD/svg11.dtd">
<svg width="223mm" height="156mm" viewBox="0 0 22300 15600" version="1.1" xmlns="http://www.w3.org/2000/svg" stroke-width="28.222" stroke-linejoin="round" xml:space="preserve">
 <path fill="rgb(255,255,255)" stroke="none" d="M 11218,15592 L 46,15592 46,0 22389,0 22389,15592 11218,15592 Z"/>
 <path fill="none" stroke="rgb(179,179,179)" stroke-linejoin="round" d="M 10680,13653 L 2680,13653 2680,2731 18679,2731 18679,13653 10680,13653 Z"/>
 <path fill="none" stroke="rgb(179,179,179)" stroke-linejoin="round" d="M 2680,2730 L 2680,13652"/>
 <path fill="none" stroke="rgb(179,179,179)" stroke-linejoin="round" d="M 4134,2730 L 4134,13652"/>
 <path fill="none" stroke="rgb(179,179,179)" stroke-linejoin="round" d="M 5589,2730 L 5589,13652"/>
 <path fill="none" stroke="rgb(179,179,179)" stroke-linejoin="round" d="M 7043,2730 L 7043,13652"/>
 <path fill="none" stroke="rgb(179,179,179)" stroke-linejoin="round" d="M 8498,2730 L 8498,13652"/>
 <path fill="none" stroke="rgb(179,179,179)" stroke-linejoin="round" d="M 9952,2730 L 9952,13652"/>
 <path fill="none" stroke="rgb(179,179,179)" stroke-linejoin="round" d="M 11406,2730 L 11406,13652"/>
 <path fill="none" stroke="rgb(179,179,179)" stroke-linejoin="round" d="M 12860,2730 L 12860,13652"/>
 <path fill="none" stroke="rgb(179,179,179)" stroke-linejoin="round" d="M 14315,2730 L 14315,13652"/>
 <path fill="none" stroke="rgb(179,179,179)" stroke-linejoin="round" d="M 15769,2730 L 15769,13652"/>
 <path fill="none" stroke="rgb(179,179,179)" stroke-linejoin="round" d="M 17224,2730 L 17224,13652"/>
 <path fill="none" stroke="rgb(179,179,179)" stroke-linejoin="round" d="M 18679,2730 L 18679,13652"/>
 <path fill="none" stroke="rgb(179,179,179)" stroke-linejoin="round" d="M 18679,13652 L 2680,13652"/>
 <path fill="none" stroke="rgb(179,179,179)" stroke-linejoin="round" d="M 18679,12559 L 2680,12559"/>
 <path fill="none" stroke="rgb(179,179,179)" stroke-linejoin="round" d="M 18679,11467 L 2680,11467"/>
 <path fill="none" stroke="rgb(179,179,179)" stroke-linejoin="round" d="M 18679,10375 L 2680,10375"/>
 <path fill="none" stroke="rgb(179,179,179)" stroke-linejoin="round" d="M 18679,9282 L 2680,9282"/>
 <path fill="none" stroke="rgb(179,179,179)" stroke-linejoin="round" d="M 18679,8190 L 2680,8190"/>
 <path fill="none" stroke="rgb(179,179,179)" stroke-linejoin="round" d="M 18679,7099 L 2680,7099"/>
 <path fill="none" stroke="rgb(179,179,179)" stroke-linejoin="round" d="M 18679,6006 L 2680,6006"/>
 <path fill="none" stroke="rgb(179,179,179)" stroke-linejoin="round" d="M 18679,4914 L 2680,4914"/>
 <path fill="none" stroke="rgb(179,179,179)" stroke-linejoin="round" d="M 18679,3822 L 2680,3822"/>
 <path fill="none" stroke="rgb(179,179,179)" stroke-linejoin="round" d="M 18679,2730 L 2680,2730"/>
 <path fill="none" stroke="rgb(179,179,179)" stroke-linejoin="round" d="M 2680,13802 L 2680,13652"/>
 <path fill="none" stroke="rgb(179,179,179)" stroke-linejoin="round" d="M 2680,13802 L 2680,13652"/>
 <path fill="none" stroke="rgb(179,179,179)" stroke-linejoin="round" d="M 4134,13802 L 4134,13652"/>
 <path fill="none" stroke="rgb(179,179,179)" stroke-linejoin="round" d="M 4134,13802 L 4134,13652"/>
 <path fill="none" stroke="rgb(179,179,179)" stroke-linejoin="round" d="M 5589,13802 L 5589,13652"/>
 <path fill="none" stroke="rgb(179,179,179)" stroke-linejoin="round" d="M 5589,13802 L 5589,13652"/>
 <path fill="none" stroke="rgb(179,179,179)" stroke-linejoin="round" d="M 7043,13802 L 7043,13652"/>
 <path fill="none" stroke="rgb(179,179,179)" stroke-linejoin="round" d="M 7043,13802 L 7043,13652"/>
 <path fill="none" stroke="rgb(179,179,179)" stroke-linejoin="round" d="M 8498,13802 L 8498,13652"/>
 <path fill="none" stroke="rgb(179,179,179)" stroke-linejoin="round" d="M 8498,13802 L 8498,13652"/>
 <path fill="none" stroke="rgb(179,179,179)" stroke-linejoin="round" d="M 9952,13802 L 9952,13652"/>
 <path fill="none" stroke="rgb(179,179,179)" stroke-linejoin="round" d="M 9952,13802 L 9952,13652"/>
 <path fill="none" stroke="rgb(179,179,179)" stroke-linejoin="round" d="M 11406,13802 L 11406,13652"/>
 <path fill="none" stroke="rgb(179,179,179)" stroke-linejoin="round" d="M 11406,13802 L 11406,13652"/>
 <path fill="none" stroke="rgb(179,179,179)" stroke-linejoin="round" d="M 12860,13802 L 12860,13652"/>
 <path fill="none" stroke="rgb(179,179,179)" stroke-linejoin="round" d="M 12860,13802 L 12860,13652"/>
 <path fill="none" stroke="rgb(179,179,179)" stroke-linejoin="round" d="M 14315,13802 L 14315,13652"/>
 <path fill="none" stroke="rgb(179,179,179)" stroke-linejoin="round" d="M 14315,13802 L 14315,13652"/>
 <path fill="none" stroke="rgb(179,179,179)" stroke-linejoin="round" d="M 15769,13802 L 15769,13652"/>
 <path fill="none" stroke="rgb(179,179,179)" stroke-linejoin="round" d="M 15769,13802 L 15769,13652"/>
 <path fill="none" stroke="rgb(179,179,179)" stroke-linejoin="round" d="M 17224,13802 L 17224,13652"/>
 <path fill="none" stroke="rgb(179,179,179)" stroke-linejoin="round" d="M 17224,13802 L 17224,13652"/>
 <path fill="none" stroke="rgb(179,179,179)" stroke-linejoin="round" d="M 18679,13802 L 18679,13652"/>
 <path fill="none" stroke="rgb(179,179,179)" stroke-linejoin="round" d="M 18679,13802 L 18679,13652"/>
 <path fill="none" stroke="rgb(179,179,179)" stroke-linejoin="round" d="M 2680,13652 L 18679,13652"/>
 <path fill="none" stroke="rgb(179,179,179)" stroke-linejoin="round" d="M 2530,13652 L 2680,13652"/>
 <path fill="none" stroke="rgb(179,179,179)" stroke-linejoin="round" d="M 2530,13652 L 2680,13652"/>
 <path fill="none" stroke="rgb(179,179,179)" stroke-linejoin="round" d="M 2530,12559 L 2680,12559"/>
 <path fill="none" stroke="rgb(179,179,179)" stroke-linejoin="round" d="M 2530,12559 L 2680,12559"/>
 <path fill="none" stroke="rgb(179,179,179)" stroke-linejoin="round" d="M 2530,11467 L 2680,11467"/>
 <path fill="none" stroke="rgb(179,179,179)" stroke-linejoin="round" d="M 2530,11467 L 2680,11467"/>
 <path fill="none" stroke="rgb(179,179,179)" stroke-linejoin="round" d="M 2530,10375 L 2680,10375"/>
 <path fill="none" stroke="rgb(179,179,179)" stroke-linejoin="round" d="M 2530,10375 L 2680,10375"/>
 <path fill="none" stroke="rgb(179,179,179)" stroke-linejoin="round" d="M 2530,9282 L 2680,9282"/>
 <path fill="none" stroke="rgb(179,179,179)" stroke-linejoin="round" d="M 2530,9282 L 2680,9282"/>
 <path fill="none" stroke="rgb(179,179,179)" stroke-linejoin="round" d="M 2530,8190 L 2680,8190"/>
 <path fill="none" stroke="rgb(179,179,179)" stroke-linejoin="round" d="M 2530,8190 L 2680,8190"/>
 <path fill="none" stroke="rgb(179,179,179)" stroke-linejoin="round" d="M 2530,7099 L 2680,7099"/>
 <path fill="none" stroke="rgb(179,179,179)" stroke-linejoin="round" d="M 2530,7099 L 2680,7099"/>
 <path fill="none" stroke="rgb(179,179,179)" stroke-linejoin="round" d="M 2530,6006 L 2680,6006"/>
 <path fill="none" stroke="rgb(179,179,179)" stroke-linejoin="round" d="M 2530,6006 L 2680,6006"/>
 <path fill="none" stroke="rgb(179,179,179)" stroke-linejoin="round" d="M 2530,4914 L 2680,4914"/>
 <path fill="none" stroke="rgb(179,179,179)" stroke-linejoin="round" d="M 2530,4914 L 2680,4914"/>
 <path fill="none" stroke="rgb(179,179,179)" stroke-linejoin="round" d="M 2530,3822 L 2680,3822"/>
 <path fill="none" stroke="rgb(179,179,179)" stroke-linejoin="round" d="M 2530,3822 L 2680,3822"/>
 <path fill="none" stroke="rgb(179,179,179)" stroke-linejoin="round" d="M 2530,2730 L 2680,2730"/>
 <path fill="none" stroke="rgb(179,179,179)" stroke-linejoin="round" d="M 2530,2730 L 2680,2730"/>
 <path fill="none" stroke="rgb(179,179,179)" stroke-linejoin="round" d="M 2680,13652 L 2680,2730"/>
 <path fill="none" stroke="rgb(255,66,14)" stroke-width="80" stroke-linejoin="round" d="M 3552,7279 L 3698,8166 3843,8761 3989,8719 4134,9115 4280,9450 4425,9342 4570,9604 4716,9724 4861,9815 5007,9857 5152,10067 5298,9973 5443,10136 5589,10155 5734,10016 5880,10194 6025,10226 6170,10223 6316,10278 6461,10306 6607,10437 6752,10335 6898,10348 7043,10492 7189,10366 7334,10508 7480,10514 7625,10436 7770,10542 7916,10550 8061,10469 8207,10576 8352,10605 8498,10634 8643,10631 8789,10715 8934,10726 9080,10716 9225,10825 9370,10723 9516,10849 9661,10884 9807,10921 9952,10916 10098,10933 10243,10956 10389,10944 10534,11007 10680,11099 10825,11075 10970,11042 11116,11149 11260,11141 11406,11184 11551,11175 11697,11189 11842,11205 11988,11303 12133,11229 12279,11335 12424,11282 12569,11335 12715,11363 12860,11381 13006,11396 13151,11490 13297,11416 13442,11480 13588,11455 13733,11528 13879,11551 14024,11552 14169,11559 14315,11584 14460,11653 14606,11610 14751,11688 14897,11687 15042,11719 15188,11780 15333,11744 15479,11793 15624,11766 15769,11842 15915,11891 16060,11855 16206,11863 16351,11905 16497,11951 16642,11951 16788,11995 16933,11963 17079,11981 17224,11999 17369,12013 17515,12013 17660,12085"/>
 <path fill="none" stroke="rgb(0,69,134)" stroke-width="80" stroke-linejoin="round" d="M 3552,5654 L 3698,4036 3843,5436 3989,4989 4134,5515 4280,3616 4425,4277 4570,5009 4716,8110 4861,8274 5007,8281 5152,6374 5298,9608 5443,7560 5589,4316 5734,9400 5880,10287 6025,5795 6170,6421 6316,7888 6461,6467 6607,9967 6752,9605 6898,5475 7043,10071 7189,8722 7334,9653 7480,9350 7625,9994 7770,9584 7916,9229 8061,10479 8207,9625 8352,10221 8498,10119 8643,10522 8789,9495 8934,10580 9080,11142 9225,9646 9370,10441 9516,10771 9661,10551 9807,10850 9952,10994 10098,10858 10243,11047 10389,11119 10534,11138 10680,11276 10825,11282 10970,11365 11116,11338 11260,11420 11406,11297 11551,11648 11697,11698 11842,11564 11988,11758 12133,11973 12279,11875 12424,11922 12569,11946 12715,11973 12860,11976 13006,12247 13151,11928 13297,12197 13442,12273 13588,12286 13733,12183 13879,12452 14024,12128 14169,12356 14315,12279 14460,12354 14606,12374 14751,12533 14897,12373 15042,12585 15188,12526 15333,12565 15479,12605 15624,12584 15769,12598 15915,12663 16060,12740 16206,12707 16351,12653 16497,12760 16642,12759 16788,12783 16933,12848 17079,12852 17224,12867 17369,12905 17515,12942 17660,12949"/>
 <text class="TextShape"><tspan class="TextParagraph" font-family="Liberation Sans, sans-serif" font-size="353px" font-weight="400"><tspan class="TextPosition" x="2587" y="14220"><tspan fill="rgb(0,0,0)" stroke="none">0</tspan></tspan></tspan></text>
 <text class="TextShape"><tspan class="TextParagraph" font-family="Liberation Sans, sans-serif" font-size="353px" font-weight="400"><tspan class="TextPosition" x="3949" y="14220"><tspan fill="rgb(0,0,0)" stroke="none">50</tspan></tspan></tspan></text>
 <text class="TextShape"><tspan class="TextParagraph" font-family="Liberation Sans, sans-serif" font-size="353px" font-weight="400"><tspan class="TextPosition" x="5311" y="14220"><tspan fill="rgb(0,0,0)" stroke="none">100</tspan></tspan></tspan></text>
 <text class="TextShape"><tspan class="TextParagraph" font-family="Liberation Sans, sans-serif" font-size="353px" font-weight="400"><tspan class="TextPosition" x="6765" y="14220"><tspan fill="rgb(0,0,0)" stroke="none">150</tspan></tspan></tspan></text>
 <text class="TextShape"><tspan class="TextParagraph" font-family="Liberation Sans, sans-serif" font-size="353px" font-weight="400"><tspan class="TextPosition" x="8220" y="14220"><tspan fill="rgb(0,0,0)" stroke="none">200</tspan></tspan></tspan></text>
 <text class="TextShape"><tspan class="TextParagraph" font-family="Liberation Sans, sans-serif" font-size="353px" font-weight="400"><tspan class="TextPosition" x="9674" y="14220"><tspan fill="rgb(0,0,0)" stroke="none">250</tspan></tspan></tspan></text>
 <text class="TextShape"><tspan class="TextParagraph" font-family="Liberation Sans, sans-serif" font-size="353px" font-weight="400"><tspan class="TextPosition" x="11129" y="14220"><tspan fill="rgb(0,0,0)" stroke="none">300</tspan></tspan></tspan></text>
 <text class="TextShape"><tspan class="TextParagraph" font-family="Liberation Sans, sans-serif" font-size="353px" font-weight="400"><tspan class="TextPosition" x="12583" y="14220"><tspan fill="rgb(0,0,0)" stroke="none">350</tspan></tspan></tspan></text>
 <text class="TextShape"><tspan class="TextParagraph" font-family="Liberation Sans, sans-serif" font-size="353px" font-weight="400"><tspan class="TextPosition" x="14038" y="14220"><tspan fill="rgb(0,0,0)" stroke="none">400</tspan></tspan></tspan></text>
 <text class="TextShape"><tspan class="TextParagraph" font-family="Liberation Sans, sans-serif" font-size="353px" font-weight="400"><tspan class="TextPosition" x="15492" y="14220"><tspan fill="rgb(0,0,0)" stroke="none">450</tspan></tspan></tspan></text>
 <text class="TextShape"><tspan class="TextParagraph" font-family="Liberation Sans, sans-serif" font-size="353px" font-weight="400"><tspan class="TextPosition" x="16947" y="14220"><tspan fill="rgb(0,0,0)" stroke="none">500</tspan></tspan></tspan></text>
 <text class="TextShape"><tspan class="TextParagraph" font-family="Liberation Sans, sans-serif" font-size="353px" font-weight="400"><tspan class="TextPosition" x="18402" y="14220"><tspan fill="rgb(0,0,0)" stroke="none">550</tspan></tspan></tspan></text>
 <text class="TextShape"><tspan class="TextParagraph" font-family="Liberation Sans, sans-serif" font-size="353px" font-weight="400"><tspan class="TextPosition" x="2245" y="13773"><tspan fill="rgb(0,0,0)" stroke="none">0</tspan></tspan></tspan></text>
 <text class="TextShape"><tspan class="TextParagraph" font-family="Liberation Sans, sans-serif" font-size="353px" font-weight="400"><tspan class="TextPosition" x="1504" y="12680"><tspan fill="rgb(0,0,0)" stroke="none">20000</tspan></tspan></tspan></text>
 <text class="TextShape"><tspan class="TextParagraph" font-family="Liberation Sans, sans-serif" font-size="353px" font-weight="400"><tspan class="TextPosition" x="1504" y="11588"><tspan fill="rgb(0,0,0)" stroke="none">40000</tspan></tspan></tspan></text>
 <text class="TextShape"><tspan class="TextParagraph" font-family="Liberation Sans, sans-serif" font-size="353px" font-weight="400"><tspan class="TextPosition" x="1504" y="10496"><tspan fill="rgb(0,0,0)" stroke="none">60000</tspan></tspan></tspan></text>
 <text class="TextShape"><tspan class="TextParagraph" font-family="Liberation Sans, sans-serif" font-size="353px" font-weight="400"><tspan class="TextPosition" x="1504" y="9403"><tspan fill="rgb(0,0,0)" stroke="none">80000</tspan></tspan></tspan></text>
 <text class="TextShape"><tspan class="TextParagraph" font-family="Liberation Sans, sans-serif" font-size="353px" font-weight="400"><tspan class="TextPosition" x="1319" y="8311"><tspan fill="rgb(0,0,0)" stroke="none">100000</tspan></tspan></tspan></text>
 <text class="TextShape"><tspan class="TextParagraph" font-family="Liberation Sans, sans-serif" font-size="353px" font-weight="400"><tspan class="TextPosition" x="1319" y="7219"><tspan fill="rgb(0,0,0)" stroke="none">120000</tspan></tspan></tspan></text>
 <text class="TextShape"><tspan class="TextParagraph" font-family="Liberation Sans, sans-serif" font-size="353px" font-weight="400"><tspan class="TextPosition" x="1319" y="6126"><tspan fill="rgb(0,0,0)" stroke="none">140000</tspan></tspan></tspan></text>
 <text class="TextShape"><tspan class="TextParagraph" font-family="Liberation Sans, sans-serif" font-size="353px" font-weight="400"><tspan class="TextPosition" x="1319" y="5034"><tspan fill="rgb(0,0,0)" stroke="none">160000</tspan></tspan></tspan></text>
 <text class="TextShape"><tspan class="TextParagraph" font-family="Liberation Sans, sans-serif" font-size="353px" font-weight="400"><tspan class="TextPosition" x="1319" y="3942"><tspan fill="rgb(0,0,0)" stroke="none">180000</tspan></tspan></tspan></text>
 <text class="TextShape"><tspan class="TextParagraph" font-family="Liberation Sans, sans-serif" font-size="353px" font-weight="400"><tspan class="TextPosition" x="1319" y="2850"><tspan fill="rgb(0,0,0)" stroke="none">200000</tspan></tspan></tspan></text>
 <text class="TextShape"><tspan class="TextParagraph" font-family="Liberation Sans, sans-serif" font-size="459px" font-weight="400"><tspan class="TextPosition" x="8572" y="982"><tspan fill="rgb(0,0,0)" stroke="none">960 Pro random insert rate</tspan></tspan></tspan></text>
 <text class="TextShape"><tspan class="TextParagraph" font-family="Liberation Sans, sans-serif" font-size="388px" font-weight="400"><tspan class="TextPosition" x="8638" y="2023"><tspan fill="rgb(0,0,0)" stroke="none">key: 8 bytes, value: 500 bytes</tspan></tspan></tspan></text>
 <path fill="none" stroke="rgb(0,69,134)" stroke-width="80" stroke-linejoin="round" d="M 19706,7546 L 20506,7546"/>
 <path fill="none" stroke="rgb(255,66,14)" stroke-width="80" stroke-linejoin="round" d="M 19706,8043 L 20506,8043"/>
 <text class="TextShape"><tspan class="TextParagraph" font-family="Liberation Sans, sans-serif" font-size="353px" font-weight="400"><tspan class="TextPosition" x="20606" y="7666"><tspan fill="rgb(0,0,0)" stroke="none">RocksDB</tspan></tspan></tspan></text>
 <text class="TextShape"><tspan class="TextParagraph" font-family="Liberation Sans, sans-serif" font-size="353px" font-weight="400"><tspan class="TextPosition" x="20606" y="8163"><tspan fill="rgb(0,0,0)" stroke="none">Tupl</tspan></tspan></tspan></text>
 <text class="TextShape"><tspan class="TextParagraph" font-family="Liberation Sans, sans-serif" font-size="318px" font-weight="400"><tspan class="TextPosition" x="7916" y="14998"><tspan fill="rgb(0,0,0)" stroke="none">Total number of records (millions)</tspan></tspan></tspan></text>
 <text class="TextShape" transform="translate(883,9738) rotate(-90) translate(-883,-9738)"><tspan class="TextParagraph" font-family="Liberation Sans, sans-serif" font-size="318px" font-weight="400"><tspan class="TextPosition" x="883" y="9738"><tspan fill="rgb(0,0,0)" stroke="none">Inserts per second</tspan></tspan></tspan></text>
</svg>