<?xml version="1.0" encoding="UTF-8"?>
<!DOCTYPE svg PUBLIC "-//W3C//DTD SVG 1.1//EN" "http://www.w3.org/Graphics/SVG/1.1/DTD/svg11.dtd">
<svg width="245mm" height="157mm" viewBox="0 0 24500 15700" version="1.1" xmlns="http://www.w3.org/2000/svg" xmlns:xlink="http://www.w3.org/1999/xlink" stroke-width="28.222" stroke-linejoin="round" xml:space="preserve">
 <path fill="rgb(255,255,255)" stroke="none" d="M 12266,15733 L 0,15733 0,0 24531,0 24531,15733 12266,15733 Z"/>
 <path fill="none" stroke="rgb(179,179,179)" stroke-linejoin="round" d="M 12312,13816 L 3305,13816 3305,2752 21319,2752 21319,13816 12312,13816 Z"/>
 <path fill="none" stroke="rgb(179,179,179)" stroke-linejoin="round" d="M 3305,2751 L 3305,13815"/>
 <path fill="none" stroke="rgb(179,179,179)" stroke-linejoin="round" d="M 4025,2751 L 4025,13815"/>
 <path fill="none" stroke="rgb(179,179,179)" stroke-linejoin="round" d="M 4746,2751 L 4746,13815"/>
 <path fill="none" stroke="rgb(179,179,179)" stroke-linejoin="round" d="M 5466,2751 L 5466,13815"/>
 <path fill="none" stroke="rgb(179,179,179)" stroke-linejoin="round" d="M 6187,2751 L 6187,13815"/>
 <path fill="none" stroke="rgb(179,179,179)" stroke-linejoin="round" d="M 6908,2751 L 6908,13815"/>
 <path fill="none" stroke="rgb(179,179,179)" stroke-linejoin="round" d="M 7628,2751 L 7628,13815"/>
 <path fill="none" stroke="rgb(179,179,179)" stroke-linejoin="round" d="M 8349,2751 L 8349,13815"/>
 <path fill="none" stroke="rgb(179,179,179)" stroke-linejoin="round" d="M 9069,2751 L 9069,13815"/>
 <path fill="none" stroke="rgb(179,179,179)" stroke-linejoin="round" d="M 9790,2751 L 9790,13815"/>
 <path fill="none" stroke="rgb(179,179,179)" stroke-linejoin="round" d="M 10511,2751 L 10511,13815"/>
 <path fill="none" stroke="rgb(179,179,179)" stroke-linejoin="round" d="M 11231,2751 L 11231,13815"/>
 <path fill="none" stroke="rgb(179,179,179)" stroke-linejoin="round" d="M 11952,2751 L 11952,13815"/>
 <path fill="none" stroke="rgb(179,179,179)" stroke-linejoin="round" d="M 12671,2751 L 12671,13815"/>
 <path fill="none" stroke="rgb(179,179,179)" stroke-linejoin="round" d="M 13392,2751 L 13392,13815"/>
 <path fill="none" stroke="rgb(179,179,179)" stroke-linejoin="round" d="M 14113,2751 L 14113,13815"/>
 <path fill="none" stroke="rgb(179,179,179)" stroke-linejoin="round" d="M 14833,2751 L 14833,13815"/>
 <path fill="none" stroke="rgb(179,179,179)" stroke-linejoin="round" d="M 15554,2751 L 15554,13815"/>
 <path fill="none" stroke="rgb(179,179,179)" stroke-linejoin="round" d="M 16274,2751 L 16274,13815"/>
 <path fill="none" stroke="rgb(179,179,179)" stroke-linejoin="round" d="M 16995,2751 L 16995,13815"/>
 <path fill="none" stroke="rgb(179,179,179)" stroke-linejoin="round" d="M 17716,2751 L 17716,13815"/>
 <path fill="none" stroke="rgb(179,179,179)" stroke-linejoin="round" d="M 18436,2751 L 18436,13815"/>
 <path fill="none" stroke="rgb(179,179,179)" stroke-linejoin="round" d="M 19157,2751 L 19157,13815"/>
 <path fill="none" stroke="rgb(179,179,179)" stroke-linejoin="round" d="M 19877,2751 L 19877,13815"/>
 <path fill="none" stroke="rgb(179,179,179)" stroke-linejoin="round" d="M 20598,2751 L 20598,13815"/>
 <path fill="none" stroke="rgb(179,179,179)" stroke-linejoin="round" d="M 21319,2751 L 21319,13815"/>
 <path fill="none" stroke="rgb(179,179,179)" stroke-linejoin="round" d="M 21319,13815 L 3305,13815"/>
 <path fill="none" stroke="rgb(179,179,179)" stroke-linejoin="round" d="M 21319,12708 L 3305,12708"/>
 <path fill="none" stroke="rgb(179,179,179)" stroke-linejoin="round" d="M 21319,11602 L 3305,11602"/>
 <path fill="none" stroke="rgb(179,179,179)" stroke-linejoin="round" d="M 21319,10495 L 3305,10495"/>
 <path fill="none" stroke="rgb(179,179,179)" stroke-linejoin="round" d="M 21319,9389 L 3305,9389"/>
 <path fill="none" stroke="rgb(179,179,179)" stroke-linejoin="round" d="M 21319,8282 L 3305,8282"/>
 <path fill="none" stroke="rgb(179,179,179)" stroke-linejoin="round" d="M 21319,7177 L 3305,7177"/>
 <path fill="none" stroke="rgb(179,179,179)" stroke-linejoin="round" d="M 21319,6070 L 3305,6070"/>
 <path fill="none" stroke="rgb(179,179,179)" stroke-linejoin="round" d="M 21319,4964 L 3305,4964"/>
 <path fill="none" stroke="rgb(179,179,179)" stroke-linejoin="round" d="M 21319,3857 L 3305,3857"/>
 <path fill="none" stroke="rgb(179,179,179)" stroke-linejoin="round" d="M 21319,2751 L 3305,2751"/>
 <path fill="none" stroke="rgb(179,179,179)" stroke-linejoin="round" d="M 3305,13965 L 3305,13815"/>
 <path fill="none" stroke="rgb(179,179,179)" stroke-linejoin="round" d="M 3305,13965 L 3305,13815"/>
 <path fill="none" stroke="rgb(179,179,179)" stroke-linejoin="round" d="M 4025,13965 L 4025,13815"/>
 <path fill="none" stroke="rgb(179,179,179)" stroke-linejoin="round" d="M 4025,13965 L 4025,13815"/>
 <path fill="none" stroke="rgb(179,179,179)" stroke-linejoin="round" d="M 4746,13965 L 4746,13815"/>
 <path fill="none" stroke="rgb(179,179,179)" stroke-linejoin="round" d="M 4746,13965 L 4746,13815"/>
 <path fill="none" stroke="rgb(179,179,179)" stroke-linejoin="round" d="M 5466,13965 L 5466,13815"/>
 <path fill="none" stroke="rgb(179,179,179)" stroke-linejoin="round" d="M 5466,13965 L 5466,13815"/>
 <path fill="none" stroke="rgb(179,179,179)" stroke-linejoin="round" d="M 6187,13965 L 6187,13815"/>
 <path fill="none" stroke="rgb(179,179,179)" stroke-linejoin="round" d="M 6187,13965 L 6187,13815"/>
 <path fill="none" stroke="rgb(179,179,179)" stroke-linejoin="round" d="M 6908,13965 L 6908,13815"/>
 <path fill="none" stroke="rgb(179,179,179)" stroke-linejoin="round" d="M 6908,13965 L 6908,13815"/>
 <path fill="none" stroke="rgb(179,179,179)" stroke-linejoin="round" d="M 7628,13965 L 7628,13815"/>
 <path fill="none" stroke="rgb(179,179,179)" stroke-linejoin="round" d="M 7628,13965 L 7628,13815"/>
 <path fill="none" stroke="rgb(179,179,179)" stroke-linejoin="round" d="M 8349,13965 L 8349,13815"/>
 <path fill="none" stroke="rgb(179,179,179)" stroke-linejoin="round" d="M 8349,13965 L 8349,13815"/>
 <path fill="none" stroke="rgb(179,179,179)" stroke-linejoin="round" d="M 9069,13965 L 9069,13815"/>
 <path fill="none" stroke="rgb(179,179,179)" stroke-linejoin="round" d="M 9069,13965 L 9069,13815"/>
 <path fill="none" stroke="rgb(179,179,179)" stroke-linejoin="round" d="M 9790,13965 L 9790,13815"/>
 <path fill="none" stroke="rgb(179,179,179)" stroke-linejoin="round" d="M 9790,13965 L 9790,13815"/>
 <path fill="none" stroke="rgb(179,179,179)" stroke-linejoin="round" d="M 10511,13965 L 10511,13815"/>
 <path fill="none" stroke="rgb(179,179,179)" stroke-linejoin="round" d="M 10511,13965 L 10511,13815"/>
 <path fill="none" stroke="rgb(179,179,179)" stroke-linejoin="round" d="M 11231,13965 L 11231,13815"/>
 <path fill="none" stroke="rgb(179,179,179)" stroke-linejoin="round" d="M 11231,13965 L 11231,13815"/>
 <path fill="none" stroke="rgb(179,179,179)" stroke-linejoin="round" d="M 11952,13965 L 11952,13815"/>
 <path fill="none" stroke="rgb(179,179,179)" stroke-linejoin="round" d="M 11952,13965 L 11952,13815"/>
 <path fill="none" stroke="rgb(179,179,179)" stroke-linejoin="round" d="M 12671,13965 L 12671,13815"/>
 <path fill="none" stroke="rgb(179,179,179)" stroke-linejoin="round" d="M 12671,13965 L 12671,13815"/>
 <path fill="none" stroke="rgb(179,179,179)" stroke-linejoin="round" d="M 13392,13965 L 13392,13815"/>
 <path fill="none" stroke="rgb(179,179,179)" stroke-linejoin="round" d="M 13392,13965 L 13392,13815"/>
 <path fill="none" stroke="rgb(179,179,179)" stroke-linejoin="round" d="M 14113,13965 L 14113,13815"/>
 <path fill="none" stroke="rgb(179,179,179)" stroke-linejoin="round" d="M 14113,13965 L 14113,13815"/>
 <path fill="none" stroke="rgb(179,179,179)" stroke-linejoin="round" d="M 14833,13965 L 14833,13815"/>
 <path fill="none" stroke="rgb(179,179,179)" stroke-linejoin="round" d="M 14833,13965 L 14833,13815"/>
 <path fill="none" stroke="rgb(179,179,179)" stroke-linejoin="round" d="M 15554,13965 L 15554,13815"/>
 <path fill="none" stroke="rgb(179,179,179)" stroke-linejoin="round" d="M 15554,13965 L 15554,13815"/>
 <path fill="none" stroke="rgb(179,179,179)" stroke-linejoin="round" d="M 16274,13965 L 16274,13815"/>
 <path fill="none" stroke="rgb(179,179,179)" stroke-linejoin="round" d="M 16274,13965 L 16274,13815"/>
 <path fill="none" stroke="rgb(179,179,179)" stroke-linejoin="round" d="M 16995,13965 L 16995,13815"/>
 <path fill="none" stroke="rgb(179,179,179)" stroke-linejoin="round" d="M 16995,13965 L 16995,13815"/>
 <path fill="none" stroke="rgb(179,179,179)" stroke-linejoin="round" d="M 17716,13965 L 17716,13815"/>
 <path fill="none" stroke="rgb(179,179,179)" stroke-linejoin="round" d="M 17716,13965 L 17716,13815"/>
 <path fill="none" stroke="rgb(179,179,179)" stroke-linejoin="round" d="M 18436,13965 L 18436,13815"/>
 <path fill="none" stroke="rgb(179,179,179)" stroke-linejoin="round" d="M 18436,13965 L 18436,13815"/>
 <path fill="none" stroke="rgb(179,179,179)" stroke-linejoin="round" d="M 19157,13965 L 19157,13815"/>
 <path fill="none" stroke="rgb(179,179,179)" stroke-linejoin="round" d="M 19157,13965 L 19157,13815"/>
 <path fill="none" stroke="rgb(179,179,179)" stroke-linejoin="round" d="M 19877,13965 L 19877,13815"/>
 <path fill="none" stroke="rgb(179,179,179)" stroke-linejoin="round" d="M 19877,13965 L 19877,13815"/>
 <path fill="none" stroke="rgb(179,179,179)" stroke-linejoin="round" d="M 20598,13965 L 20598,13815"/>
 <path fill="none" stroke="rgb(179,179,179)" stroke-linejoin="round" d="M 20598,13965 L 20598,13815"/>
 <path fill="none" stroke="rgb(179,179,179)" stroke-linejoin="round" d="M 21319,13965 L 21319,13815"/>
 <path fill="none" stroke="rgb(179,179,179)" stroke-linejoin="round" d="M 21319,13965 L 21319,13815"/>
 <path fill="none" stroke="rgb(179,179,179)" stroke-linejoin="round" d="M 3305,13815 L 21319,13815"/>
 <path fill="none" stroke="rgb(179,179,179)" stroke-linejoin="round" d="M 3155,13815 L 3305,13815"/>
 <path fill="none" stroke="rgb(179,179,179)" stroke-linejoin="round" d="M 3155,13815 L 3305,13815"/>
 <path fill="none" stroke="rgb(179,179,179)" stroke-linejoin="round" d="M 3155,12708 L 3305,12708"/>
 <path fill="none" stroke="rgb(179,179,179)" stroke-linejoin="round" d="M 3155,12708 L 3305,12708"/>
 <path fill="none" stroke="rgb(179,179,179)" stroke-linejoin="round" d="M 3155,11602 L 3305,11602"/>
 <path fill="none" stroke="rgb(179,179,179)" stroke-linejoin="round" d="M 3155,11602 L 3305,11602"/>
 <path fill="none" stroke="rgb(179,179,179)" stroke-linejoin="round" d="M 3155,10495 L 3305,10495"/>
 <path fill="none" stroke="rgb(179,179,179)" stroke-linejoin="round" d="M 3155,10495 L 3305,10495"/>
 <path fill="none" stroke="rgb(179,179,179)" stroke-linejoin="round" d="M 3155,9389 L 3305,9389"/>
 <path fill="none" stroke="rgb(179,179,179)" stroke-linejoin="round" d="M 3155,9389 L 3305,9389"/>
 <path fill="none" stroke="rgb(179,179,179)" stroke-linejoin="round" d="M 3155,8282 L 3305,8282"/>
 <path fill="none" stroke="rgb(179,179,179)" stroke-linejoin="round" d="M 3155,8282 L 3305,8282"/>
 <path fill="none" stroke="rgb(179,179,179)" stroke-linejoin="round" d="M 3155,7177 L 3305,7177"/>
 <path fill="none" stroke="rgb(179,179,179)" stroke-linejoin="round" d="M 3155,7177 L 3305,7177"/>
 <path fill="none" stroke="rgb(179,179,179)" stroke-linejoin="round" d="M 3155,6070 L 3305,6070"/>
 <path fill="none" stroke="rgb(179,179,179)" stroke-linejoin="round" d="M 3155,6070 L 3305,6070"/>
 <path fill="none" stroke="rgb(179,179,179)" stroke-linejoin="round" d="M 3155,4964 L 3305,4964"/>
 <path fill="none" stroke="rgb(179,179,179)" stroke-linejoin="round" d="M 3155,4964 L 3305,4964"/>
 <path fill="none" stroke="rgb(179,179,179)" stroke-linejoin="round" d="M 3155,3857 L 3305,3857"/>
 <path fill="none" stroke="rgb(179,179,179)" stroke-linejoin="round" d="M 3155,3857 L 3305,3857"/>
 <path fill="none" stroke="rgb(179,179,179)" stroke-linejoin="round" d="M 3155,2751 L 3305,2751"/>
 <path fill="none" stroke="rgb(179,179,179)" stroke-linejoin="round" d="M 3155,2751 L 3305,2751"/>
 <path fill="none" stroke="rgb(179,179,179)" stroke-linejoin="round" d="M 3305,13815 L 3305,2751"/>
 <path fill="none" stroke="rgb(255,66,14)" stroke-width="80" stroke-linejoin="round" d="M 3404,10043 L 3445,10020 3504,9997 3586,9992 3703,9982 3867,9610 4101,9317 4430,9143 4897,9071 5556,8985 6489,9066 7808,9089 9674,9285 12311,9531 16042,9756 21318,9839"/>
 <path fill="none" stroke="rgb(0,69,134)" stroke-width="80" stroke-linejoin="round" d="M 3404,3083 L 3445,4033 3504,4830 3586,5794 3703,5823 3867,6201 4101,6821 4430,6805 4897,7096 5556,7368 6489,7669 7808,8053 9674,8408 12311,8791 16042,9118 21318,9421"/>
 <text class="TextShape"><tspan class="TextParagraph" font-family="Liberation Sans, sans-serif" font-size="353px" font-weight="400"><tspan class="TextPosition" x="3208" y="14383"><tspan fill="rgb(0,0,0)" stroke="none">0</tspan></tspan></tspan></text>
 <text class="TextShape"><tspan class="TextParagraph" font-family="Liberation Sans, sans-serif" font-size="353px" font-weight="400"><tspan class="TextPosition" x="3928" y="14383"><tspan fill="rgb(0,0,0)" stroke="none">1</tspan></tspan></tspan></text>
 <text class="TextShape"><tspan class="TextParagraph" font-family="Liberation Sans, sans-serif" font-size="353px" font-weight="400"><tspan class="TextPosition" x="4649" y="14383"><tspan fill="rgb(0,0,0)" stroke="none">2</tspan></tspan></tspan></text>
 <text class="TextShape"><tspan class="TextParagraph" font-family="Liberation Sans, sans-serif" font-size="353px" font-weight="400"><tspan class="TextPosition" x="5369" y="14383"><tspan fill="rgb(0,0,0)" stroke="none">3</tspan></tspan></tspan></text>
 <text class="TextShape"><tspan class="TextParagraph" font-family="Liberation Sans, sans-serif" font-size="353px" font-weight="400"><tspan class="TextPosition" x="6090" y="14383"><tspan fill="rgb(0,0,0)" stroke="none">4</tspan></tspan></tspan></text>
 <text class="TextShape"><tspan class="TextParagraph" font-family="Liberation Sans, sans-serif" font-size="353px" font-weight="400"><tspan class="TextPosition" x="6811" y="14383"><tspan fill="rgb(0,0,0)" stroke="none">5</tspan></tspan></tspan></text>
 <text class="TextShape"><tspan class="TextParagraph" font-family="Liberation Sans, sans-serif" font-size="353px" font-weight="400"><tspan class="TextPosition" x="7531" y="14383"><tspan fill="rgb(0,0,0)" stroke="none">6</tspan></tspan></tspan></text>
 <text class="TextShape"><tspan class="TextParagraph" font-family="Liberation Sans, sans-serif" font-size="353px" font-weight="400"><tspan class="TextPosition" x="8252" y="14383"><tspan fill="rgb(0,0,0)" stroke="none">7</tspan></tspan></tspan></text>
 <text class="TextShape"><tspan class="TextParagraph" font-family="Liberation Sans, sans-serif" font-size="353px" font-weight="400"><tspan class="TextPosition" x="8972" y="14383"><tspan fill="rgb(0,0,0)" stroke="none">8</tspan></tspan></tspan></text>
 <text class="TextShape"><tspan class="TextParagraph" font-family="Liberation Sans, sans-serif" font-size="353px" font-weight="400"><tspan class="TextPosition" x="9693" y="14383"><tspan fill="rgb(0,0,0)" stroke="none">9</tspan></tspan></tspan></text>
 <text class="TextShape"><tspan class="TextParagraph" font-family="Liberation Sans, sans-serif" font-size="353px" font-weight="400"><tspan class="TextPosition" x="10317" y="14383"><tspan fill="rgb(0,0,0)" stroke="none">10</tspan></tspan></tspan></text>
 <text class="TextShape"><tspan class="TextParagraph" font-family="Liberation Sans, sans-serif" font-size="353px" font-weight="400"><tspan class="TextPosition" x="11037" y="14383"><tspan fill="rgb(0,0,0)" stroke="none">11</tspan></tspan></tspan></text>
 <text class="TextShape"><tspan class="TextParagraph" font-family="Liberation Sans, sans-serif" font-size="353px" font-weight="400"><tspan class="TextPosition" x="11758" y="14383"><tspan fill="rgb(0,0,0)" stroke="none">12</tspan></tspan></tspan></text>
 <text class="TextShape"><tspan class="TextParagraph" font-family="Liberation Sans, sans-serif" font-size="353px" font-weight="400"><tspan class="TextPosition" x="12478" y="14383"><tspan fill="rgb(0,0,0)" stroke="none">13</tspan></tspan></tspan></text>
 <text class="TextShape"><tspan class="TextParagraph" font-family="Liberation Sans, sans-serif" font-size="353px" font-weight="400"><tspan class="TextPosition" x="13199" y="14383"><tspan fill="rgb(0,0,0)" stroke="none">14</tspan></tspan></tspan></text>
 <text class="TextShape"><tspan class="TextParagraph" font-family="Liberation Sans, sans-serif" font-size="353px" font-weight="400"><tspan class="TextPosition" x="13920" y="14383"><tspan fill="rgb(0,0,0)" stroke="none">15</tspan></tspan></tspan></text>
 <text class="TextShape"><tspan class="TextParagraph" font-family="Liberation Sans, sans-serif" font-size="353px" font-weight="400"><tspan class="TextPosition" x="14640" y="14383"><tspan fill="rgb(0,0,0)" stroke="none">16</tspan></tspan></tspan></text>
 <text class="TextShape"><tspan class="TextParagraph" font-family="Liberation Sans, sans-serif" font-size="353px" font-weight="400"><tspan class="TextPosition" x="15361" y="14383"><tspan fill="rgb(0,0,0)" stroke="none">17</tspan></tspan></tspan></text>
 <text class="TextShape"><tspan class="TextParagraph" font-family="Liberation Sans, sans-serif" font-size="353px" font-weight="400"><tspan class="TextPosition" x="16081" y="14383"><tspan fill="rgb(0,0,0)" stroke="none">18</tspan></tspan></tspan></text>
 <text class="TextShape"><tspan class="TextParagraph" font-family="Liberation Sans, sans-serif" font-size="353px" font-weight="400"><tspan class="TextPosition" x="16802" y="14383"><tspan fill="rgb(0,0,0)" stroke="none">19</tspan></tspan></tspan></text>
 <text class="TextShape"><tspan class="TextParagraph" font-family="Liberation Sans, sans-serif" font-size="353px" font-weight="400"><tspan class="TextPosition" x="17523" y="14383"><tspan fill="rgb(0,0,0)" stroke="none">20</tspan></tspan></tspan></text>
 <text class="TextShape"><tspan class="TextParagraph" font-family="Liberation Sans, sans-serif" font-size="353px" font-weight="400"><tspan class="TextPosition" x="18243" y="14383"><tspan fill="rgb(0,0,0)" stroke="none">21</tspan></tspan></tspan></text>
 <text class="TextShape"><tspan class="TextParagraph" font-family="Liberation Sans, sans-serif" font-size="353px" font-weight="400"><tspan class="TextPosition" x="18964" y="14383"><tspan fill="rgb(0,0,0)" stroke="none">22</tspan></tspan></tspan></text>
 <text class="TextShape"><tspan class="TextParagraph" font-family="Liberation Sans, sans-serif" font-size="353px" font-weight="400"><tspan class="TextPosition" x="19684" y="14383"><tspan fill="rgb(0,0,0)" stroke="none">23</tspan></tspan></tspan></text>
 <text class="TextShape"><tspan class="TextParagraph" font-family="Liberation Sans, sans-serif" font-size="353px" font-weight="400"><tspan class="TextPosition" x="20405" y="14383"><tspan fill="rgb(0,0,0)" stroke="none">24</tspan></tspan></tspan></text>
 <text class="TextShape"><tspan class="TextParagraph" font-family="Liberation Sans, sans-serif" font-size="353px" font-weight="400"><tspan class="TextPosition" x="21126" y="14383"><tspan fill="rgb(0,0,0)" stroke="none">25</tspan></tspan></tspan></text>
 <text class="TextShape"><tspan class="TextParagraph" font-family="Liberation Sans, sans-serif" font-size="353px" font-weight="400"><tspan class="TextPosition" x="2861" y="13940"><tspan fill="rgb(0,0,0)" stroke="none">0</tspan></tspan></tspan></text>
 <text class="TextShape"><tspan class="TextParagraph" font-family="Liberation Sans, sans-serif" font-size="353px" font-weight="400"><tspan class="TextPosition" x="1485" y="12833"><tspan fill="rgb(0,0,0)" stroke="none">1,000,000</tspan></tspan></tspan></text>
 <text class="TextShape"><tspan class="TextParagraph" font-family="Liberation Sans, sans-serif" font-size="353px" font-weight="400"><tspan class="TextPosition" x="1485" y="11727"><tspan fill="rgb(0,0,0)" stroke="none">2,000,000</tspan></tspan></tspan></text>
 <text class="TextShape"><tspan class="TextParagraph" font-family="Liberation Sans, sans-serif" font-size="353px" font-weight="400"><tspan class="TextPosition" x="1485" y="10620"><tspan fill="rgb(0,0,0)" stroke="none">3,000,000</tspan></tspan></tspan></text>
 <text class="TextShape"><tspan class="TextParagraph" font-family="Liberation Sans, sans-serif" font-size="353px" font-weight="400"><tspan class="TextPosition" x="1485" y="9514"><tspan fill="rgb(0,0,0)" stroke="none">4,000,000</tspan></tspan></tspan></text>
 <text class="TextShape"><tspan class="TextParagraph" font-family="Liberation Sans, sans-serif" font-size="353px" font-weight="400"><tspan class="TextPosition" x="1485" y="8407"><tspan fill="rgb(0,0,0)" stroke="none">5,000,000</tspan></tspan></tspan></text>
 <text class="TextShape"><tspan class="TextParagraph" font-family="Liberation Sans, sans-serif" font-size="353px" font-weight="400"><tspan class="TextPosition" x="1485" y="7301"><tspan fill="rgb(0,0,0)" stroke="none">6,000,000</tspan></tspan></tspan></text>
 <text class="TextShape"><tspan class="TextParagraph" font-family="Liberation Sans, sans-serif" font-size="353px" font-weight="400"><tspan class="TextPosition" x="1485" y="6194"><tspan fill="rgb(0,0,0)" stroke="none">7,000,000</tspan></tspan></tspan></text>
 <text class="TextShape"><tspan class="TextParagraph" font-family="Liberation Sans, sans-serif" font-size="353px" font-weight="400"><tspan class="TextPosition" x="1485" y="5088"><tspan fill="rgb(0,0,0)" stroke="none">8,000,000</tspan></tspan></tspan></text>
 <text class="TextShape"><tspan class="TextParagraph" font-family="Liberation Sans, sans-serif" font-size="353px" font-weight="400"><tspan class="TextPosition" x="1485" y="3981"><tspan fill="rgb(0,0,0)" stroke="none">9,000,000</tspan></tspan></tspan></text>
 <text class="TextShape"><tspan class="TextParagraph" font-family="Liberation Sans, sans-serif" font-size="353px" font-weight="400"><tspan class="TextPosition" x="1291" y="2875"><tspan fill="rgb(0,0,0)" stroke="none">10,000,000</tspan></tspan></tspan></text>
 <text class="TextShape"><tspan class="TextParagraph" font-family="Liberation Sans, sans-serif" font-size="459px" font-weight="400"><tspan class="TextPosition" x="10722" y="1011"><tspan fill="rgb(0,0,0)" stroke="none">Clutch vs Latch</tspan></tspan></tspan></text>
 <text class="TextShape"><tspan class="TextParagraph" font-family="Liberation Sans, sans-serif" font-size="388px" font-weight="400"><tspan class="TextPosition" x="9867" y="2039"><tspan fill="rgb(0,0,0)" stroke="none">(Random read performance)</tspan></tspan></tspan></text>
 <path fill="none" stroke="rgb(0,69,134)" stroke-width="80" stroke-linejoin="round" d="M 22315,7621 L 23115,7621"/>
 <path fill="none" stroke="rgb(255,66,14)" stroke-width="80" stroke-linejoin="round" d="M 22315,8110 L 23115,8110"/>
 <text class="TextShape"><tspan class="TextParagraph" font-family="Liberation Sans, sans-serif" font-size="353px" font-weight="400"><tspan class="TextPosition" x="23215" y="7745"><tspan fill="rgb(0,0,0)" stroke="none">Clutch</tspan></tspan></tspan></text>
 <text class="TextShape"><tspan class="TextParagraph" font-family="Liberation Sans, sans-serif" font-size="353px" font-weight="400"><tspan class="TextPosition" x="23215" y="8234"><tspan fill="rgb(0,0,0)" stroke="none">Latch</tspan></tspan></tspan></text>
 <text class="TextShape"><tspan class="TextParagraph" font-family="Liberation Sans, sans-serif" font-size="318px" font-weight="400"><tspan class="TextPosition" x="10291" y="15148"><tspan fill="rgb(0,0,0)" stroke="none">Range percentage</tspan></tspan></tspan></text>
 <text class="TextShape" transform="rotate(-90 828 9793)"><tspan class="TextParagraph" font-family="Liberation Sans, sans-serif" font-size="318px" font-weight="400"><tspan class="TextPosition" x="828" y="9793"><tspan fill="rgb(0,0,0)" stroke="none">Reads per second</tspan></tspan></tspan></text>
</svg>