<?xml version="1.0" encoding="UTF-8"?>
<!DOCTYPE svg PUBLIC "-//W3C//DTD SVG 1.1//EN" "http://www.w3.org/Graphics/SVG/1.1/DTD/svg11.dtd">
<svg width="224mm" height="156mm" viewBox="0 0 22400 15600" version="1.1" xmlns="http://www.w3.org/2000/svg" stroke-width="28.222" stroke-linejoin="round" xml:space="preserve">
 <path fill="rgb(255,255,255)" stroke="none" d="M 11270,15565 L 50,15565 50,0 22490,0 22490,15565 11270,15565 Z"/>
 <path fill="none" stroke="rgb(179,179,179)" stroke-linejoin="round" d="M 10871,13626 L 2871,13626 2871,2731 18871,2731 18871,13626 10871,13626 Z"/>
 <path fill="none" stroke="rgb(179,179,179)" stroke-linejoin="round" d="M 2871,2730 L 2871,13625"/>
 <path fill="none" stroke="rgb(179,179,179)" stroke-linejoin="round" d="M 4325,2730 L 4325,13625"/>
 <path fill="none" stroke="rgb(179,179,179)" stroke-linejoin="round" d="M 5780,2730 L 5780,13625"/>
 <path fill="none" stroke="rgb(179,179,179)" stroke-linejoin="round" d="M 7234,2730 L 7234,13625"/>
 <path fill="none" stroke="rgb(179,179,179)" stroke-linejoin="round" d="M 8689,2730 L 8689,13625"/>
 <path fill="none" stroke="rgb(179,179,179)" stroke-linejoin="round" d="M 10144,2730 L 10144,13625"/>
 <path fill="none" stroke="rgb(179,179,179)" stroke-linejoin="round" d="M 11597,2730 L 11597,13625"/>
 <path fill="none" stroke="rgb(179,179,179)" stroke-linejoin="round" d="M 13052,2730 L 13052,13625"/>
 <path fill="none" stroke="rgb(179,179,179)" stroke-linejoin="round" d="M 14507,2730 L 14507,13625"/>
 <path fill="none" stroke="rgb(179,179,179)" stroke-linejoin="round" d="M 15961,2730 L 15961,13625"/>
 <path fill="none" stroke="rgb(179,179,179)" stroke-linejoin="round" d="M 17416,2730 L 17416,13625"/>
 <path fill="none" stroke="rgb(179,179,179)" stroke-linejoin="round" d="M 18871,2730 L 18871,13625"/>
 <path fill="none" stroke="rgb(179,179,179)" stroke-linejoin="round" d="M 18871,13625 L 2871,13625"/>
 <path fill="none" stroke="rgb(179,179,179)" stroke-linejoin="round" d="M 18871,11809 L 2871,11809"/>
 <path fill="none" stroke="rgb(179,179,179)" stroke-linejoin="round" d="M 18871,9993 L 2871,9993"/>
 <path fill="none" stroke="rgb(179,179,179)" stroke-linejoin="round" d="M 18871,8177 L 2871,8177"/>
 <path fill="none" stroke="rgb(179,179,179)" stroke-linejoin="round" d="M 18871,6362 L 2871,6362"/>
 <path fill="none" stroke="rgb(179,179,179)" stroke-linejoin="round" d="M 18871,4546 L 2871,4546"/>
 <path fill="none" stroke="rgb(179,179,179)" stroke-linejoin="round" d="M 18871,2730 L 2871,2730"/>
 <path fill="none" stroke="rgb(179,179,179)" stroke-linejoin="round" d="M 2871,13775 L 2871,13625"/>
 <path fill="none" stroke="rgb(179,179,179)" stroke-linejoin="round" d="M 2871,13775 L 2871,13625"/>
 <path fill="none" stroke="rgb(179,179,179)" stroke-linejoin="round" d="M 4325,13775 L 4325,13625"/>
 <path fill="none" stroke="rgb(179,179,179)" stroke-linejoin="round" d="M 4325,13775 L 4325,13625"/>
 <path fill="none" stroke="rgb(179,179,179)" stroke-linejoin="round" d="M 5780,13775 L 5780,13625"/>
 <path fill="none" stroke="rgb(179,179,179)" stroke-linejoin="round" d="M 5780,13775 L 5780,13625"/>
 <path fill="none" stroke="rgb(179,179,179)" stroke-linejoin="round" d="M 7234,13775 L 7234,13625"/>
 <path fill="none" stroke="rgb(179,179,179)" stroke-linejoin="round" d="M 7234,13775 L 7234,13625"/>
 <path fill="none" stroke="rgb(179,179,179)" stroke-linejoin="round" d="M 8689,13775 L 8689,13625"/>
 <path fill="none" stroke="rgb(179,179,179)" stroke-linejoin="round" d="M 8689,13775 L 8689,13625"/>
 <path fill="none" stroke="rgb(179,179,179)" stroke-linejoin="round" d="M 10144,13775 L 10144,13625"/>
 <path fill="none" stroke="rgb(179,179,179)" stroke-linejoin="round" d="M 10144,13775 L 10144,13625"/>
 <path fill="none" stroke="rgb(179,179,179)" stroke-linejoin="round" d="M 11597,13775 L 11597,13625"/>
 <path fill="none" stroke="rgb(179,179,179)" stroke-linejoin="round" d="M 11597,13775 L 11597,13625"/>
 <path fill="none" stroke="rgb(179,179,179)" stroke-linejoin="round" d="M 13052,13775 L 13052,13625"/>
 <path fill="none" stroke="rgb(179,179,179)" stroke-linejoin="round" d="M 13052,13775 L 13052,13625"/>
 <path fill="none" stroke="rgb(179,179,179)" stroke-linejoin="round" d="M 14507,13775 L 14507,13625"/>
 <path fill="none" stroke="rgb(179,179,179)" stroke-linejoin="round" d="M 14507,13775 L 14507,13625"/>
 <path fill="none" stroke="rgb(179,179,179)" stroke-linejoin="round" d="M 15961,13775 L 15961,13625"/>
 <path fill="none" stroke="rgb(179,179,179)" stroke-linejoin="round" d="M 15961,13775 L 15961,13625"/>
 <path fill="none" stroke="rgb(179,179,179)" stroke-linejoin="round" d="M 17416,13775 L 17416,13625"/>
 <path fill="none" stroke="rgb(179,179,179)" stroke-linejoin="round" d="M 17416,13775 L 17416,13625"/>
 <path fill="none" stroke="rgb(179,179,179)" stroke-linejoin="round" d="M 18871,13775 L 18871,13625"/>
 <path fill="none" stroke="rgb(179,179,179)" stroke-linejoin="round" d="M 18871,13775 L 18871,13625"/>
 <path fill="none" stroke="rgb(179,179,179)" stroke-linejoin="round" d="M 2871,13625 L 18871,13625"/>
 <path fill="none" stroke="rgb(179,179,179)" stroke-linejoin="round" d="M 2721,13625 L 2871,13625"/>
 <path fill="none" stroke="rgb(179,179,179)" stroke-linejoin="round" d="M 2721,13625 L 2871,13625"/>
 <path fill="none" stroke="rgb(179,179,179)" stroke-linejoin="round" d="M 2721,11809 L 2871,11809"/>
 <path fill="none" stroke="rgb(179,179,179)" stroke-linejoin="round" d="M 2721,11809 L 2871,11809"/>
 <path fill="none" stroke="rgb(179,179,179)" stroke-linejoin="round" d="M 2721,9993 L 2871,9993"/>
 <path fill="none" stroke="rgb(179,179,179)" stroke-linejoin="round" d="M 2721,9993 L 2871,9993"/>
 <path fill="none" stroke="rgb(179,179,179)" stroke-linejoin="round" d="M 2721,8177 L 2871,8177"/>
 <path fill="none" stroke="rgb(179,179,179)" stroke-linejoin="round" d="M 2721,8177 L 2871,8177"/>
 <path fill="none" stroke="rgb(179,179,179)" stroke-linejoin="round" d="M 2721,6362 L 2871,6362"/>
 <path fill="none" stroke="rgb(179,179,179)" stroke-linejoin="round" d="M 2721,6362 L 2871,6362"/>
 <path fill="none" stroke="rgb(179,179,179)" stroke-linejoin="round" d="M 2721,4546 L 2871,4546"/>
 <path fill="none" stroke="rgb(179,179,179)" stroke-linejoin="round" d="M 2721,4546 L 2871,4546"/>
 <path fill="none" stroke="rgb(179,179,179)" stroke-linejoin="round" d="M 2721,2730 L 2871,2730"/>
 <path fill="none" stroke="rgb(179,179,179)" stroke-linejoin="round" d="M 2721,2730 L 2871,2730"/>
 <path fill="none" stroke="rgb(179,179,179)" stroke-linejoin="round" d="M 2871,13625 L 2871,2730"/>
 <path fill="none" stroke="rgb(255,66,14)" stroke-width="80" stroke-linejoin="round" d="M 3307,4500 L 3380,4924 3452,4451 3525,6297 3598,7158 3671,8134 3743,8617 3816,9028 3889,9266 3961,9465 4034,9752 4107,9812 4180,9882 4252,10087 4325,10140 4398,10185 4471,10251 4543,10351 4616,10386 4689,10389 4762,10460 4834,10495 4907,10511 4980,10543 5052,10586 5125,10577 5198,10639 5271,10663 5343,10656 5416,10679 5489,10709 5562,10732 5634,10756 5707,10761 5780,10772 5853,10790 5925,10790 5998,10805 6071,10832 6143,10847 6216,10859 6289,10856 6362,10865 6434,10860 6507,10894 6580,10909 6653,10909 6725,10900 6798,10936 6871,10932 6943,10931 7016,10951 7089,10960 7162,10946 7234,10988 7307,10968 7380,10979 7453,10984 7525,10982 7598,11007 7671,10986 7744,11032 7816,10996 7889,11033 7962,11019 8034,11045 8107,11035 8180,11043 8253,11051 8325,11051 8398,11063 8471,11048 8544,11082 8616,11074 8689,11070 8762,11082 8835,11073 8907,11084 8980,11100 9053,11096 9125,11105 9198,11109 9271,11113 9344,11111 9416,11137 9489,11115 9562,11108 9635,11142 9707,11139 9780,11138 9853,11122 9925,11154 9998,11145 10071,11154 10144,11141 10216,11159 10289,11166 10362,11163 10435,11154 10507,11157 10580,11160 10653,11177 10726,11178 10798,11185 10871,11178 10944,11171 11016,11186 11089,11202 11162,11190 11235,11196 11306,11191 11379,11199 11452,11199 11525,11204 11597,11197 11670,11206 11743,11217 11816,11216 11888,11223 11961,11224 12034,11220 12106,11223 12179,11232 12252,11228 12325,11229 12397,11240 12470,11243 12543,11243 12616,11247 12688,11239 12761,11248 12834,11247 12906,11248 12979,11248 13052,11262 13125,11258 13197,11264 13270,11267 13343,11272 13416,11270 13488,11267 13561,11276 13634,11271 13707,11277 13779,11271 13852,11279 13925,11276 13997,11281 14070,11282 14143,11283 14216,11282 14288,11284 14361,11307 14434,11299 14507,11301 14579,11305 14652,11302 14725,11299 14798,11304 14870,11302 14943,11301 15016,11305 15088,11325 15161,11317 15234,11318 15307,11317 15379,11319 15452,11320 15525,11313 15598,11341 15670,11340 15743,11331 15816,11321 15888,11328 15961,11318 16034,11349 16107,11350 16179,11340 16252,11341 16325,11337 16398,11346 16470,11352 16543,11354 16616,11347 16689,11343 16761,11360 16834,11357 16907,11353 16979,11348 17052,11342 17125,11378 17198,11365 17270,11358 17343,11357 17416,11379"/>
 <path fill="none" stroke="rgb(0,69,134)" stroke-width="80" stroke-linejoin="round" d="M 3307,6943 L 3380,7944 3452,8032 3525,7611 3598,7042 3671,7909 3743,7975 3816,8535 3889,8127 3961,8181 4034,8568 4107,8260 4180,7975 4252,8555 4325,6894 4398,8701 4471,8416 4543,8769 4616,8942 4689,7407 4762,8839 4834,8138 4907,8160 4980,9017 5052,8885 5125,8461 5198,9353 5271,8846 5343,8621 5416,8726 5489,8861 5562,8570 5634,8961 5707,8568 5780,8829 5853,9316 5925,9337 5998,9034 6071,8975 6143,9072 6216,9357 6289,9576 6362,8958 6434,8946 6507,9815 6580,9143 6653,9679 6725,9101 6798,9463 6871,9576 6943,9318 7016,9849 7089,9405 7162,9525 7234,9904 7307,9402 7380,9640 7453,9644 7525,9389 7598,9859 7671,9564 7744,9597 7816,9624 7889,10019 7962,9700 8034,9730 8107,9718 8180,9464 8253,10021 8325,9962 8398,9315 8471,10088 8544,10275 8616,10425 8689,10308 8762,10149 8835,9678 8907,9983 8980,10385 9053,10198 9125,9742 9198,10274 9271,10120 9344,10059 9416,9949 9489,10039 9562,10342 9635,10275 9707,10118 9780,10096 9853,10346 9925,10086 9998,10129 10071,10250 10144,10045 10216,10192 10289,10109 10362,10141 10435,10074 10507,10458 10580,9944 10653,10152 10726,9817 10798,10282 10871,10544 10944,10140 11016,9968 11089,10388 11162,10180 11235,10625 11306,10153 11379,10177 11452,10533 11525,10201 11597,10076 11670,10111 11743,10256 11816,10461 11888,10569 11961,10481 12034,10243 12106,9930 12179,10427 12252,10723 12325,10142 12397,10682 12470,10489 12543,10588 12616,10435 12688,10247 12761,10662 12834,10051 12906,10843 12979,10396 13052,10624 13125,10152 13197,10656 13270,10436 13343,10739 13416,10226 13488,10680 13561,10205 13634,10637 13707,10506 13779,10713 13852,10297 13925,10440 13997,10703 14070,10635 14143,10510 14216,10626 14288,10499 14361,10825 14434,10569 14507,10796 14579,10702 14652,10706 14725,10159 14798,10940 14870,10561 14943,10490 15016,10761 15088,10800 15161,10464 15234,10786 15307,10603 15379,10808 15452,10759 15525,10565 15598,10951 15670,10646 15743,10454 15816,10638 15888,10947 15961,10444 16034,10937 16107,10764 16179,10844 16252,10840 16325,10837 16398,10653 16470,10780 16543,10600 16616,11028 16689,10543 16761,11020 16834,10453 16907,10953 16979,10613 17052,10952 17125,10965 17198,10806 17270,10831 17343,10907 17416,10851"/>
 <text class="TextShape"><tspan class="TextParagraph" font-family="Liberation Sans, sans-serif" font-size="353px" font-weight="400"><tspan class="TextPosition" x="2778" y="14193"><tspan fill="rgb(0,0,0)" stroke="none">0</tspan></tspan></tspan></text>
 <text class="TextShape"><tspan class="TextParagraph" font-family="Liberation Sans, sans-serif" font-size="353px" font-weight="400"><tspan class="TextPosition" x="4047" y="14193"><tspan fill="rgb(0,0,0)" stroke="none">200</tspan></tspan></tspan></text>
 <text class="TextShape"><tspan class="TextParagraph" font-family="Liberation Sans, sans-serif" font-size="353px" font-weight="400"><tspan class="TextPosition" x="5502" y="14193"><tspan fill="rgb(0,0,0)" stroke="none">400</tspan></tspan></tspan></text>
 <text class="TextShape"><tspan class="TextParagraph" font-family="Liberation Sans, sans-serif" font-size="353px" font-weight="400"><tspan class="TextPosition" x="6956" y="14193"><tspan fill="rgb(0,0,0)" stroke="none">600</tspan></tspan></tspan></text>
 <text class="TextShape"><tspan class="TextParagraph" font-family="Liberation Sans, sans-serif" font-size="353px" font-weight="400"><tspan class="TextPosition" x="8411" y="14193"><tspan fill="rgb(0,0,0)" stroke="none">800</tspan></tspan></tspan></text>
 <text class="TextShape"><tspan class="TextParagraph" font-family="Liberation Sans, sans-serif" font-size="353px" font-weight="400"><tspan class="TextPosition" x="9773" y="14193"><tspan fill="rgb(0,0,0)" stroke="none">1000</tspan></tspan></tspan></text>
 <text class="TextShape"><tspan class="TextParagraph" font-family="Liberation Sans, sans-serif" font-size="353px" font-weight="400"><tspan class="TextPosition" x="11227" y="14193"><tspan fill="rgb(0,0,0)" stroke="none">1200</tspan></tspan></tspan></text>
 <text class="TextShape"><tspan class="TextParagraph" font-family="Liberation Sans, sans-serif" font-size="353px" font-weight="400"><tspan class="TextPosition" x="12682" y="14193"><tspan fill="rgb(0,0,0)" stroke="none">1400</tspan></tspan></tspan></text>
 <text class="TextShape"><tspan class="TextParagraph" font-family="Liberation Sans, sans-serif" font-size="353px" font-weight="400"><tspan class="TextPosition" x="14137" y="14193"><tspan fill="rgb(0,0,0)" stroke="none">1600</tspan></tspan></tspan></text>
 <text class="TextShape"><tspan class="TextParagraph" font-family="Liberation Sans, sans-serif" font-size="353px" font-weight="400"><tspan class="TextPosition" x="15591" y="14193"><tspan fill="rgb(0,0,0)" stroke="none">1800</tspan></tspan></tspan></text>
 <text class="TextShape"><tspan class="TextParagraph" font-family="Liberation Sans, sans-serif" font-size="353px" font-weight="400"><tspan class="TextPosition" x="17046" y="14193"><tspan fill="rgb(0,0,0)" stroke="none">2000</tspan></tspan></tspan></text>
 <text class="TextShape"><tspan class="TextParagraph" font-family="Liberation Sans, sans-serif" font-size="353px" font-weight="400"><tspan class="TextPosition" x="18501" y="14193"><tspan fill="rgb(0,0,0)" stroke="none">2200</tspan></tspan></tspan></text>
 <text class="TextShape"><tspan class="TextParagraph" font-family="Liberation Sans, sans-serif" font-size="353px" font-weight="400"><tspan class="TextPosition" x="2436" y="13746"><tspan fill="rgb(0,0,0)" stroke="none">0</tspan></tspan></tspan></text>
 <text class="TextShape"><tspan class="TextParagraph" font-family="Liberation Sans, sans-serif" font-size="353px" font-weight="400"><tspan class="TextPosition" x="1510" y="11930"><tspan fill="rgb(0,0,0)" stroke="none">100000</tspan></tspan></tspan></text>
 <text class="TextShape"><tspan class="TextParagraph" font-family="Liberation Sans, sans-serif" font-size="353px" font-weight="400"><tspan class="TextPosition" x="1510" y="10114"><tspan fill="rgb(0,0,0)" stroke="none">200000</tspan></tspan></tspan></text>
 <text class="TextShape"><tspan class="TextParagraph" font-family="Liberation Sans, sans-serif" font-size="353px" font-weight="400"><tspan class="TextPosition" x="1510" y="8298"><tspan fill="rgb(0,0,0)" stroke="none">300000</tspan></tspan></tspan></text>
 <text class="TextShape"><tspan class="TextParagraph" font-family="Liberation Sans, sans-serif" font-size="353px" font-weight="400"><tspan class="TextPosition" x="1510" y="6482"><tspan fill="rgb(0,0,0)" stroke="none">400000</tspan></tspan></tspan></text>
 <text class="TextShape"><tspan class="TextParagraph" font-family="Liberation Sans, sans-serif" font-size="353px" font-weight="400"><tspan class="TextPosition" x="1510" y="4666"><tspan fill="rgb(0,0,0)" stroke="none">500000</tspan></tspan></tspan></text>
 <text class="TextShape"><tspan class="TextParagraph" font-family="Liberation Sans, sans-serif" font-size="353px" font-weight="400"><tspan class="TextPosition" x="1510" y="2850"><tspan fill="rgb(0,0,0)" stroke="none">600000</tspan></tspan></tspan></text>
 <text class="TextShape"><tspan class="TextParagraph" font-family="Liberation Sans, sans-serif" font-size="459px" font-weight="400"><tspan class="TextPosition" x="8677" y="982"><tspan fill="rgb(0,0,0)" stroke="none">Optane random insert rate</tspan></tspan></tspan></text>
 <text class="TextShape"><tspan class="TextParagraph" font-family="Liberation Sans, sans-serif" font-size="388px" font-weight="400"><tspan class="TextPosition" x="8690" y="2023"><tspan fill="rgb(0,0,0)" stroke="none">key: 8 bytes, value: 120 bytes</tspan></tspan></tspan></text>
 <path fill="none" stroke="rgb(0,69,134)" stroke-width="80" stroke-linejoin="round" d="M 19807,7533 L 20607,7533"/>
 <path fill="none" stroke="rgb(255,66,14)" stroke-width="80" stroke-linejoin="round" d="M 19807,8030 L 20607,8030"/>
 <text class="TextShape"><tspan class="TextParagraph" font-family="Liberation Sans, sans-serif" font-size="353px" font-weight="400"><tspan class="TextPosition" x="20707" y="7653"><tspan fill="rgb(0,0,0)" stroke="none">RocksDB</tspan></tspan></tspan></text>
 <text class="TextShape"><tspan class="TextParagraph" font-family="Liberation Sans, sans-serif" font-size="353px" font-weight="400"><tspan class="TextPosition" x="20707" y="8150"><tspan fill="rgb(0,0,0)" stroke="none">Tupl</tspan></tspan></tspan></text>
 <text class="TextShape"><tspan class="TextParagraph" font-family="Liberation Sans, sans-serif" font-size="318px" font-weight="400"><tspan class="TextPosition" x="7968" y="14971"><tspan fill="rgb(0,0,0)" stroke="none">Total number of records (millions)</tspan></tspan></tspan></text>
 <text class="TextShape" transform="translate(887,9724) rotate(-90) translate(-887,-9724)"><tspan class="TextParagraph" font-family="Liberation Sans, sans-serif" font-size="318px" font-weight="400"><tspan class="TextPosition" x="887" y="9724"><tspan fill="rgb(0,0,0)" stroke="none">Inserts per second</tspan></tspan></tspan></text>
</svg>