<?xml version="1.0" encoding="UTF-8"?>
<!DOCTYPE svg PUBLIC "-//W3C//DTD SVG 1.1//EN" "http://www.w3.org/Graphics/SVG/1.1/DTD/svg11.dtd">
<svg width="224mm" height="157mm" viewBox="0 0 22400 15700" version="1.1" xmlns="http://www.w3.org/2000/svg" stroke-width="28.222" stroke-linejoin="round" xml:space="preserve">
 <path fill="rgb(255,255,255)" stroke="none" d="M 11243,15670 L 49,15670 49,0 22436,0 22436,15670 11243,15670 Z"/>
 <path fill="none" stroke="rgb(179,179,179)" stroke-linejoin="round" d="M 10890,13729 L 2869,13729 2869,2736 18910,2736 18910,13729 10890,13729 Z"/>
 <path fill="none" stroke="rgb(179,179,179)" stroke-linejoin="round" d="M 2869,2735 L 2869,13728"/>
 <path fill="none" stroke="rgb(179,179,179)" stroke-linejoin="round" d="M 4327,2735 L 4327,13728"/>
 <path fill="none" stroke="rgb(179,179,179)" stroke-linejoin="round" d="M 5785,2735 L 5785,13728"/>
 <path fill="none" stroke="rgb(179,179,179)" stroke-linejoin="round" d="M 7244,2735 L 7244,13728"/>
 <path fill="none" stroke="rgb(179,179,179)" stroke-linejoin="round" d="M 8702,2735 L 8702,13728"/>
 <path fill="none" stroke="rgb(179,179,179)" stroke-linejoin="round" d="M 10160,2735 L 10160,13728"/>
 <path fill="none" stroke="rgb(179,179,179)" stroke-linejoin="round" d="M 11618,2735 L 11618,13728"/>
 <path fill="none" stroke="rgb(179,179,179)" stroke-linejoin="round" d="M 13076,2735 L 13076,13728"/>
 <path fill="none" stroke="rgb(179,179,179)" stroke-linejoin="round" d="M 14534,2735 L 14534,13728"/>
 <path fill="none" stroke="rgb(179,179,179)" stroke-linejoin="round" d="M 15993,2735 L 15993,13728"/>
 <path fill="none" stroke="rgb(179,179,179)" stroke-linejoin="round" d="M 17451,2735 L 17451,13728"/>
 <path fill="none" stroke="rgb(179,179,179)" stroke-linejoin="round" d="M 18910,2735 L 18910,13728"/>
 <path fill="none" stroke="rgb(179,179,179)" stroke-linejoin="round" d="M 18910,13728 L 2869,13728"/>
 <path fill="none" stroke="rgb(179,179,179)" stroke-linejoin="round" d="M 18910,11529 L 2869,11529"/>
 <path fill="none" stroke="rgb(179,179,179)" stroke-linejoin="round" d="M 18910,9330 L 2869,9330"/>
 <path fill="none" stroke="rgb(179,179,179)" stroke-linejoin="round" d="M 18910,7132 L 2869,7132"/>
 <path fill="none" stroke="rgb(179,179,179)" stroke-linejoin="round" d="M 18910,4933 L 2869,4933"/>
 <path fill="none" stroke="rgb(179,179,179)" stroke-linejoin="round" d="M 18910,2735 L 2869,2735"/>
 <path fill="none" stroke="rgb(179,179,179)" stroke-linejoin="round" d="M 2869,13878 L 2869,13728"/>
 <path fill="none" stroke="rgb(179,179,179)" stroke-linejoin="round" d="M 2869,13878 L 2869,13728"/>
 <path fill="none" stroke="rgb(179,179,179)" stroke-linejoin="round" d="M 4327,13878 L 4327,13728"/>
 <path fill="none" stroke="rgb(179,179,179)" stroke-linejoin="round" d="M 4327,13878 L 4327,13728"/>
 <path fill="none" stroke="rgb(179,179,179)" stroke-linejoin="round" d="M 5785,13878 L 5785,13728"/>
 <path fill="none" stroke="rgb(179,179,179)" stroke-linejoin="round" d="M 5785,13878 L 5785,13728"/>
 <path fill="none" stroke="rgb(179,179,179)" stroke-linejoin="round" d="M 7244,13878 L 7244,13728"/>
 <path fill="none" stroke="rgb(179,179,179)" stroke-linejoin="round" d="M 7244,13878 L 7244,13728"/>
 <path fill="none" stroke="rgb(179,179,179)" stroke-linejoin="round" d="M 8702,13878 L 8702,13728"/>
 <path fill="none" stroke="rgb(179,179,179)" stroke-linejoin="round" d="M 8702,13878 L 8702,13728"/>
 <path fill="none" stroke="rgb(179,179,179)" stroke-linejoin="round" d="M 10160,13878 L 10160,13728"/>
 <path fill="none" stroke="rgb(179,179,179)" stroke-linejoin="round" d="M 10160,13878 L 10160,13728"/>
 <path fill="none" stroke="rgb(179,179,179)" stroke-linejoin="round" d="M 11618,13878 L 11618,13728"/>
 <path fill="none" stroke="rgb(179,179,179)" stroke-linejoin="round" d="M 11618,13878 L 11618,13728"/>
 <path fill="none" stroke="rgb(179,179,179)" stroke-linejoin="round" d="M 13076,13878 L 13076,13728"/>
 <path fill="none" stroke="rgb(179,179,179)" stroke-linejoin="round" d="M 13076,13878 L 13076,13728"/>
 <path fill="none" stroke="rgb(179,179,179)" stroke-linejoin="round" d="M 14534,13878 L 14534,13728"/>
 <path fill="none" stroke="rgb(179,179,179)" stroke-linejoin="round" d="M 14534,13878 L 14534,13728"/>
 <path fill="none" stroke="rgb(179,179,179)" stroke-linejoin="round" d="M 15993,13878 L 15993,13728"/>
 <path fill="none" stroke="rgb(179,179,179)" stroke-linejoin="round" d="M 15993,13878 L 15993,13728"/>
 <path fill="none" stroke="rgb(179,179,179)" stroke-linejoin="round" d="M 17451,13878 L 17451,13728"/>
 <path fill="none" stroke="rgb(179,179,179)" stroke-linejoin="round" d="M 17451,13878 L 17451,13728"/>
 <path fill="none" stroke="rgb(179,179,179)" stroke-linejoin="round" d="M 18910,13878 L 18910,13728"/>
 <path fill="none" stroke="rgb(179,179,179)" stroke-linejoin="round" d="M 18910,13878 L 18910,13728"/>
 <path fill="none" stroke="rgb(179,179,179)" stroke-linejoin="round" d="M 2869,13728 L 18910,13728"/>
 <path fill="none" stroke="rgb(179,179,179)" stroke-linejoin="round" d="M 2719,13728 L 2869,13728"/>
 <path fill="none" stroke="rgb(179,179,179)" stroke-linejoin="round" d="M 2719,13728 L 2869,13728"/>
 <path fill="none" stroke="rgb(179,179,179)" stroke-linejoin="round" d="M 2719,11529 L 2869,11529"/>
 <path fill="none" stroke="rgb(179,179,179)" stroke-linejoin="round" d="M 2719,11529 L 2869,11529"/>
 <path fill="none" stroke="rgb(179,179,179)" stroke-linejoin="round" d="M 2719,9330 L 2869,9330"/>
 <path fill="none" stroke="rgb(179,179,179)" stroke-linejoin="round" d="M 2719,9330 L 2869,9330"/>
 <path fill="none" stroke="rgb(179,179,179)" stroke-linejoin="round" d="M 2719,7132 L 2869,7132"/>
 <path fill="none" stroke="rgb(179,179,179)" stroke-linejoin="round" d="M 2719,7132 L 2869,7132"/>
 <path fill="none" stroke="rgb(179,179,179)" stroke-linejoin="round" d="M 2719,4933 L 2869,4933"/>
 <path fill="none" stroke="rgb(179,179,179)" stroke-linejoin="round" d="M 2719,4933 L 2869,4933"/>
 <path fill="none" stroke="rgb(179,179,179)" stroke-linejoin="round" d="M 2719,2735 L 2869,2735"/>
 <path fill="none" stroke="rgb(179,179,179)" stroke-linejoin="round" d="M 2719,2735 L 2869,2735"/>
 <path fill="none" stroke="rgb(179,179,179)" stroke-linejoin="round" d="M 2869,13728 L 2869,2735"/>
 <path fill="none" stroke="rgb(255,66,14)" stroke-width="80" stroke-linejoin="round" d="M 3744,4770 L 3889,5427 4035,6254 4181,6549 4327,6749 4473,6967 4619,7167 4764,7294 4910,7397 5056,7453 5202,7526 5348,7693 5494,7744 5639,7715 5785,7873 5931,7813 6077,7995 6223,7905 6369,8027 6514,7988 6660,8092 6806,7990 6952,8201 7098,8123 7244,8169 7389,8189 7535,8146 7681,8275 7827,8248 7973,8214 8119,8364 8264,8304 8410,8302 8556,8352 8702,8377 8848,8365 8994,8320 9139,8484 9285,8420 9431,8417 9577,8365 9723,8525 9869,8489 10014,8473 10160,8499 10306,8458 10452,8527 10598,8563 10744,8554 10890,8555 11035,8569 11181,8537 11326,8564 11472,8647 11618,8643 11764,8614 11909,8638 12055,8636 12201,8654 12347,8636 12493,8627 12639,8671 12784,8704 12930,8739 13076,8727 13222,8730 13368,8737 13514,8742 13659,8740 13805,8800 13951,8765 14097,8779 14243,8772 14389,8780 14534,8801 14680,8792 14826,8794 14972,8823 15118,8830 15264,8817 15409,8859 15555,8842 15701,8846 15847,8864 15993,8872 16139,8886 16284,8872 16430,8888 16576,8886 16722,8895 16868,8898 17014,8901 17159,8921 17305,8912 17451,8936"/>
 <path fill="none" stroke="rgb(0,69,134)" stroke-width="80" stroke-linejoin="round" d="M 3744,6677 L 3889,6392 4035,6473 4181,7212 4327,7421 4473,8060 4619,7990 4764,7979 4910,7921 5056,7960 5202,8114 5348,8279 5494,8224 5639,8353 5785,8452 5931,8624 6077,8593 6223,8011 6369,8417 6514,7666 6660,7830 6806,8677 6952,8305 7098,8534 7244,8886 7389,8487 7535,8489 7681,9177 7827,9009 7973,8819 8119,8568 8264,8843 8410,8821 8556,8879 8702,8468 8848,9033 8994,9306 9139,8942 9285,9084 9431,9769 9577,9046 9723,9666 9869,9481 10014,9469 10160,9331 10306,9540 10452,9984 10598,9730 10744,9795 10890,9502 11035,10192 11181,10057 11326,10081 11472,9992 11618,9971 11764,10465 11909,9905 12055,9900 12201,10459 12347,10157 12493,10070 12639,10660 12784,10429 12930,10049 13076,10329 13222,10655 13368,10445 13514,10746 13659,10178 13805,10733 13951,10564 14097,10591 14243,10553 14389,10904 14534,10669 14680,10804 14826,10581 14972,10913 15118,10573 15264,11019 15409,10793 15555,10802 15701,10969 15847,10944 15993,10905 16139,10849 16284,11004 16430,11149 16576,10992 16722,11001 16868,11094 17014,11056 17159,11178 17305,11164 17451,11053"/>
 <text class="TextShape"><tspan class="TextParagraph" font-family="Liberation Sans, sans-serif" font-size="353px" font-weight="400"><tspan class="TextPosition" x="2776" y="14296"><tspan fill="rgb(0,0,0)" stroke="none">0</tspan></tspan></tspan></text>
 <text class="TextShape"><tspan class="TextParagraph" font-family="Liberation Sans, sans-serif" font-size="353px" font-weight="400"><tspan class="TextPosition" x="4142" y="14296"><tspan fill="rgb(0,0,0)" stroke="none">50</tspan></tspan></tspan></text>
 <text class="TextShape"><tspan class="TextParagraph" font-family="Liberation Sans, sans-serif" font-size="353px" font-weight="400"><tspan class="TextPosition" x="5507" y="14296"><tspan fill="rgb(0,0,0)" stroke="none">100</tspan></tspan></tspan></text>
 <text class="TextShape"><tspan class="TextParagraph" font-family="Liberation Sans, sans-serif" font-size="353px" font-weight="400"><tspan class="TextPosition" x="6966" y="14296"><tspan fill="rgb(0,0,0)" stroke="none">150</tspan></tspan></tspan></text>
 <text class="TextShape"><tspan class="TextParagraph" font-family="Liberation Sans, sans-serif" font-size="353px" font-weight="400"><tspan class="TextPosition" x="8424" y="14296"><tspan fill="rgb(0,0,0)" stroke="none">200</tspan></tspan></tspan></text>
 <text class="TextShape"><tspan class="TextParagraph" font-family="Liberation Sans, sans-serif" font-size="353px" font-weight="400"><tspan class="TextPosition" x="9882" y="14296"><tspan fill="rgb(0,0,0)" stroke="none">250</tspan></tspan></tspan></text>
 <text class="TextShape"><tspan class="TextParagraph" font-family="Liberation Sans, sans-serif" font-size="353px" font-weight="400"><tspan class="TextPosition" x="11341" y="14296"><tspan fill="rgb(0,0,0)" stroke="none">300</tspan></tspan></tspan></text>
 <text class="TextShape"><tspan class="TextParagraph" font-family="Liberation Sans, sans-serif" font-size="353px" font-weight="400"><tspan class="TextPosition" x="12799" y="14296"><tspan fill="rgb(0,0,0)" stroke="none">350</tspan></tspan></tspan></text>
 <text class="TextShape"><tspan class="TextParagraph" font-family="Liberation Sans, sans-serif" font-size="353px" font-weight="400"><tspan class="TextPosition" x="14257" y="14296"><tspan fill="rgb(0,0,0)" stroke="none">400</tspan></tspan></tspan></text>
 <text class="TextShape"><tspan class="TextParagraph" font-family="Liberation Sans, sans-serif" font-size="353px" font-weight="400"><tspan class="TextPosition" x="15716" y="14296"><tspan fill="rgb(0,0,0)" stroke="none">450</tspan></tspan></tspan></text>
 <text class="TextShape"><tspan class="TextParagraph" font-family="Liberation Sans, sans-serif" font-size="353px" font-weight="400"><tspan class="TextPosition" x="17174" y="14296"><tspan fill="rgb(0,0,0)" stroke="none">500</tspan></tspan></tspan></text>
 <text class="TextShape"><tspan class="TextParagraph" font-family="Liberation Sans, sans-serif" font-size="353px" font-weight="400"><tspan class="TextPosition" x="18633" y="14296"><tspan fill="rgb(0,0,0)" stroke="none">550</tspan></tspan></tspan></text>
 <text class="TextShape"><tspan class="TextParagraph" font-family="Liberation Sans, sans-serif" font-size="353px" font-weight="400"><tspan class="TextPosition" x="2434" y="13849"><tspan fill="rgb(0,0,0)" stroke="none">0</tspan></tspan></tspan></text>
 <text class="TextShape"><tspan class="TextParagraph" font-family="Liberation Sans, sans-serif" font-size="353px" font-weight="400"><tspan class="TextPosition" x="1693" y="11650"><tspan fill="rgb(0,0,0)" stroke="none">50000</tspan></tspan></tspan></text>
 <text class="TextShape"><tspan class="TextParagraph" font-family="Liberation Sans, sans-serif" font-size="353px" font-weight="400"><tspan class="TextPosition" x="1508" y="9451"><tspan fill="rgb(0,0,0)" stroke="none">100000</tspan></tspan></tspan></text>
 <text class="TextShape"><tspan class="TextParagraph" font-family="Liberation Sans, sans-serif" font-size="353px" font-weight="400"><tspan class="TextPosition" x="1508" y="7252"><tspan fill="rgb(0,0,0)" stroke="none">150000</tspan></tspan></tspan></text>
 <text class="TextShape"><tspan class="TextParagraph" font-family="Liberation Sans, sans-serif" font-size="353px" font-weight="400"><tspan class="TextPosition" x="1508" y="5053"><tspan fill="rgb(0,0,0)" stroke="none">200000</tspan></tspan></tspan></text>
 <text class="TextShape"><tspan class="TextParagraph" font-family="Liberation Sans, sans-serif" font-size="353px" font-weight="400"><tspan class="TextPosition" x="1508" y="2855"><tspan fill="rgb(0,0,0)" stroke="none">250000</tspan></tspan></tspan></text>
 <text class="TextShape"><tspan class="TextParagraph" font-family="Liberation Sans, sans-serif" font-size="459px" font-weight="400"><tspan class="TextPosition" x="8650" y="984"><tspan fill="rgb(0,0,0)" stroke="none">Optane random insert rate</tspan></tspan></tspan></text>
 <text class="TextShape"><tspan class="TextParagraph" font-family="Liberation Sans, sans-serif" font-size="388px" font-weight="400"><tspan class="TextPosition" x="8663" y="2027"><tspan fill="rgb(0,0,0)" stroke="none">key: 8 bytes, value: 500 bytes</tspan></tspan></tspan></text>
 <path fill="none" stroke="rgb(0,69,134)" stroke-width="80" stroke-linejoin="round" d="M 19753,7585 L 20553,7585"/>
 <path fill="none" stroke="rgb(255,66,14)" stroke-width="80" stroke-linejoin="round" d="M 19753,8082 L 20553,8082"/>
 <text class="TextShape"><tspan class="TextParagraph" font-family="Liberation Sans, sans-serif" font-size="353px" font-weight="400"><tspan class="TextPosition" x="20653" y="7705"><tspan fill="rgb(0,0,0)" stroke="none">RocksDB</tspan></tspan></tspan></text>
 <text class="TextShape"><tspan class="TextParagraph" font-family="Liberation Sans, sans-serif" font-size="353px" font-weight="400"><tspan class="TextPosition" x="20653" y="8202"><tspan fill="rgb(0,0,0)" stroke="none">Tupl</tspan></tspan></tspan></text>
 <text class="TextShape"><tspan class="TextParagraph" font-family="Liberation Sans, sans-serif" font-size="318px" font-weight="400"><tspan class="TextPosition" x="7941" y="15076"><tspan fill="rgb(0,0,0)" stroke="none">Total number of records (millions)</tspan></tspan></tspan></text>
 <text class="TextShape" transform="translate(886,9779) rotate(-90) translate(-886,-9779)"><tspan class="TextParagraph" font-family="Liberation Sans, sans-serif" font-size="318px" font-weight="400"><tspan class="TextPosition" x="886" y="9779"><tspan fill="rgb(0,0,0)" stroke="none">Inserts per second</tspan></tspan></tspan></text>
</svg>