<?xml version="1.0" encoding="UTF-8"?>
<!DOCTYPE svg PUBLIC "-//W3C//DTD SVG 1.1//EN" "http://www.w3.org/Graphics/SVG/1.1/DTD/svg11.dtd">
<svg width="224mm" height="156mm" viewBox="0 0 22400 15600" version="1.1" xmlns="http://www.w3.org/2000/svg" stroke-width="28.222" stroke-linejoin="round" xml:space="preserve">
 <path fill="rgb(255,255,255)" stroke="none" d="M 11274,15618 L 50,15618 50,0 22498,0 22498,15618 11274,15618 Z"/>
 <path fill="none" stroke="rgb(179,179,179)" stroke-linejoin="round" d="M 10875,13678 L 2871,13678 2871,2733 18879,2733 18879,13678 10875,13678 Z"/>
 <path fill="none" stroke="rgb(179,179,179)" stroke-linejoin="round" d="M 2871,2732 L 2871,13677"/>
 <path fill="none" stroke="rgb(179,179,179)" stroke-linejoin="round" d="M 4326,2732 L 4326,13677"/>
 <path fill="none" stroke="rgb(179,179,179)" stroke-linejoin="round" d="M 5781,2732 L 5781,13677"/>
 <path fill="none" stroke="rgb(179,179,179)" stroke-linejoin="round" d="M 7237,2732 L 7237,13677"/>
 <path fill="none" stroke="rgb(179,179,179)" stroke-linejoin="round" d="M 8692,2732 L 8692,13677"/>
 <path fill="none" stroke="rgb(179,179,179)" stroke-linejoin="round" d="M 10147,2732 L 10147,13677"/>
 <path fill="none" stroke="rgb(179,179,179)" stroke-linejoin="round" d="M 11602,2732 L 11602,13677"/>
 <path fill="none" stroke="rgb(179,179,179)" stroke-linejoin="round" d="M 13057,2732 L 13057,13677"/>
 <path fill="none" stroke="rgb(179,179,179)" stroke-linejoin="round" d="M 14512,2732 L 14512,13677"/>
 <path fill="none" stroke="rgb(179,179,179)" stroke-linejoin="round" d="M 15968,2732 L 15968,13677"/>
 <path fill="none" stroke="rgb(179,179,179)" stroke-linejoin="round" d="M 17423,2732 L 17423,13677"/>
 <path fill="none" stroke="rgb(179,179,179)" stroke-linejoin="round" d="M 18879,2732 L 18879,13677"/>
 <path fill="none" stroke="rgb(179,179,179)" stroke-linejoin="round" d="M 18879,13677 L 2871,13677"/>
 <path fill="none" stroke="rgb(179,179,179)" stroke-linejoin="round" d="M 18879,11852 L 2871,11852"/>
 <path fill="none" stroke="rgb(179,179,179)" stroke-linejoin="round" d="M 18879,10028 L 2871,10028"/>
 <path fill="none" stroke="rgb(179,179,179)" stroke-linejoin="round" d="M 18879,8204 L 2871,8204"/>
 <path fill="none" stroke="rgb(179,179,179)" stroke-linejoin="round" d="M 18879,6380 L 2871,6380"/>
 <path fill="none" stroke="rgb(179,179,179)" stroke-linejoin="round" d="M 18879,4556 L 2871,4556"/>
 <path fill="none" stroke="rgb(179,179,179)" stroke-linejoin="round" d="M 18879,2732 L 2871,2732"/>
 <path fill="none" stroke="rgb(179,179,179)" stroke-linejoin="round" d="M 2871,13827 L 2871,13677"/>
 <path fill="none" stroke="rgb(179,179,179)" stroke-linejoin="round" d="M 2871,13827 L 2871,13677"/>
 <path fill="none" stroke="rgb(179,179,179)" stroke-linejoin="round" d="M 4326,13827 L 4326,13677"/>
 <path fill="none" stroke="rgb(179,179,179)" stroke-linejoin="round" d="M 4326,13827 L 4326,13677"/>
 <path fill="none" stroke="rgb(179,179,179)" stroke-linejoin="round" d="M 5781,13827 L 5781,13677"/>
 <path fill="none" stroke="rgb(179,179,179)" stroke-linejoin="round" d="M 5781,13827 L 5781,13677"/>
 <path fill="none" stroke="rgb(179,179,179)" stroke-linejoin="round" d="M 7237,13827 L 7237,13677"/>
 <path fill="none" stroke="rgb(179,179,179)" stroke-linejoin="round" d="M 7237,13827 L 7237,13677"/>
 <path fill="none" stroke="rgb(179,179,179)" stroke-linejoin="round" d="M 8692,13827 L 8692,13677"/>
 <path fill="none" stroke="rgb(179,179,179)" stroke-linejoin="round" d="M 8692,13827 L 8692,13677"/>
 <path fill="none" stroke="rgb(179,179,179)" stroke-linejoin="round" d="M 10147,13827 L 10147,13677"/>
 <path fill="none" stroke="rgb(179,179,179)" stroke-linejoin="round" d="M 10147,13827 L 10147,13677"/>
 <path fill="none" stroke="rgb(179,179,179)" stroke-linejoin="round" d="M 11602,13827 L 11602,13677"/>
 <path fill="none" stroke="rgb(179,179,179)" stroke-linejoin="round" d="M 11602,13827 L 11602,13677"/>
 <path fill="none" stroke="rgb(179,179,179)" stroke-linejoin="round" d="M 13057,13827 L 13057,13677"/>
 <path fill="none" stroke="rgb(179,179,179)" stroke-linejoin="round" d="M 13057,13827 L 13057,13677"/>
 <path fill="none" stroke="rgb(179,179,179)" stroke-linejoin="round" d="M 14512,13827 L 14512,13677"/>
 <path fill="none" stroke="rgb(179,179,179)" stroke-linejoin="round" d="M 14512,13827 L 14512,13677"/>
 <path fill="none" stroke="rgb(179,179,179)" stroke-linejoin="round" d="M 15968,13827 L 15968,13677"/>
 <path fill="none" stroke="rgb(179,179,179)" stroke-linejoin="round" d="M 15968,13827 L 15968,13677"/>
 <path fill="none" stroke="rgb(179,179,179)" stroke-linejoin="round" d="M 17423,13827 L 17423,13677"/>
 <path fill="none" stroke="rgb(179,179,179)" stroke-linejoin="round" d="M 17423,13827 L 17423,13677"/>
 <path fill="none" stroke="rgb(179,179,179)" stroke-linejoin="round" d="M 18879,13827 L 18879,13677"/>
 <path fill="none" stroke="rgb(179,179,179)" stroke-linejoin="round" d="M 18879,13827 L 18879,13677"/>
 <path fill="none" stroke="rgb(179,179,179)" stroke-linejoin="round" d="M 2871,13677 L 18879,13677"/>
 <path fill="none" stroke="rgb(179,179,179)" stroke-linejoin="round" d="M 2721,13677 L 2871,13677"/>
 <path fill="none" stroke="rgb(179,179,179)" stroke-linejoin="round" d="M 2721,13677 L 2871,13677"/>
 <path fill="none" stroke="rgb(179,179,179)" stroke-linejoin="round" d="M 2721,11852 L 2871,11852"/>
 <path fill="none" stroke="rgb(179,179,179)" stroke-linejoin="round" d="M 2721,11852 L 2871,11852"/>
 <path fill="none" stroke="rgb(179,179,179)" stroke-linejoin="round" d="M 2721,10028 L 2871,10028"/>
 <path fill="none" stroke="rgb(179,179,179)" stroke-linejoin="round" d="M 2721,10028 L 2871,10028"/>
 <path fill="none" stroke="rgb(179,179,179)" stroke-linejoin="round" d="M 2721,8204 L 2871,8204"/>
 <path fill="none" stroke="rgb(179,179,179)" stroke-linejoin="round" d="M 2721,8204 L 2871,8204"/>
 <path fill="none" stroke="rgb(179,179,179)" stroke-linejoin="round" d="M 2721,6380 L 2871,6380"/>
 <path fill="none" stroke="rgb(179,179,179)" stroke-linejoin="round" d="M 2721,6380 L 2871,6380"/>
 <path fill="none" stroke="rgb(179,179,179)" stroke-linejoin="round" d="M 2721,4556 L 2871,4556"/>
 <path fill="none" stroke="rgb(179,179,179)" stroke-linejoin="round" d="M 2721,4556 L 2871,4556"/>
 <path fill="none" stroke="rgb(179,179,179)" stroke-linejoin="round" d="M 2721,2732 L 2871,2732"/>
 <path fill="none" stroke="rgb(179,179,179)" stroke-linejoin="round" d="M 2721,2732 L 2871,2732"/>
 <path fill="none" stroke="rgb(179,179,179)" stroke-linejoin="round" d="M 2871,13677 L 2871,2732"/>
 <path fill="none" stroke="rgb(255,66,14)" stroke-width="80" stroke-linejoin="round" d="M 3744,5243 L 3889,5582 4035,6265 4180,6750 4326,7036 4471,7370 4617,7498 4762,7695 4908,7772 5054,7895 5199,7987 5345,8083 5490,8170 5636,8225 5781,8274 5927,8329 6072,8431 6218,8425 6363,8474 6509,8497 6654,8564 6800,8536 6946,8619 7091,8612 7237,8637 7382,8685 7528,8694 7673,8695 7819,8767 7964,8769 8110,8789 8255,8799 8401,8821 8546,8796 8692,8836 8837,8869 8983,8891 9129,8894 9274,8907 9420,8925 9565,8937 9711,8935 9856,8965 10002,8974 10147,8982 10293,9007 10438,9020 10584,9016 10729,9024 10875,9045 11021,9054 11166,9041 11311,9071 11456,9094 11602,9106 11747,9100 11893,9090 12038,9144 12184,9136 12329,9136 12475,9131 12620,9178 12766,9167 12912,9166 13057,9185 13203,9207 13348,9198 13494,9215 13639,9228 13785,9207 13930,9241 14076,9248 14221,9215 14367,9299 14512,9267 14658,9277 14803,9295 14949,9250 15095,9321 15240,9260 15386,9328 15531,9303 15677,9317 15822,9324 15968,9326 16113,9337 16259,9347 16404,9339 16550,9356 16695,9363 16841,9383 16987,9369 17132,9389 17278,9357 17423,9413"/>
 <path fill="none" stroke="rgb(0,69,134)" stroke-width="80" stroke-linejoin="round" d="M 3744,4159 L 3889,5135 4035,5949 4180,4852 4326,6265 4471,6445 4617,6180 4762,7011 4908,7020 5054,6715 5199,7023 5345,6863 5490,7442 5636,7037 5781,7159 5927,7360 6072,7573 6218,7503 6363,7511 6509,7721 6654,7691 6800,7457 6946,7713 7091,7897 7237,7847 7382,7781 7528,7764 7673,8173 7819,8109 7964,8368 8110,8054 8255,8476 8401,8134 8546,8380 8692,8662 8837,8328 8983,8520 9129,8654 9274,8532 9420,8628 9565,8776 9711,8575 9856,8900 10002,8894 10147,8769 10293,8885 10438,8790 10584,9095 10729,8936 10875,8897 11021,9005 11166,8839 11311,9017 11456,9144 11602,9113 11747,9036 11893,9184 12038,8986 12184,9172 12329,9175 12475,9066 12620,9217 12766,9250 12912,9047 13057,9258 13203,9122 13348,9342 13494,9354 13639,9272 13785,9325 13930,9274 14076,9171 14221,9308 14367,9338 14512,9425 14658,9295 14803,9495 14949,9328 15095,9556 15240,9335 15386,9476 15531,9601 15677,9707 15822,9472 15968,9517 16113,9712 16259,9579 16404,9732 16550,9650 16695,9775 16841,9687 16987,9849 17132,9836 17278,9739 17423,9816"/>
 <text class="TextShape"><tspan class="TextParagraph" font-family="Liberation Sans, sans-serif" font-size="353px" font-weight="400"><tspan class="TextPosition" x="2778" y="14245"><tspan fill="rgb(0,0,0)" stroke="none">0</tspan></tspan></tspan></text>
 <text class="TextShape"><tspan class="TextParagraph" font-family="Liberation Sans, sans-serif" font-size="353px" font-weight="400"><tspan class="TextPosition" x="4048" y="14245"><tspan fill="rgb(0,0,0)" stroke="none">100</tspan></tspan></tspan></text>
 <text class="TextShape"><tspan class="TextParagraph" font-family="Liberation Sans, sans-serif" font-size="353px" font-weight="400"><tspan class="TextPosition" x="5503" y="14245"><tspan fill="rgb(0,0,0)" stroke="none">200</tspan></tspan></tspan></text>
 <text class="TextShape"><tspan class="TextParagraph" font-family="Liberation Sans, sans-serif" font-size="353px" font-weight="400"><tspan class="TextPosition" x="6959" y="14245"><tspan fill="rgb(0,0,0)" stroke="none">300</tspan></tspan></tspan></text>
 <text class="TextShape"><tspan class="TextParagraph" font-family="Liberation Sans, sans-serif" font-size="353px" font-weight="400"><tspan class="TextPosition" x="8414" y="14245"><tspan fill="rgb(0,0,0)" stroke="none">400</tspan></tspan></tspan></text>
 <text class="TextShape"><tspan class="TextParagraph" font-family="Liberation Sans, sans-serif" font-size="353px" font-weight="400"><tspan class="TextPosition" x="9869" y="14245"><tspan fill="rgb(0,0,0)" stroke="none">500</tspan></tspan></tspan></text>
 <text class="TextShape"><tspan class="TextParagraph" font-family="Liberation Sans, sans-serif" font-size="353px" font-weight="400"><tspan class="TextPosition" x="11325" y="14245"><tspan fill="rgb(0,0,0)" stroke="none">600</tspan></tspan></tspan></text>
 <text class="TextShape"><tspan class="TextParagraph" font-family="Liberation Sans, sans-serif" font-size="353px" font-weight="400"><tspan class="TextPosition" x="12780" y="14245"><tspan fill="rgb(0,0,0)" stroke="none">700</tspan></tspan></tspan></text>
 <text class="TextShape"><tspan class="TextParagraph" font-family="Liberation Sans, sans-serif" font-size="353px" font-weight="400"><tspan class="TextPosition" x="14235" y="14245"><tspan fill="rgb(0,0,0)" stroke="none">800</tspan></tspan></tspan></text>
 <text class="TextShape"><tspan class="TextParagraph" font-family="Liberation Sans, sans-serif" font-size="353px" font-weight="400"><tspan class="TextPosition" x="15691" y="14245"><tspan fill="rgb(0,0,0)" stroke="none">900</tspan></tspan></tspan></text>
 <text class="TextShape"><tspan class="TextParagraph" font-family="Liberation Sans, sans-serif" font-size="353px" font-weight="400"><tspan class="TextPosition" x="17053" y="14245"><tspan fill="rgb(0,0,0)" stroke="none">1000</tspan></tspan></tspan></text>
 <text class="TextShape"><tspan class="TextParagraph" font-family="Liberation Sans, sans-serif" font-size="353px" font-weight="400"><tspan class="TextPosition" x="18509" y="14245"><tspan fill="rgb(0,0,0)" stroke="none">1100</tspan></tspan></tspan></text>
 <text class="TextShape"><tspan class="TextParagraph" font-family="Liberation Sans, sans-serif" font-size="353px" font-weight="400"><tspan class="TextPosition" x="2436" y="13798"><tspan fill="rgb(0,0,0)" stroke="none">0</tspan></tspan></tspan></text>
 <text class="TextShape"><tspan class="TextParagraph" font-family="Liberation Sans, sans-serif" font-size="353px" font-weight="400"><tspan class="TextPosition" x="1695" y="11973"><tspan fill="rgb(0,0,0)" stroke="none">50000</tspan></tspan></tspan></text>
 <text class="TextShape"><tspan class="TextParagraph" font-family="Liberation Sans, sans-serif" font-size="353px" font-weight="400"><tspan class="TextPosition" x="1510" y="10149"><tspan fill="rgb(0,0,0)" stroke="none">100000</tspan></tspan></tspan></text>
 <text class="TextShape"><tspan class="TextParagraph" font-family="Liberation Sans, sans-serif" font-size="353px" font-weight="400"><tspan class="TextPosition" x="1510" y="8325"><tspan fill="rgb(0,0,0)" stroke="none">150000</tspan></tspan></tspan></text>
 <text class="TextShape"><tspan class="TextParagraph" font-family="Liberation Sans, sans-serif" font-size="353px" font-weight="400"><tspan class="TextPosition" x="1510" y="6500"><tspan fill="rgb(0,0,0)" stroke="none">200000</tspan></tspan></tspan></text>
 <text class="TextShape"><tspan class="TextParagraph" font-family="Liberation Sans, sans-serif" font-size="353px" font-weight="400"><tspan class="TextPosition" x="1510" y="4676"><tspan fill="rgb(0,0,0)" stroke="none">250000</tspan></tspan></tspan></text>
 <text class="TextShape"><tspan class="TextParagraph" font-family="Liberation Sans, sans-serif" font-size="353px" font-weight="400"><tspan class="TextPosition" x="1510" y="2852"><tspan fill="rgb(0,0,0)" stroke="none">300000</tspan></tspan></tspan></text>
 <text class="TextShape"><tspan class="TextParagraph" font-family="Liberation Sans, sans-serif" font-size="459px" font-weight="400"><tspan class="TextPosition" x="8681" y="983"><tspan fill="rgb(0,0,0)" stroke="none">Optane random insert rate</tspan></tspan></tspan></text>
 <text class="TextShape"><tspan class="TextParagraph" font-family="Liberation Sans, sans-serif" font-size="388px" font-weight="400"><tspan class="TextPosition" x="8694" y="2025"><tspan fill="rgb(0,0,0)" stroke="none">key: 8 bytes, value: 248 bytes</tspan></tspan></tspan></text>
 <path fill="none" stroke="rgb(0,69,134)" stroke-width="80" stroke-linejoin="round" d="M 19815,7559 L 20615,7559"/>
 <path fill="none" stroke="rgb(255,66,14)" stroke-width="80" stroke-linejoin="round" d="M 19815,8056 L 20615,8056"/>
 <text class="TextShape"><tspan class="TextParagraph" font-family="Liberation Sans, sans-serif" font-size="353px" font-weight="400"><tspan class="TextPosition" x="20715" y="7679"><tspan fill="rgb(0,0,0)" stroke="none">RocksDB</tspan></tspan></tspan></text>
 <text class="TextShape"><tspan class="TextParagraph" font-family="Liberation Sans, sans-serif" font-size="353px" font-weight="400"><tspan class="TextPosition" x="20715" y="8176"><tspan fill="rgb(0,0,0)" stroke="none">Tupl</tspan></tspan></tspan></text>
 <text class="TextShape"><tspan class="TextParagraph" font-family="Liberation Sans, sans-serif" font-size="318px" font-weight="400"><tspan class="TextPosition" x="7972" y="15024"><tspan fill="rgb(0,0,0)" stroke="none">Total number of records (millions)</tspan></tspan></tspan></text>
 <text class="TextShape" transform="translate(887,9752) rotate(-90) translate(-887,-9752)"><tspan class="TextParagraph" font-family="Liberation Sans, sans-serif" font-size="318px" font-weight="400"><tspan class="TextPosition" x="887" y="9752"><tspan fill="rgb(0,0,0)" stroke="none">Inserts per second</tspan></tspan></tspan></text>
</svg>