<?xml version="1.0" encoding="UTF-8"?>
<!DOCTYPE svg PUBLIC "-//W3C//DTD SVG 1.1//EN" "http://www.w3.org/Graphics/SVG/1.1/DTD/svg11.dtd">
<svg width="246mm" height="154mm" viewBox="0 0 24600 15400" version="1.1" xmlns="http://www.w3.org/2000/svg" stroke-width="28.222" stroke-linejoin="round" xml:space="preserve">
 <path fill="rgb(255,255,255)" stroke="none" d="M 12363,15432 L 65,15432 65,0 24661,0 24661,15432 12363,15432 Z"/>
 <path fill="none" stroke="rgb(179,179,179)" stroke-linejoin="round" d="M 11309,13496 L 2929,13496 2929,1730 19689,1730 19689,13496 11309,13496 Z"/>
 <path fill="none" stroke="rgb(179,179,179)" stroke-linejoin="round" d="M 2929,1728 L 2929,13495"/>
 <path fill="none" stroke="rgb(179,179,179)" stroke-linejoin="round" d="M 5024,1728 L 5024,13495"/>
 <path fill="none" stroke="rgb(179,179,179)" stroke-linejoin="round" d="M 7119,1728 L 7119,13495"/>
 <path fill="none" stroke="rgb(179,179,179)" stroke-linejoin="round" d="M 9214,1728 L 9214,13495"/>
 <path fill="none" stroke="rgb(179,179,179)" stroke-linejoin="round" d="M 11309,1728 L 11309,13495"/>
 <path fill="none" stroke="rgb(179,179,179)" stroke-linejoin="round" d="M 13403,1728 L 13403,13495"/>
 <path fill="none" stroke="rgb(179,179,179)" stroke-linejoin="round" d="M 15498,1728 L 15498,13495"/>
 <path fill="none" stroke="rgb(179,179,179)" stroke-linejoin="round" d="M 17593,1728 L 17593,13495"/>
 <path fill="none" stroke="rgb(179,179,179)" stroke-linejoin="round" d="M 19689,1728 L 19689,13495"/>
 <path fill="none" stroke="rgb(179,179,179)" stroke-linejoin="round" d="M 19689,13495 L 2929,13495"/>
 <path fill="none" stroke="rgb(179,179,179)" stroke-linejoin="round" d="M 19689,11814 L 2929,11814"/>
 <path fill="none" stroke="rgb(179,179,179)" stroke-linejoin="round" d="M 19689,10133 L 2929,10133"/>
 <path fill="none" stroke="rgb(179,179,179)" stroke-linejoin="round" d="M 19689,8452 L 2929,8452"/>
 <path fill="none" stroke="rgb(179,179,179)" stroke-linejoin="round" d="M 19689,6771 L 2929,6771"/>
 <path fill="none" stroke="rgb(179,179,179)" stroke-linejoin="round" d="M 19689,5090 L 2929,5090"/>
 <path fill="none" stroke="rgb(179,179,179)" stroke-linejoin="round" d="M 19689,3409 L 2929,3409"/>
 <path fill="none" stroke="rgb(179,179,179)" stroke-linejoin="round" d="M 19689,1728 L 2929,1728"/>
 <path fill="none" stroke="rgb(179,179,179)" stroke-linejoin="round" d="M 2929,13645 L 2929,13495"/>
 <path fill="none" stroke="rgb(179,179,179)" stroke-linejoin="round" d="M 2929,13645 L 2929,13495"/>
 <path fill="none" stroke="rgb(179,179,179)" stroke-linejoin="round" d="M 5024,13645 L 5024,13495"/>
 <path fill="none" stroke="rgb(179,179,179)" stroke-linejoin="round" d="M 5024,13645 L 5024,13495"/>
 <path fill="none" stroke="rgb(179,179,179)" stroke-linejoin="round" d="M 7119,13645 L 7119,13495"/>
 <path fill="none" stroke="rgb(179,179,179)" stroke-linejoin="round" d="M 7119,13645 L 7119,13495"/>
 <path fill="none" stroke="rgb(179,179,179)" stroke-linejoin="round" d="M 9214,13645 L 9214,13495"/>
 <path fill="none" stroke="rgb(179,179,179)" stroke-linejoin="round" d="M 9214,13645 L 9214,13495"/>
 <path fill="none" stroke="rgb(179,179,179)" stroke-linejoin="round" d="M 11309,13645 L 11309,13495"/>
 <path fill="none" stroke="rgb(179,179,179)" stroke-linejoin="round" d="M 11309,13645 L 11309,13495"/>
 <path fill="none" stroke="rgb(179,179,179)" stroke-linejoin="round" d="M 13403,13645 L 13403,13495"/>
 <path fill="none" stroke="rgb(179,179,179)" stroke-linejoin="round" d="M 13403,13645 L 13403,13495"/>
 <path fill="none" stroke="rgb(179,179,179)" stroke-linejoin="round" d="M 15498,13645 L 15498,13495"/>
 <path fill="none" stroke="rgb(179,179,179)" stroke-linejoin="round" d="M 15498,13645 L 15498,13495"/>
 <path fill="none" stroke="rgb(179,179,179)" stroke-linejoin="round" d="M 17593,13645 L 17593,13495"/>
 <path fill="none" stroke="rgb(179,179,179)" stroke-linejoin="round" d="M 17593,13645 L 17593,13495"/>
 <path fill="none" stroke="rgb(179,179,179)" stroke-linejoin="round" d="M 19689,13645 L 19689,13495"/>
 <path fill="none" stroke="rgb(179,179,179)" stroke-linejoin="round" d="M 19689,13645 L 19689,13495"/>
 <path fill="none" stroke="rgb(179,179,179)" stroke-linejoin="round" d="M 2929,13495 L 19689,13495"/>
 <path fill="none" stroke="rgb(179,179,179)" stroke-linejoin="round" d="M 2779,13495 L 2929,13495"/>
 <path fill="none" stroke="rgb(179,179,179)" stroke-linejoin="round" d="M 2779,13495 L 2929,13495"/>
 <path fill="none" stroke="rgb(179,179,179)" stroke-linejoin="round" d="M 2779,11814 L 2929,11814"/>
 <path fill="none" stroke="rgb(179,179,179)" stroke-linejoin="round" d="M 2779,11814 L 2929,11814"/>
 <path fill="none" stroke="rgb(179,179,179)" stroke-linejoin="round" d="M 2779,10133 L 2929,10133"/>
 <path fill="none" stroke="rgb(179,179,179)" stroke-linejoin="round" d="M 2779,10133 L 2929,10133"/>
 <path fill="none" stroke="rgb(179,179,179)" stroke-linejoin="round" d="M 2779,8452 L 2929,8452"/>
 <path fill="none" stroke="rgb(179,179,179)" stroke-linejoin="round" d="M 2779,8452 L 2929,8452"/>
 <path fill="none" stroke="rgb(179,179,179)" stroke-linejoin="round" d="M 2779,6771 L 2929,6771"/>
 <path fill="none" stroke="rgb(179,179,179)" stroke-linejoin="round" d="M 2779,6771 L 2929,6771"/>
 <path fill="none" stroke="rgb(179,179,179)" stroke-linejoin="round" d="M 2779,5090 L 2929,5090"/>
 <path fill="none" stroke="rgb(179,179,179)" stroke-linejoin="round" d="M 2779,5090 L 2929,5090"/>
 <path fill="none" stroke="rgb(179,179,179)" stroke-linejoin="round" d="M 2779,3409 L 2929,3409"/>
 <path fill="none" stroke="rgb(179,179,179)" stroke-linejoin="round" d="M 2779,3409 L 2929,3409"/>
 <path fill="none" stroke="rgb(179,179,179)" stroke-linejoin="round" d="M 2779,1728 L 2929,1728"/>
 <path fill="none" stroke="rgb(179,179,179)" stroke-linejoin="round" d="M 2779,1728 L 2929,1728"/>
 <path fill="none" stroke="rgb(179,179,179)" stroke-linejoin="round" d="M 2929,13495 L 2929,1728"/>
 <path fill="none" stroke="rgb(0,69,134)" stroke-width="80" stroke-linejoin="round" d="M 3348,11720 L 3389,11760 3431,11531 3473,11160 3515,10629 3557,10837 3599,10827 3641,10747 3683,11221 3725,11925 3767,11742 3808,11397 3850,10900 3892,10923 3934,10924 3976,10943 4018,10980 4060,10987 4102,11029 4144,11038 4186,11050 4227,11070 4269,11075 4311,11085 4353,11104 4395,11115 4437,11135 4479,11133 4521,11159 4563,11161 4605,11187 4647,11224 4688,11249 4730,11221 4772,11231 4814,11224 4856,11240 4898,11312 4940,11366 4982,11344 5024,11280 5066,11269 5107,11291 5149,11297 5191,11333 5233,11458 5275,11333 5317,11409 5359,11482 5401,11389 5443,11421 5485,11405 5526,11387 5568,11551 5610,11579 5652,11384 5694,11420 5736,11442 5778,11599 5820,11545 5862,11502 5904,11511 5945,11589 5987,11542 6029,11650 6071,11680 6113,11577 6155,11662 6197,11645 6239,11627 6281,11857 6323,11774 6365,11680 6406,11932 6448,12224 6490,12385 6532,12175 6574,11881 6616,11829 6658,11987 6700,11943 6742,12069 6784,12007 6825,11870 6867,11903 6909,12140 6951,12245 6993,11917 7035,11949 7077,12000 7119,12066 7161,11967 7203,12143 7244,12160 7286,12033 7328,12039 7370,12008 7412,12048 7454,12036 7496,12148 7538,12181 7580,11878 7622,12002 7663,12229 7705,12271 7747,12143 7789,12059 7831,12134 7873,12195 7915,12160 7957,12170 7999,12350 8041,12275 8083,12408 8124,12442 8166,12338 8208,12245 8250,12218 8292,12254 8334,12296 8376,12501 8418,12667 8460,12619 8502,12663 8543,12589 8585,12616 8627,12617 8669,12524 8711,12471 8753,12504 8795,12523 8837,12670 8879,12840 8921,12839 8962,12662 9004,12449 9046,12409 9088,12520 9130,12530 9172,12516 9214,12682 9256,12843 9298,12723 9340,12692 9381,12625 9423,12545 9465,12581 9507,12707 9549,12720 9591,12881 9633,12776 9675,12821 9717,12820 9759,12657 9801,12632 9842,12692 9884,12642 9926,12781 9968,12584 10010,12642 10052,12679 10094,12749 10136,12882 10178,12854 10220,12762 10261,12746 10303,12686 10345,12690 10387,12667 10429,12556 10471,12592 10513,12713 10555,12794 10597,12910 10639,12825 10680,12809 10722,12804 10764,12732 10806,12592 10848,12743 10890,12835 10932,12758 10974,12762 11016,12757 11058,12763 11099,12832 11141,12772 11183,12865 11225,12768 11267,12829 11309,12891 11351,12841 11393,12739 11435,12693 11477,12691 11519,12829 11560,12874 11602,12739 11644,12747 11686,12771 11728,12808 11770,12923 11812,12860 11854,12798 11896,12732 11938,12743 11979,12755 12021,12739 12063,12655 12105,12842 12147,12942 12189,12935 12231,12808 12273,12753 12315,12857 12357,12855 12397,12807 12439,12674 12481,12685 12523,12702 12565,12867 12607,12879 12649,12832 12691,12866 12733,12848 12775,12891 12816,12825 12858,12769 12900,12749 12942,12751 12984,12795 13026,12894 13068,12785 13110,12659 13152,12691 13194,12776 13236,12812 13277,12764 13319,12785 13361,12773 13403,12835 13445,12809 13487,12730 13529,12822 13571,12810 13613,12843 13655,12839 13696,12802 13738,12842 13780,12856 13822,12744 13864,12760 13906,12815 13948,12761 13990,12760 14032,12788 14074,12753 14115,12658 14157,12759 14199,12832 14241,12822 14283,12874 14325,12858 14367,12855 14409,12823 14451,12751 14493,12752 14534,12816 14576,12864 14618,12776 14660,12737 14702,12722 14744,12821 14786,12909 14828,12780 14870,12756 14912,12794 14954,12790 14995,12782 15037,12821 15079,12787 15121,12702 15163,12742 15205,12832 15247,12772 15289,12809 15331,12798 15373,12850 15414,12835 15456,12796 15498,12801 15540,12787 15582,12762 15624,12828 15666,12799 15708,12863 15750,12813 15792,12743 15833,12781 15875,12833 15917,12786 15959,12789 16001,12857 16043,12800 16085,12890 16127,12881 16169,12868 16211,12825 16252,12779 16294,12795 16336,12730 16378,12691 16420,12736 16462,12694 16504,12697 16546,12730 16588,12755 16630,12696 16672,12879 16713,12811 16755,12747 16797,12713 16839,12793 16881,12811 16923,12758 16965,12728 17007,12708 17049,12769 17091,12784 17132,12728 17174,12715 17216,12785 17258,12865 17300,12857 17342,12782 17384,12769 17426,12816 17468,12774 17510,12881 17551,12876 17593,12783 17635,12657 17677,12792 17719,12859 17761,12867 17803,12858"/>
 <path fill="none" stroke="rgb(153,102,204)" stroke-width="80" stroke-linejoin="round" d="M 3348,9557 L 3389,9738 3431,9880 3473,10001 3515,10105 3557,10171 3599,10241 3641,10304 3683,10355 3725,10393 3767,10435 3808,10478 3850,10505 3892,10538 3934,10548 3976,10566 4018,10575 4060,10587 4102,10607 4144,10627 4186,10643 4227,10643 4269,10649 4311,10652 4353,10660 4395,10674 4437,10678 4479,10678 4521,10689 4563,10686 4605,10694 4647,10710 4688,10711 4730,10714 4772,10717 4814,10740 4856,10739 4898,10743 4940,10755 4982,10781 5024,10782 5066,10781 5107,10788 5149,10811 5191,10816 5233,10809 5275,10822 5317,10825 5359,10822 5401,10829 5443,10845 5485,10836 5526,10842 5568,10830 5610,10848 5652,10863 5694,10852 5736,10853 5778,10858 5820,10859 5862,10874 5904,10874 5945,10870 5987,10865 6029,10867 6071,10874 6113,10880 6155,10890 6197,10891 6239,10896 6281,10895 6323,10893 6365,10900 6406,10898 6448,10907 6490,10908 6532,10909 6574,10905 6616,10906 6658,10910 6700,10910 6742,10924 6784,10926 6825,10930 6867,10930 6909,10934 6951,10940 6993,10933 7035,10929 7077,10924 7119,10921 7161,10916 7203,10919 7244,10918 7286,10923 7328,10914 7370,10927 7412,10928 7454,10929 7496,10929 7538,10925 7580,10936 7622,10923 7663,10923 7705,10915 7747,10920 7789,10918 7831,10923 7873,10919 7915,10914 7957,10925 7999,10922 8041,10917 8083,10910 8124,10918 8166,10912 8208,10913 8250,10925 8292,10915 8334,10927 8376,10923 8418,10914 8460,10921 8502,10914 8543,10923 8585,10911 8627,10910 8669,10908 8711,10906 8753,10906 8795,10903 8837,10903 8879,10905 8921,10894 8962,10890 9004,10894 9046,10892 9088,10891 9130,10892 9172,10885 9214,10889 9256,10885 9298,10876 9340,10878 9381,10874 9423,10874 9465,10867 9507,10874 9549,10867 9591,10864 9633,10872 9675,10868 9717,10867 9759,10865 9801,10863 9842,10859 9884,10860 9926,10852 9968,10850 10010,10861 10052,10855 10094,10846 10136,10845 10178,10843 10220,10848 10261,10849 10303,10831 10345,10845 10387,10827 10429,10839 10471,10832 10513,10831 10555,10839 10597,10832 10639,10827 10680,10834 10722,10835 10764,10829 10806,10823 10848,10819 10890,10821 10932,10820 10974,10816 11016,10816 11058,10811 11099,10814 11141,10807 11183,10805 11225,10808 11267,10808 11309,10802 11351,10804 11393,10800 11435,10787 11477,10793 11519,10793 11560,10787 11602,10794 11644,10788 11686,10784 11728,10793 11770,10793 11812,10788 11854,10784 11896,10792 11938,10791 11979,10783 12021,10783 12063,10788 12105,10784 12147,10784 12189,10782 12231,10779 12273,10774 12315,10780 12357,10784 12397,10779 12439,10781 12481,10782 12523,10779 12565,10766 12607,10767 12649,10772 12691,10765 12733,10771 12775,10769 12816,10764 12858,10764 12900,10763 12942,10760 12984,10755 13026,10754 13068,10747 13110,10748 13152,10747 13194,10740 13236,10742 13277,10737 13319,10738 13361,10740 13403,10737 13445,10738 13487,10745 13529,10738 13571,10739 13613,10745 13655,10739 13696,10742 13738,10746 13780,10739 13822,10724 13864,10733 13906,10736 13948,10723 13990,10731 14032,10724 14074,10716 14115,10720 14157,10714 14199,10723 14241,10723 14283,10711 14325,10720 14367,10714 14409,10714 14451,10704 14493,10719 14534,10713 14576,10714 14618,10712 14660,10709 14702,10704 14744,10712 14786,10713 14828,10707 14870,10705 14912,10713 14954,10700 14995,10710 15037,10703 15079,10708 15121,10698 15163,10708 15205,10696 15247,10697 15289,10710 15331,10699 15373,10706 15414,10698 15456,10693 15498,10695 15540,10706 15582,10699 15624,10696 15666,10695 15708,10709 15750,10697 15792,10692 15833,10695 15875,10695 15917,10695 15959,10705 16001,10691 16043,10693 16085,10683 16127,10686 16169,10697 16211,10686 16252,10692 16294,10677 16336,10690 16378,10688 16420,10676 16462,10689 16504,10689 16546,10693 16588,10692 16630,10681 16672,10689 16713,10688 16755,10696 16797,10690 16839,10677 16881,10684 16923,10679 16965,10683 17007,10683 17049,10685 17091,10691 17132,10679 17174,10699 17216,10678 17258,10691 17300,10675 17342,10683 17384,10678 17426,10679 17468,10677 17510,10683 17551,10680 17593,10679 17635,10681 17677,10678 17719,10687 17761,10672 17803,10681"/>
 <path fill="none" stroke="rgb(255,66,14)" stroke-width="80" stroke-linejoin="round" d="M 3348,3778 L 3389,4466 3431,4907 3473,5289 3515,5520 3557,5741 3599,5935 3641,6086 3683,6202 3725,6320 3767,6423 3808,6486 3850,6548 3892,6592 3934,6637 3976,6671 4018,6704 4060,6738 4102,6768 4144,6800 4186,6817 4227,6832 4269,6850 4311,6863 4353,6910 4395,6888 4437,6881 4479,6843 4521,6843 4563,6849 4605,6836 4647,6835 4688,6839 4730,6819 4772,6809 4814,6817 4856,6815 4898,6819 4940,6811 4982,6810 5024,6808 5066,6795 5107,6807 5149,6803 5191,6784 5233,6789 5275,6787 5317,6772 5359,6787 5401,6770 5443,6771 5485,6770 5526,6780 5568,6775 5610,6757 5652,6748 5694,6745 5736,6757 5778,6752 5820,6747 5862,6753 5904,6745 5945,6730 5987,6728 6029,6716 6071,6701 6113,6709 6155,6693 6197,6692 6239,6676 6281,6671 6323,6659 6365,6655 6406,6653 6448,6664 6490,6668 6532,6635 6574,6619 6616,6615 6658,6630 6700,6618 6742,6599 6784,6612 6825,6601 6867,6585 6909,6592 6951,6582 6993,6578 7035,6579 7077,6577 7119,6567 7161,6564 7203,6560 7244,6559 7286,6548 7328,6548 7370,6563 7412,6539 7454,6546 7496,6538 7538,6539 7580,6531 7622,6544 7663,6532 7705,6530 7747,6531 7789,6521 7831,6518 7873,6519 7915,6521 7957,6509 7999,6502 8041,6511 8083,6504 8124,6500 8166,6495 8208,6484 8250,6483 8292,6477 8334,6476 8376,6471 8418,6475 8460,6470 8502,6464 8543,6452 8585,6474 8627,6460 8669,6451 8711,6444 8753,6447 8795,6446 8837,6453 8879,6439 8921,6438 8962,6450 9004,6437 9046,6457 9088,6428 9130,6416 9172,6481 9214,6556 9256,6538 9298,6528 9340,6537 9381,6538 9423,6537 9465,6550 9507,6526 9549,6532 9591,6544 9633,6514 9675,6524 9717,6529 9759,6517 9801,6535 9842,6534 9884,6525 9926,6535 9968,6542 10010,6551 10052,6529 10094,6547 10136,6556 10178,6558 10220,6522 10261,6523 10303,6511 10345,6512 10387,6510 10429,6506 10471,6517 10513,6516 10555,6507 10597,6507 10639,6500 10680,6417 10722,6382 10764,6378 10806,6368 10848,6380 10890,6379 10932,6384 10974,6380 11016,6372 11058,6378 11099,6386 11141,6401 11183,6372 11225,6363 11267,6361 11309,6356 11351,6377 11393,6363 11435,6362 11477,6369 11519,6357 11560,6375 11602,6371 11644,6354 11686,6354 11728,6376 11770,6357 11812,6382 11854,6367 11896,6372 11938,6378 11979,6378 12021,6377 12063,6418 12105,6387 12147,6355 12189,6371 12231,6364 12273,6360 12315,6377 12357,6363 12397,6371 12439,6371 12481,6367 12523,6357 12565,6361 12607,6373 12649,6364 12691,6353 12733,6367 12775,6360 12816,6350 12858,6357 12900,6367 12942,6363 12984,6366 13026,6374 13068,6359 13110,6343 13152,6346 13194,6349 13236,6341 13277,6326 13319,6335 13361,6332 13403,6335 13445,6336 13487,6340 13529,6324 13571,6331 13613,6342 13655,6341 13696,6327 13738,6337 13780,6338 13822,6353 13864,6343 13906,6365 13948,6385 13990,6381 14032,6354 14074,6352 14115,6350 14157,6368 14199,6358 14241,6343 14283,6335 14325,6344 14367,6341 14409,6337 14451,6349 14493,6373 14534,6360 14576,6359 14618,6349 14660,6355 14702,6366 14744,6354 14786,6360 14828,6359 14870,6395 14912,6348 14954,6343 14995,6324 15037,6330 15079,6313 15121,6316 15163,6319 15205,6325 15247,6316 15289,6319 15331,6317 15373,6321 15414,6328 15456,6314 15498,6319 15540,6316 15582,6320 15624,6319 15666,6321 15708,6328 15750,6345 15792,6326 15833,6346 15875,6354 15917,6353 15959,6339 16001,6337 16043,6329 16085,6332 16127,6332 16169,6337 16211,6337 16252,6327 16294,6314 16336,6333 16378,6331 16420,6317 16462,6319 16504,6320 16546,6334 16588,6319 16630,6336 16672,6322 16713,6339 16755,6337 16797,6345 16839,6338 16881,6325 16923,6326 16965,6342 17007,6316 17049,6327 17091,6321 17132,6331 17174,6328 17216,6331 17258,6313 17300,6319 17342,6321 17384,6316 17426,6320 17468,6315 17510,6320 17551,6332 17593,6326 17635,6327 17677,6327 17719,6316 17761,6343 17803,6335"/>
 <text class="TextShape"><tspan class="TextParagraph" font-family="Liberation Sans, sans-serif" font-size="353px" font-weight="400"><tspan class="TextPosition" x="2836" y="14063"><tspan fill="rgb(0,0,0)" stroke="none">0</tspan></tspan></tspan></text>
 <text class="TextShape"><tspan class="TextParagraph" font-family="Liberation Sans, sans-serif" font-size="353px" font-weight="400"><tspan class="TextPosition" x="4653" y="14063"><tspan fill="rgb(0,0,0)" stroke="none">5000</tspan></tspan></tspan></text>
 <text class="TextShape"><tspan class="TextParagraph" font-family="Liberation Sans, sans-serif" font-size="353px" font-weight="400"><tspan class="TextPosition" x="6656" y="14063"><tspan fill="rgb(0,0,0)" stroke="none">10000</tspan></tspan></tspan></text>
 <text class="TextShape"><tspan class="TextParagraph" font-family="Liberation Sans, sans-serif" font-size="353px" font-weight="400"><tspan class="TextPosition" x="8751" y="14063"><tspan fill="rgb(0,0,0)" stroke="none">15000</tspan></tspan></tspan></text>
 <text class="TextShape"><tspan class="TextParagraph" font-family="Liberation Sans, sans-serif" font-size="353px" font-weight="400"><tspan class="TextPosition" x="10846" y="14063"><tspan fill="rgb(0,0,0)" stroke="none">20000</tspan></tspan></tspan></text>
 <text class="TextShape"><tspan class="TextParagraph" font-family="Liberation Sans, sans-serif" font-size="353px" font-weight="400"><tspan class="TextPosition" x="12941" y="14063"><tspan fill="rgb(0,0,0)" stroke="none">25000</tspan></tspan></tspan></text>
 <text class="TextShape"><tspan class="TextParagraph" font-family="Liberation Sans, sans-serif" font-size="353px" font-weight="400"><tspan class="TextPosition" x="15036" y="14063"><tspan fill="rgb(0,0,0)" stroke="none">30000</tspan></tspan></tspan></text>
 <text class="TextShape"><tspan class="TextParagraph" font-family="Liberation Sans, sans-serif" font-size="353px" font-weight="400"><tspan class="TextPosition" x="17131" y="14063"><tspan fill="rgb(0,0,0)" stroke="none">35000</tspan></tspan></tspan></text>
 <text class="TextShape"><tspan class="TextParagraph" font-family="Liberation Sans, sans-serif" font-size="353px" font-weight="400"><tspan class="TextPosition" x="19227" y="14063"><tspan fill="rgb(0,0,0)" stroke="none">40000</tspan></tspan></tspan></text>
 <text class="TextShape"><tspan class="TextParagraph" font-family="Liberation Sans, sans-serif" font-size="353px" font-weight="400"><tspan class="TextPosition" x="2494" y="13616"><tspan fill="rgb(0,0,0)" stroke="none">0</tspan></tspan></tspan></text>
 <text class="TextShape"><tspan class="TextParagraph" font-family="Liberation Sans, sans-serif" font-size="353px" font-weight="400"><tspan class="TextPosition" x="1753" y="11935"><tspan fill="rgb(0,0,0)" stroke="none">50000</tspan></tspan></tspan></text>
 <text class="TextShape"><tspan class="TextParagraph" font-family="Liberation Sans, sans-serif" font-size="353px" font-weight="400"><tspan class="TextPosition" x="1568" y="10254"><tspan fill="rgb(0,0,0)" stroke="none">100000</tspan></tspan></tspan></text>
 <text class="TextShape"><tspan class="TextParagraph" font-family="Liberation Sans, sans-serif" font-size="353px" font-weight="400"><tspan class="TextPosition" x="1568" y="8573"><tspan fill="rgb(0,0,0)" stroke="none">150000</tspan></tspan></tspan></text>
 <text class="TextShape"><tspan class="TextParagraph" font-family="Liberation Sans, sans-serif" font-size="353px" font-weight="400"><tspan class="TextPosition" x="1568" y="6891"><tspan fill="rgb(0,0,0)" stroke="none">200000</tspan></tspan></tspan></text>
 <text class="TextShape"><tspan class="TextParagraph" font-family="Liberation Sans, sans-serif" font-size="353px" font-weight="400"><tspan class="TextPosition" x="1568" y="5210"><tspan fill="rgb(0,0,0)" stroke="none">250000</tspan></tspan></tspan></text>
 <text class="TextShape"><tspan class="TextParagraph" font-family="Liberation Sans, sans-serif" font-size="353px" font-weight="400"><tspan class="TextPosition" x="1568" y="3529"><tspan fill="rgb(0,0,0)" stroke="none">300000</tspan></tspan></tspan></text>
 <text class="TextShape"><tspan class="TextParagraph" font-family="Liberation Sans, sans-serif" font-size="353px" font-weight="400"><tspan class="TextPosition" x="1568" y="1848"><tspan fill="rgb(0,0,0)" stroke="none">350000</tspan></tspan></tspan></text>
 <text class="TextShape"><tspan class="TextParagraph" font-family="Liberation Sans, sans-serif" font-size="459px" font-weight="400"><tspan class="TextPosition" x="9571" y="979"><tspan fill="rgb(0,0,0)" stroke="none">Random counter increments</tspan></tspan></tspan></text>
 <path fill="none" stroke="rgb(255,66,14)" stroke-width="80" stroke-linejoin="round" d="M 20761,7217 L 21561,7217"/>
 <path fill="none" stroke="rgb(153,102,204)" stroke-width="80" stroke-linejoin="round" d="M 20761,7715 L 21561,7715"/>
 <path fill="none" stroke="rgb(0,69,134)" stroke-width="80" stroke-linejoin="round" d="M 20761,8212 L 21561,8212"/>
 <text class="TextShape"><tspan class="TextParagraph" font-family="Liberation Sans, sans-serif" font-size="353px" font-weight="400"><tspan class="TextPosition" x="21661" y="7337"><tspan fill="rgb(0,0,0)" stroke="none">Tupl/Optane</tspan></tspan></tspan></text>
 <text class="TextShape"><tspan class="TextParagraph" font-family="Liberation Sans, sans-serif" font-size="353px" font-weight="400"><tspan class="TextPosition" x="21661" y="7834"><tspan fill="rgb(0,0,0)" stroke="none">Tupl/960pro</tspan></tspan></tspan></text>
 <text class="TextShape"><tspan class="TextParagraph" font-family="Liberation Sans, sans-serif" font-size="353px" font-weight="400"><tspan class="TextPosition" x="21661" y="8332"><tspan fill="rgb(0,0,0)" stroke="none">RocksDB/Optane</tspan></tspan></tspan></text>
 <text class="TextShape"><tspan class="TextParagraph" font-family="Liberation Sans, sans-serif" font-size="318px" font-weight="400"><tspan class="TextPosition" x="8228" y="14838"><tspan fill="rgb(0,0,0)" stroke="none">Total number of operations (millions)</tspan></tspan></tspan></text>
 <text class="TextShape" transform="translate(902,9477) rotate(-90) translate(-902,-9477)"><tspan class="TextParagraph" font-family="Liberation Sans, sans-serif" font-size="318px" font-weight="400"><tspan class="TextPosition" x="902" y="9477"><tspan fill="rgb(0,0,0)" stroke="none">Operations per second</tspan></tspan></tspan></text>
</svg>