<?xml version="1.0" encoding="UTF-8"?>
<!DOCTYPE svg PUBLIC "-//W3C//DTD SVG 1.1//EN" "http://www.w3.org/Graphics/SVG/1.1/DTD/svg11.dtd">
<svg width="246mm" height="156mm" viewBox="0 0 24600 15600" version="1.1" xmlns="http://www.w3.org/2000/svg" stroke-width="28.222" stroke-linejoin="round" xml:space="preserve">
 <path fill="rgb(255,255,255)" stroke="none" d="M 12298,15565 L 0,15565 0,0 24596,0 24596,15565 12298,15565 Z"/>
 <path fill="none" stroke="rgb(179,179,179)" stroke-linejoin="round" d="M 11059,13626 L 2679,13626 2679,1737 19439,1737 19439,13626 11059,13626 Z"/>
 <path fill="none" stroke="rgb(179,179,179)" stroke-linejoin="round" d="M 2679,1736 L 2679,13625"/>
 <path fill="none" stroke="rgb(179,179,179)" stroke-linejoin="round" d="M 4774,1736 L 4774,13625"/>
 <path fill="none" stroke="rgb(179,179,179)" stroke-linejoin="round" d="M 6869,1736 L 6869,13625"/>
 <path fill="none" stroke="rgb(179,179,179)" stroke-linejoin="round" d="M 8964,1736 L 8964,13625"/>
 <path fill="none" stroke="rgb(179,179,179)" stroke-linejoin="round" d="M 11059,1736 L 11059,13625"/>
 <path fill="none" stroke="rgb(179,179,179)" stroke-linejoin="round" d="M 13153,1736 L 13153,13625"/>
 <path fill="none" stroke="rgb(179,179,179)" stroke-linejoin="round" d="M 15248,1736 L 15248,13625"/>
 <path fill="none" stroke="rgb(179,179,179)" stroke-linejoin="round" d="M 17343,1736 L 17343,13625"/>
 <path fill="none" stroke="rgb(179,179,179)" stroke-linejoin="round" d="M 19439,1736 L 19439,13625"/>
 <path fill="none" stroke="rgb(179,179,179)" stroke-linejoin="round" d="M 19439,13625 L 2679,13625"/>
 <path fill="none" stroke="rgb(179,179,179)" stroke-linejoin="round" d="M 19439,12436 L 2679,12436"/>
 <path fill="none" stroke="rgb(179,179,179)" stroke-linejoin="round" d="M 19439,11247 L 2679,11247"/>
 <path fill="none" stroke="rgb(179,179,179)" stroke-linejoin="round" d="M 19439,10058 L 2679,10058"/>
 <path fill="none" stroke="rgb(179,179,179)" stroke-linejoin="round" d="M 19439,8869 L 2679,8869"/>
 <path fill="none" stroke="rgb(179,179,179)" stroke-linejoin="round" d="M 19439,7681 L 2679,7681"/>
 <path fill="none" stroke="rgb(179,179,179)" stroke-linejoin="round" d="M 19439,6492 L 2679,6492"/>
 <path fill="none" stroke="rgb(179,179,179)" stroke-linejoin="round" d="M 19439,5303 L 2679,5303"/>
 <path fill="none" stroke="rgb(179,179,179)" stroke-linejoin="round" d="M 19439,4114 L 2679,4114"/>
 <path fill="none" stroke="rgb(179,179,179)" stroke-linejoin="round" d="M 19439,2925 L 2679,2925"/>
 <path fill="none" stroke="rgb(179,179,179)" stroke-linejoin="round" d="M 19439,1736 L 2679,1736"/>
 <path fill="none" stroke="rgb(179,179,179)" stroke-linejoin="round" d="M 2679,13775 L 2679,13625"/>
 <path fill="none" stroke="rgb(179,179,179)" stroke-linejoin="round" d="M 2679,13775 L 2679,13625"/>
 <path fill="none" stroke="rgb(179,179,179)" stroke-linejoin="round" d="M 4774,13775 L 4774,13625"/>
 <path fill="none" stroke="rgb(179,179,179)" stroke-linejoin="round" d="M 4774,13775 L 4774,13625"/>
 <path fill="none" stroke="rgb(179,179,179)" stroke-linejoin="round" d="M 6869,13775 L 6869,13625"/>
 <path fill="none" stroke="rgb(179,179,179)" stroke-linejoin="round" d="M 6869,13775 L 6869,13625"/>
 <path fill="none" stroke="rgb(179,179,179)" stroke-linejoin="round" d="M 8964,13775 L 8964,13625"/>
 <path fill="none" stroke="rgb(179,179,179)" stroke-linejoin="round" d="M 8964,13775 L 8964,13625"/>
 <path fill="none" stroke="rgb(179,179,179)" stroke-linejoin="round" d="M 11059,13775 L 11059,13625"/>
 <path fill="none" stroke="rgb(179,179,179)" stroke-linejoin="round" d="M 11059,13775 L 11059,13625"/>
 <path fill="none" stroke="rgb(179,179,179)" stroke-linejoin="round" d="M 13153,13775 L 13153,13625"/>
 <path fill="none" stroke="rgb(179,179,179)" stroke-linejoin="round" d="M 13153,13775 L 13153,13625"/>
 <path fill="none" stroke="rgb(179,179,179)" stroke-linejoin="round" d="M 15248,13775 L 15248,13625"/>
 <path fill="none" stroke="rgb(179,179,179)" stroke-linejoin="round" d="M 15248,13775 L 15248,13625"/>
 <path fill="none" stroke="rgb(179,179,179)" stroke-linejoin="round" d="M 17343,13775 L 17343,13625"/>
 <path fill="none" stroke="rgb(179,179,179)" stroke-linejoin="round" d="M 17343,13775 L 17343,13625"/>
 <path fill="none" stroke="rgb(179,179,179)" stroke-linejoin="round" d="M 19439,13775 L 19439,13625"/>
 <path fill="none" stroke="rgb(179,179,179)" stroke-linejoin="round" d="M 19439,13775 L 19439,13625"/>
 <path fill="none" stroke="rgb(179,179,179)" stroke-linejoin="round" d="M 2679,13625 L 19439,13625"/>
 <path fill="none" stroke="rgb(179,179,179)" stroke-linejoin="round" d="M 2529,13625 L 2679,13625"/>
 <path fill="none" stroke="rgb(179,179,179)" stroke-linejoin="round" d="M 2529,13625 L 2679,13625"/>
 <path fill="none" stroke="rgb(179,179,179)" stroke-linejoin="round" d="M 2529,12436 L 2679,12436"/>
 <path fill="none" stroke="rgb(179,179,179)" stroke-linejoin="round" d="M 2529,12436 L 2679,12436"/>
 <path fill="none" stroke="rgb(179,179,179)" stroke-linejoin="round" d="M 2529,11247 L 2679,11247"/>
 <path fill="none" stroke="rgb(179,179,179)" stroke-linejoin="round" d="M 2529,11247 L 2679,11247"/>
 <path fill="none" stroke="rgb(179,179,179)" stroke-linejoin="round" d="M 2529,10058 L 2679,10058"/>
 <path fill="none" stroke="rgb(179,179,179)" stroke-linejoin="round" d="M 2529,10058 L 2679,10058"/>
 <path fill="none" stroke="rgb(179,179,179)" stroke-linejoin="round" d="M 2529,8869 L 2679,8869"/>
 <path fill="none" stroke="rgb(179,179,179)" stroke-linejoin="round" d="M 2529,8869 L 2679,8869"/>
 <path fill="none" stroke="rgb(179,179,179)" stroke-linejoin="round" d="M 2529,7681 L 2679,7681"/>
 <path fill="none" stroke="rgb(179,179,179)" stroke-linejoin="round" d="M 2529,7681 L 2679,7681"/>
 <path fill="none" stroke="rgb(179,179,179)" stroke-linejoin="round" d="M 2529,6491 L 2679,6491"/>
 <path fill="none" stroke="rgb(179,179,179)" stroke-linejoin="round" d="M 2529,6491 L 2679,6491"/>
 <path fill="none" stroke="rgb(179,179,179)" stroke-linejoin="round" d="M 2529,5303 L 2679,5303"/>
 <path fill="none" stroke="rgb(179,179,179)" stroke-linejoin="round" d="M 2529,5303 L 2679,5303"/>
 <path fill="none" stroke="rgb(179,179,179)" stroke-linejoin="round" d="M 2529,4114 L 2679,4114"/>
 <path fill="none" stroke="rgb(179,179,179)" stroke-linejoin="round" d="M 2529,4114 L 2679,4114"/>
 <path fill="none" stroke="rgb(179,179,179)" stroke-linejoin="round" d="M 2529,2925 L 2679,2925"/>
 <path fill="none" stroke="rgb(179,179,179)" stroke-linejoin="round" d="M 2529,2925 L 2679,2925"/>
 <path fill="none" stroke="rgb(179,179,179)" stroke-linejoin="round" d="M 2529,1736 L 2679,1736"/>
 <path fill="none" stroke="rgb(179,179,179)" stroke-linejoin="round" d="M 2529,1736 L 2679,1736"/>
 <path fill="none" stroke="rgb(179,179,179)" stroke-linejoin="round" d="M 2679,13625 L 2679,1736"/>
 <path fill="none" stroke="rgb(255,66,14)" stroke-width="80" stroke-linejoin="round" d="M 3098,2462 L 3139,2879 3181,3541 3223,3403 3265,3282 3307,3386 3349,4099 3391,3935 3433,3879 3475,4053 3517,4559 3558,4485 3600,4319 3642,4604 3684,4436 3726,4532 3768,4634 3810,4703 3852,4783 3894,4853 3936,4935 3977,4983 4019,5089 4061,5112 4103,5160 4145,5216 4187,5263 4229,5315 4271,5356 4313,5411 4355,5536 4397,5568 4438,5950 4480,5539 4522,5562 4564,5592 4606,5594 4648,5655 4690,5687 4732,5731 4774,5730 4816,5774 4857,5823 4899,5819 4941,5890 4983,6159 5025,6111 5067,6090 5109,6162 5151,6400 5193,6030 5235,6043 5276,6362 5318,6404 5360,6817 5402,6407 5444,6163 5486,6163 5528,6788 5570,7218 5612,7648 5654,7295 5695,7394 5737,7195 5779,7670 5821,7607 5863,7390 5905,6969 5947,7550 5989,7492 6031,7422 6073,6883 6115,6610 6156,7230 6198,7535 6240,7626 6282,7452 6324,7172 6366,8368 6408,9159 6450,7872 6492,7615 6534,7900 6575,8218 6617,8936 6659,8741 6701,8320 6743,8797 6785,9000 6827,8724 6869,8989 6911,9253 6953,8593 6994,9191 7036,9380 7078,8938 7120,8672 7162,8737 7204,9016 7246,8513 7288,8342 7330,8882 7372,9004 7413,9846 7455,10116 7497,9908 7539,9806 7581,9584 7623,9882 7665,9796 7707,9586 7749,9282 7791,9958 7833,10044 7874,9739 7916,9401 7958,9074 8000,9301 8042,9652 8084,9776 8126,9717 8168,9079 8210,9273 8252,9145 8293,9633 8335,9839 8377,9730 8419,9958 8461,10199 8503,10255 8545,10241 8587,9761 8629,9774 8671,9880 8712,10055 8754,10168 8796,10279 8838,10599 8880,10607 8922,10664 8964,10431 9006,10797 9048,10879 9090,10757 9131,10779 9173,10369 9215,10501 9257,10848 9299,10960 9341,10641 9383,10765 9425,10526 9467,10645 9509,10695 9551,10354 9592,10120 9634,10520 9676,10393 9718,10539 9760,10485 9802,10731 9844,10434 9886,10546 9928,10759 9970,10818 10011,10926 10053,11063 10095,10995 10137,11382 10179,11155 10221,11091 10263,10945 10305,10852 10347,10959 10389,11004 10430,11100 10472,10852 10514,10727 10556,10932 10598,10887 10640,10803 10682,10513 10724,10971 10766,11260 10808,10947 10849,10838 10891,10802 10933,10814 10975,10847 11017,10518 11059,10327 11101,10756 11143,10962 11185,10835 11227,10880 11269,10955 11310,11118 11352,10448 11394,10580 11436,10933 11478,11281 11520,11081 11562,11266 11604,11455 11646,11522 11688,11272 11729,11332 11771,11336 11813,10962 11855,11013 11897,11099 11939,11176 11981,11525 12023,11189 12065,11270 12107,11310 12148,11181 12190,11181 12232,10983 12274,11117 12315,11340 12357,11013 12399,10673 12441,11022 12483,10996 12525,10822 12566,10937 12608,10954 12650,11012"/>
 <path fill="none" stroke="rgb(0,69,134)" stroke-width="80" stroke-linejoin="round" d="M 3098,7350 L 3139,7490 3181,6682 3223,5371 3265,3492 3307,4229 3349,4193 3391,3908 3433,5583 3475,8074 3517,7428 3558,6209 3600,4449 3642,4532 3684,4536 3726,4601 3768,4734 3810,4756 3852,4905 3894,4937 3936,4980 3977,5052 4019,5069 4061,5102 4103,5171 4145,5210 4187,5283 4229,5274 4271,5365 4313,5372 4355,5464 4397,5597 4438,5684 4480,5584 4522,5622 4564,5595 4606,5651 4648,5906 4690,6099 4732,6020 4774,5793 4816,5756 4857,5833 4899,5852 4941,5983 4983,6422 5025,5983 5067,6249 5109,6509 5151,6179 5193,6291 5235,6237 5276,6173 5318,6754 5360,6852 5402,6161 5444,6290 5486,6368 5528,6922 5570,6730 5612,6579 5654,6612 5695,6887 5737,6721 5779,7104 5821,7209 5863,6844 5905,7144 5947,7083 5989,7020 6031,7834 6073,7541 6115,7210 6156,8099 6198,9132 6240,9699 6282,8959 6324,7918 6366,7734 6408,8294 6450,8137 6492,8584 6534,8363 6575,7879 6617,7995 6659,8833 6701,9204 6743,8046 6785,8160 6827,8341 6869,8571 6911,8222 6953,8846 6994,8905 7036,8456 7078,8475 7120,8367 7162,8508 7204,8465 7246,8862 7288,8978 7330,7909 7372,8346 7413,9151 7455,9296 7497,8844 7539,8549 7581,8815 7623,9027 7665,8905 7707,8942 7749,9575 7791,9311 7833,9783 7874,9901 7916,9534 7958,9206 8000,9109 8042,9238 8084,9387 8126,10110 8168,10699 8210,10528 8252,10683 8293,10422 8335,10516 8377,10521 8419,10194 8461,10007 8503,10122 8545,10189 8587,10707 8629,11309 8671,11307 8712,10679 8754,9927 8796,9787 8838,10176 8880,10215 8922,10162 8964,10751 9006,11320 9048,10897 9090,10786 9131,10549 9173,10268 9215,10394 9257,10838 9299,10885 9341,11456 9383,11082 9425,11243 9467,11240 9509,10661 9551,10573 9592,10787 9634,10610 9676,11101 9718,10403 9760,10610 9802,10740 9844,10988 9886,11460 9928,11359 9970,11035 10011,10979 10053,10767 10095,10780 10137,10697 10179,10305 10221,10433 10263,10861 10305,11146 10347,11558 10389,11258 10430,11200 10472,11183 10514,10928 10556,10432 10598,10967 10640,11291 10682,11021 10724,11036 10766,11018 10808,11039 10849,11283 10891,11071 10933,11400 10975,11055 11017,11271 11059,11491 11101,11312 11143,10953 11185,10789 11227,10783 11269,11271 11310,11432 11352,10951 11394,10980 11436,11065 11478,11195 11520,11603 11562,11381 11604,11160 11646,10928 11688,10968 11729,11009 11771,10954 11813,10654 11855,11318 11897,11672 11939,11647 11981,11197 12023,11003 12065,11369 12107,11362 12148,11192 12190,10721 12232,10762 12274,10821 12315,11405 12357,11448 12399,11281 12441,11401 12483,11338 12525,11492 12566,11256 12608,11057 12650,10987 12692,10996 12734,11149 12776,11502 12818,11116 12860,10668 12902,10781 12944,11085 12986,11212 13027,11041 13069,11115 13111,11073 13153,11292 13195,11201 13237,10921 13279,11245 13321,11202 13363,11319 13405,11306 13446,11177 13488,11317 13530,11368 13572,10969 13614,11025 13656,11220 13698,11031 13740,11027 13782,11125 13824,11002 13865,10667 13907,11023 13949,11280 13991,11246 14033,11431 14075,11374 14117,11361 14159,11250 14201,10996 14243,10998 14284,11224 14326,11394 14368,11082 14410,10946 14452,10891 14494,11242 14536,11555 14578,11096 14620,11011 14662,11148 14704,11133 14745,11104 14787,11243 14829,11122 14871,10822 14913,10962 14955,11280 14997,11068 15039,11202 15081,11161 15123,11344 15164,11291 15206,11155 15248,11171 15290,11124 15332,11034 15374,11269 15416,11166 15458,11392 15500,11215 15542,10966 15583,11101 15625,11286 15667,11118 15709,11129 15751,11368 15793,11169 15835,11487 15877,11453 15919,11408 15961,11257 16002,11094 16044,11151 16086,10921 16128,10782 16170,10941 16212,10792 16254,10805 16296,10922 16338,11008 16380,10801 16422,11448 16463,11208 16505,10981 16547,10861 16589,11145 16631,11208 16673,11021 16715,10914 16757,10844 16799,11058 16841,11111 16882,10913 16924,10866 16966,11114 17008,11398 17050,11371 17092,11106 17134,11060 17176,11225 17218,11077 17260,11456 17301,11438 17343,11109 17385,10661 17427,11140 17469,11378 17511,11404 17553,11375"/>
 <text class="TextShape"><tspan class="TextParagraph" font-family="Liberation Sans, sans-serif" font-size="353px" font-weight="400"><tspan class="TextPosition" x="2586" y="14193"><tspan fill="rgb(0,0,0)" stroke="none">0</tspan></tspan></tspan></text>
 <text class="TextShape"><tspan class="TextParagraph" font-family="Liberation Sans, sans-serif" font-size="353px" font-weight="400"><tspan class="TextPosition" x="4403" y="14193"><tspan fill="rgb(0,0,0)" stroke="none">5000</tspan></tspan></tspan></text>
 <text class="TextShape"><tspan class="TextParagraph" font-family="Liberation Sans, sans-serif" font-size="353px" font-weight="400"><tspan class="TextPosition" x="6406" y="14193"><tspan fill="rgb(0,0,0)" stroke="none">10000</tspan></tspan></tspan></text>
 <text class="TextShape"><tspan class="TextParagraph" font-family="Liberation Sans, sans-serif" font-size="353px" font-weight="400"><tspan class="TextPosition" x="8501" y="14193"><tspan fill="rgb(0,0,0)" stroke="none">15000</tspan></tspan></tspan></text>
 <text class="TextShape"><tspan class="TextParagraph" font-family="Liberation Sans, sans-serif" font-size="353px" font-weight="400"><tspan class="TextPosition" x="10596" y="14193"><tspan fill="rgb(0,0,0)" stroke="none">20000</tspan></tspan></tspan></text>
 <text class="TextShape"><tspan class="TextParagraph" font-family="Liberation Sans, sans-serif" font-size="353px" font-weight="400"><tspan class="TextPosition" x="12691" y="14193"><tspan fill="rgb(0,0,0)" stroke="none">25000</tspan></tspan></tspan></text>
 <text class="TextShape"><tspan class="TextParagraph" font-family="Liberation Sans, sans-serif" font-size="353px" font-weight="400"><tspan class="TextPosition" x="14786" y="14193"><tspan fill="rgb(0,0,0)" stroke="none">30000</tspan></tspan></tspan></text>
 <text class="TextShape"><tspan class="TextParagraph" font-family="Liberation Sans, sans-serif" font-size="353px" font-weight="400"><tspan class="TextPosition" x="16881" y="14193"><tspan fill="rgb(0,0,0)" stroke="none">35000</tspan></tspan></tspan></text>
 <text class="TextShape"><tspan class="TextParagraph" font-family="Liberation Sans, sans-serif" font-size="353px" font-weight="400"><tspan class="TextPosition" x="18977" y="14193"><tspan fill="rgb(0,0,0)" stroke="none">40000</tspan></tspan></tspan></text>
 <text class="TextShape"><tspan class="TextParagraph" font-family="Liberation Sans, sans-serif" font-size="353px" font-weight="400"><tspan class="TextPosition" x="2244" y="13746"><tspan fill="rgb(0,0,0)" stroke="none">0</tspan></tspan></tspan></text>
 <text class="TextShape"><tspan class="TextParagraph" font-family="Liberation Sans, sans-serif" font-size="353px" font-weight="400"><tspan class="TextPosition" x="1503" y="12557"><tspan fill="rgb(0,0,0)" stroke="none">10000</tspan></tspan></tspan></text>
 <text class="TextShape"><tspan class="TextParagraph" font-family="Liberation Sans, sans-serif" font-size="353px" font-weight="400"><tspan class="TextPosition" x="1503" y="11368"><tspan fill="rgb(0,0,0)" stroke="none">20000</tspan></tspan></tspan></text>
 <text class="TextShape"><tspan class="TextParagraph" font-family="Liberation Sans, sans-serif" font-size="353px" font-weight="400"><tspan class="TextPosition" x="1503" y="10179"><tspan fill="rgb(0,0,0)" stroke="none">30000</tspan></tspan></tspan></text>
 <text class="TextShape"><tspan class="TextParagraph" font-family="Liberation Sans, sans-serif" font-size="353px" font-weight="400"><tspan class="TextPosition" x="1503" y="8990"><tspan fill="rgb(0,0,0)" stroke="none">40000</tspan></tspan></tspan></text>
 <text class="TextShape"><tspan class="TextParagraph" font-family="Liberation Sans, sans-serif" font-size="353px" font-weight="400"><tspan class="TextPosition" x="1503" y="7801"><tspan fill="rgb(0,0,0)" stroke="none">50000</tspan></tspan></tspan></text>
 <text class="TextShape"><tspan class="TextParagraph" font-family="Liberation Sans, sans-serif" font-size="353px" font-weight="400"><tspan class="TextPosition" x="1503" y="6611"><tspan fill="rgb(0,0,0)" stroke="none">60000</tspan></tspan></tspan></text>
 <text class="TextShape"><tspan class="TextParagraph" font-family="Liberation Sans, sans-serif" font-size="353px" font-weight="400"><tspan class="TextPosition" x="1503" y="5423"><tspan fill="rgb(0,0,0)" stroke="none">70000</tspan></tspan></tspan></text>
 <text class="TextShape"><tspan class="TextParagraph" font-family="Liberation Sans, sans-serif" font-size="353px" font-weight="400"><tspan class="TextPosition" x="1503" y="4234"><tspan fill="rgb(0,0,0)" stroke="none">80000</tspan></tspan></tspan></text>
 <text class="TextShape"><tspan class="TextParagraph" font-family="Liberation Sans, sans-serif" font-size="353px" font-weight="400"><tspan class="TextPosition" x="1503" y="3045"><tspan fill="rgb(0,0,0)" stroke="none">90000</tspan></tspan></tspan></text>
 <text class="TextShape"><tspan class="TextParagraph" font-family="Liberation Sans, sans-serif" font-size="353px" font-weight="400"><tspan class="TextPosition" x="1318" y="1856"><tspan fill="rgb(0,0,0)" stroke="none">100000</tspan></tspan></tspan></text>
 <text class="TextShape"><tspan class="TextParagraph" font-family="Liberation Sans, sans-serif" font-size="459px" font-weight="400"><tspan class="TextPosition" x="9506" y="982"><tspan fill="rgb(0,0,0)" stroke="none">Random counter increments</tspan></tspan></tspan></text>
 <path fill="none" stroke="rgb(0,69,134)" stroke-width="80" stroke-linejoin="round" d="M 20696,7533 L 21496,7533"/>
 <path fill="none" stroke="rgb(255,66,14)" stroke-width="80" stroke-linejoin="round" d="M 20696,8030 L 21496,8030"/>
 <text class="TextShape"><tspan class="TextParagraph" font-family="Liberation Sans, sans-serif" font-size="353px" font-weight="400"><tspan class="TextPosition" x="21596" y="7653"><tspan fill="rgb(0,0,0)" stroke="none">RocksDB/Optane</tspan></tspan></tspan></text>
 <text class="TextShape"><tspan class="TextParagraph" font-family="Liberation Sans, sans-serif" font-size="353px" font-weight="400"><tspan class="TextPosition" x="21596" y="8150"><tspan fill="rgb(0,0,0)" stroke="none">RocksDB/960pro</tspan></tspan></tspan></text>
 <text class="TextShape"><tspan class="TextParagraph" font-family="Liberation Sans, sans-serif" font-size="318px" font-weight="400"><tspan class="TextPosition" x="8163" y="14971"><tspan fill="rgb(0,0,0)" stroke="none">Total number of operations (millions)</tspan></tspan></tspan></text>
 <text class="TextShape" transform="translate(837,9545) rotate(-90) translate(-837,-9545)"><tspan class="TextParagraph" font-family="Liberation Sans, sans-serif" font-size="318px" font-weight="400"><tspan class="TextPosition" x="837" y="9545"><tspan fill="rgb(0,0,0)" stroke="none">Operations per second</tspan></tspan></tspan></text>
</svg>